<?xml version="1.0" encoding="utf-8"?>
<!-- Generator: Adobe Illustrator 23.0.5, SVG Export Plug-In . SVG Version: 6.00 Build 0)  -->
<svg version="1.1" id="Layer_1" xmlns="http://www.w3.org/2000/svg" xmlns:xlink="http://www.w3.org/1999/xlink" x="0px" y="0px"
	 viewBox="0 0 150 200" style="enable-background:new 0 0 150 200;" xml:space="preserve">
<style type="text/css">
	.st0{fill:#E9E9E9;}
	.st1{fill:#FECA98;}
	.st2{fill:#2EB075;}
	.st3{fill:#E1D414;}
	.st4{fill:#633A1C;}
	.st5{fill:#2E8DB0;}
	.st6{fill:#563621;}
	.st7{fill:#F4AB70;}
	.st8{fill:#E84E0B;}
	.st9{fill:#FBBD87;}
	.st10{fill:#D8D9DB;}
	.st11{fill:#FABC87;}
	.st12{fill:#BC78B5;}
	.st13{fill:#633A1E;}
	.st14{fill:#FBCA99;}
	.st15{fill:#B6B4AB;}
	.st16{fill:#FBFCF9;}
	.st17{fill:#19170F;}
	.st18{fill:#FBFBF5;}
	.st19{fill:#051016;}
	.st20{fill:#5D3314;}
	.st21{fill:#221D1E;}
	.st22{fill:#FBFCF7;}
	.st23{fill:#DD5314;}
	.st24{fill:#110F0E;}
	.st25{fill:#F6F4F1;}
	.st26{fill:#F9F9DB;}
	.st27{fill:#24A76F;}
	.st28{fill:#5F3417;}
	.st29{fill:#582F0E;}
	.st30{fill:#F7F5D0;}
	.st31{fill:#F8F9F6;}
	.st32{fill:#F6D2AA;}
	.st33{fill:#A97FA7;}
	.st34{fill:#EFF4E8;}
	.st35{fill:#493426;}
	.st36{fill:#F9F9F4;}
	.st37{fill:#F6D3B1;}
	.st38{fill:#FAFBF9;}
	.st39{fill:#D2AD97;}
	.st40{fill:#FAF3E9;}
	.st41{fill:#FBFAF7;}
	.st42{fill:#FCF5EA;}
	.st43{fill:#FAFBF8;}
	.st44{fill:#F6F3EC;}
	.st45{fill:#432F23;}
	.st46{fill:#A58875;}
	.st47{fill:#582A12;}
	.st48{fill:#212121;}
	.st49{fill:#1E1B1C;}
	.st50{fill:#1E1D1F;}
	.st51{fill:#EDECEE;}
	.st52{fill:#EDEDED;}
	.st53{fill:#EEEEEE;}
	.st54{fill:#AAA9AA;}
	.st55{fill:#F8F8F8;}
	.st56{fill:#7A4621;}
	.st57{fill:#C1DFDF;}
	.st58{fill:#794521;}
	.st59{fill:#FD735E;}
	.st60{fill:#FA745F;}
	.st61{fill:#FCC091;}
	.st62{fill:#FCFAF9;}
	.st63{fill:#FBBC86;}
	.st64{fill:#583721;}
	.st65{fill:#583622;}
	.st66{fill:#FDAB85;}
	.st67{fill:#090605;}
	.st68{fill:#FDB48B;}
	.st69{fill:#0A0607;}
	.st70{fill:#F9F2EB;}
	.st71{fill:#FABD87;}
	.st72{fill:#EDAE76;}
	.st73{fill:#FBBC87;}
	.st74{fill:#F9BD88;}
	.st75{fill:#FDBD90;}
	.st76{fill:#1A140F;}
	.st77{fill:#100C0A;}
	.st78{fill:#FCBD92;}
	.st79{fill:#EDB27D;}
	.st80{fill:#FDC594;}
	.st81{fill:#F5BF8F;}
	.st82{fill:#FCBD90;}
	.st83{fill:#FDB48C;}
	.st84{fill:#814E25;}
	.st85{fill:#7E4B20;}
	.st86{fill:#F27A61;}
	.st87{fill:#FCC693;}
	.st88{fill:#79461E;}
	.st89{fill:#7B4720;}
	.st90{fill:#F7C49B;}
	.st91{fill:#F6CEA4;}
	.st92{fill:#EDB582;}
	.st93{fill:#713E18;}
	.st94{fill:#F7E5CF;}
	.st95{fill:#7F4C1F;}
	.st96{fill:#E5B389;}
	.st97{fill:#89582F;}
	.st98{fill:#685E4D;}
	.st99{fill:#B18052;}
	.st100{fill:#7E4C21;}
	.st101{fill:#7C4B1E;}
	.st102{fill:#865F46;}
	.st103{fill:#F3D5B5;}
	.st104{fill:#532B0F;}
	.st105{fill:#ECD1AA;}
	.st106{fill:#FCDEC6;}
	.st107{fill:#9C6A3D;}
	.st108{fill:#F4D0A9;}
	.st109{fill:#F08868;}
	.st110{fill:#AF9880;}
	.st111{fill:#552D0F;}
	.st112{fill:#C7995D;}
	.st113{fill:#CBA269;}
	.st114{fill:#3DAD7D;}
	.st115{fill:#F0BE86;}
	.st116{fill:#EABD86;}
	.st117{fill:#3C9D71;}
	.st118{fill:#8E5E37;}
	.st119{fill:#013519;}
	.st120{fill:#945F2F;}
	.st121{fill:#44B17A;}
	.st122{fill:#67907B;}
	.st123{fill:#809E9E;}
	.st124{fill:#67AF71;}
	.st125{fill:#22AC6E;}
	.st126{fill:#E7C090;}
	.st127{fill:#38A171;}
	.st128{fill:#20AD72;}
	.st129{fill:#92B67A;}
	.st130{fill:#7ADFB0;}
	.st131{fill:#A8B981;}
	.st132{fill:#A2B373;}
	.st133{fill:#21AD6A;}
	.st134{fill:#7BA668;}
	.st135{fill:#3FAC7B;}
	.st136{fill:#686D7A;}
	.st137{fill:#B9A76F;}
	.st138{fill:#D3F0E5;}
	.st139{fill:#79AE71;}
	.st140{fill:#B7A506;}
	.st141{fill:#B6B6A3;}
	.st142{fill:#B1B4AB;}
	.st143{fill:#DFD023;}
	.st144{fill:#000A16;}
	.st145{fill:#D0CA64;}
	.st146{fill:#E1D51E;}
	.st147{fill:#BDBA6E;}
	.st148{fill:#CCC97D;}
	.st149{fill:#3C3A14;}
	.st150{fill:#3592A3;}
	.st151{fill:#D3D126;}
	.st152{fill:#69933C;}
	.st153{fill:#ABD47E;}
	.st154{fill:#7C9A36;}
	.st155{fill:#F3AC70;}
	.st156{fill:#FD745F;}
	.st157{fill:#070605;}
	.st158{fill:#070505;}
	.st159{fill:#ECAE79;}
	.st160{fill:#653207;}
	.st161{fill:#693D1A;}
	.st162{fill:#663307;}
	.st163{fill:#F6BB87;}
	.st164{fill:#C79C6F;}
	.st165{fill:#FCD1A5;}
	.st166{fill:#457D91;}
	.st167{fill:#6B3B16;}
	.st168{fill:#673B19;}
	.st169{fill:#FCEADD;}
	.st170{fill:#DBDBD7;}
	.st171{fill:#EECBB0;}
	.st172{fill:#602E09;}
	.st173{fill:#F0CFA9;}
	.st174{fill:#A1784B;}
	.st175{fill:#FDD2A8;}
	.st176{fill:#B1845B;}
	.st177{fill:#E18676;}
	.st178{fill:#9A5C8F;}
	.st179{fill:#F5CA9D;}
	.st180{fill:#F7C896;}
	.st181{fill:#E9BF91;}
	.st182{fill:#8F5979;}
	.st183{fill:#497F91;}
	.st184{fill:#643915;}
	.st185{fill:#8E5C6D;}
	.st186{fill:#5A3113;}
	.st187{fill:#3787A5;}
	.st188{fill:#946941;}
	.st189{fill:#4C3527;}
	.st190{fill:#4C5446;}
	.st191{fill:#744734;}
	.st192{fill:#936A47;}
	.st193{fill:#572C0C;}
	.st194{fill:#7C4F45;}
	.st195{fill:#FE7488;}
	.st196{fill:#FEFEFE;}
	.st197{fill:#FDCA98;}
	.st198{fill:#F84B6C;}
	.st199{fill:#F7FBFA;}
	.st200{fill:#2C8CB5;}
	.st201{fill:#3C8888;}
	.st202{fill:#4C9898;}
	.st203{fill:#CD8792;}
	.st204{fill:#072334;}
	.st205{fill:#E57B8D;}
	.st206{fill:#5A8558;}
	.st207{fill:#7F932B;}
	.st208{fill:#6E8C3F;}
	.st209{fill:#49866F;}
	.st210{fill:#101D2A;}
	.st211{fill:#95981E;}
	.st212{fill:#97A32E;}
	.st213{fill:#2A90A5;}
	.st214{fill:#32829A;}
	.st215{fill:#E19BA6;}
	.st216{fill:#508C70;}
	.st217{fill:#281306;}
	.st218{fill:#498096;}
	.st219{fill:#65A58E;}
	.st220{fill:#4A2A17;}
	.st221{fill:#58A7C2;}
	.st222{fill:#F7F9F6;}
	.st223{fill:#F7F9F8;}
	.st224{fill:#D6DCE2;}
	.st225{fill:#D6E0E2;}
	.st226{fill:#E4E1DB;}
	.st227{fill:#2E8EB3;}
	.st228{fill:#699699;}
	.st229{fill:#02151E;}
	.st230{fill:#603E2A;}
	.st231{fill:#CEDAE1;}
	.st232{fill:#33829D;}
	.st233{fill:#271B18;}
	.st234{fill:#351C17;}
	.st235{fill:#443127;}
	.st236{fill:#F2C198;}
	.st237{fill:#EFC7A5;}
	.st238{fill:#EFCDA9;}
	.st239{fill:#E7D3C3;}
	.st240{fill:#FDB981;}
	.st241{fill:#643B20;}
	.st242{fill:#603F20;}
	.st243{fill:#733612;}
	.st244{fill:#623C23;}
	.st245{fill:#191918;}
	.st246{fill:#E2E3E2;}
	.st247{fill:#338BAC;}
	.st248{fill:#613C25;}
	.st249{fill:#1E1E1E;}
	.st250{fill:#062D19;}
	.st251{fill:#F8FBF9;}
	.st252{fill:#FAFBFA;}
	.st253{fill:#151515;}
	.st254{fill:#663366;}
	.st255{fill:#FABC86;}
	.st256{fill:#F82956;}
	.st257{fill:#F92955;}
	.st258{fill:#794621;}
	.st259{fill:#F9F9F6;}
	.st260{fill:#FAF9F6;}
	.st261{fill:#FCF9F2;}
	.st262{fill:#F7F7F3;}
	.st263{fill:#F8F6F6;}
	.st264{fill:#F7F4EF;}
	.st265{fill:#F8F5F1;}
	.st266{fill:#FBFBFA;}
	.st267{fill:#59285C;}
	.st268{fill:#5D395B;}
	.st269{fill:#FBFCF8;}
	.st270{fill:#377D99;}
	.st271{fill:#F8ECEF;}
	.st272{fill:#4394B4;}
	.st273{fill:#6B3B17;}
	.st274{fill:#4E374D;}
	.st275{fill:#542F56;}
	.st276{fill:#111111;}
	.st277{fill:#F3C796;}
	.st278{fill:#0E2016;}
	.st279{fill:#141414;}
	.st280{fill:#151D27;}
	.st281{fill:#FBF2E1;}
	.st282{fill:#2C1C19;}
	.st283{fill:#A94219;}
	.st284{fill:#101012;}
	.st285{fill:#DCA981;}
	.st286{fill:#A37048;}
	.st287{fill:#EDEEEE;}
	.st288{fill:#BA8959;}
	.st289{fill:#F8BD87;}
	.st290{fill:#B88C5D;}
	.st291{fill:#8E5F39;}
	.st292{fill:#C0DCDA;}
	.st293{fill:#C6D9E4;}
	.st294{fill:#E4CA9B;}
	.st295{fill:#59295A;}
	.st296{fill:#E4C3A5;}
	.st297{fill:#D5D3EA;}
	.st298{fill:#6F3814;}
	.st299{fill:#FDB38A;}
	.st300{fill:#FDA581;}
	.st301{fill:#D8D9D9;}
	.st302{fill:#EEEDEA;}
	.st303{fill:#D6D5D4;}
	.st304{fill:#E8E8E5;}
	.st305{fill:#B7B17C;}
	.st306{fill:#B8AD78;}
	.st307{fill:#33AB74;}
	.st308{fill:#E4B785;}
	.st309{fill:#905A2D;}
	.st310{fill:#C79862;}
	.st311{fill:#564128;}
	.st312{fill:#4A3C2C;}
	.st313{fill:#E4C79C;}
	.st314{fill:#424C56;}
	.st315{fill:#79A578;}
	.st316{fill:#99AC44;}
	.st317{fill:#8BA95C;}
	.st318{fill:#639F88;}
	.st319{fill:#A7AA2F;}
	.st320{fill:#2F8DAF;}
	.st321{fill:#F4F9F8;}
	.st322{fill:#0A1F2E;}
	.st323{fill:#50869A;}
	.st324{fill:#053244;}
	.st325{fill:#38829E;}
	.st326{fill:#A3C3C6;}
	.st327{fill:#E7E9E5;}
	.st328{fill:#338AAA;}
	.st329{fill:#FA6C58;}
	.st330{fill:#EFEBE9;}
	.st331{fill:#3A7F98;}
	.st332{fill:#668282;}
	.st333{fill:#417F92;}
	.st334{fill:#36829C;}
	.st335{fill:#FCD1A8;}
	.st336{fill:#318BAB;}
	.st337{fill:#EB7B8B;}
	.st338{fill:#BF8F9D;}
	.st339{fill:#EEF3F2;}
	.st340{fill:#2F0000;}
	.st341{fill:#D1A2B0;}
	.st342{fill:#5B2C2C;}
	.st343{fill:#2D2D2F;}
	.st344{fill:#DA8A9A;}
	.st345{fill:#4A4F54;}
	.st346{fill:#F6C89A;}
	.st347{fill:#D7C5A8;}
	.st348{fill:#FEC88D;}
	.st349{fill:#87A09A;}
	.st350{fill:#C8556E;}
	.st351{fill:#021317;}
	.st352{fill:#434144;}
	.st353{fill:#BAD3D1;}
	.st354{fill:#E0DBD5;}
	.st355{fill:#0D0907;}
	.st356{fill:#9BCCD8;}
	.st357{fill:#FCC981;}
	.st358{fill:#328DAB;}
	.st359{fill:#584127;}
	.st360{fill:#3888AB;}
	.st361{fill:#2FAF75;}
	.st362{fill:#553158;}
	.st363{fill:#563356;}
	.st364{fill:#CD4044;}
	.st365{fill:#FAC39C;}
	.st366{fill:#925B2E;}
	.st367{fill:#FDAA84;}
	.st368{fill:#41392E;}
	.st369{fill:#BC8557;}
	.st370{fill:#420000;}
	.st371{fill:#FDA482;}
</style>
<path class="st0" d="M5,169.6c4-2.8,10-3.5,13.8-4c1.6-0.2,3.2-0.2,4.8-0.4c0.7-0.1,1.5-0.1,2.2,0.1c0.7,0.7-0.2,0.8-0.4,1
	c-1.4,0.9-2.9,1.7-4.4,2.6c-0.6,0.3-1.4,0.6-1.2,1.4c0.1,0.9,1,1,1.6,1.1c1.3,0.3,2.6,0,3.8,0.2c0.1,0,0.2,0.1,0.3,0.1
	c0.2,0.1,0.4,0.2,0.6,0.2c-0.2,0-0.4,0-0.4-0.2c0.9-0.6,1.9-0.6,2.9-0.8c3.4-0.8,6.7-1.8,9.9-3.2c0.4-0.1,0.7-0.3,1-0.6
	c0.3-0.9,0.5-1.9,0.7-2.9c0.1-0.4,0-0.8,0.5-1c0,0,0.1,0,0.1,0c0.3,1.6,1.4,1.6,2.6,1.4c0.7,0.5,0.6,1.5,1,2.2
	c2.2,1.2,4.7,1.8,7.1,2.4c3.1,0.8,6.2,1.3,9.5,1.2c0.9,0,1.7-0.1,2.5-0.5c0.4-0.2,0.8-0.4,0.8-0.9c0-0.6-0.4-0.9-0.8-1.1
	c-0.6-0.4-1.3-0.6-1.9-1c-0.3-0.2-0.8-0.3-0.7-1c0.4-0.4,0.8-0.4,1.3-0.3c3.5,0.4,7,0.8,10.3,1.8c0.7,0.2,1.4,0.1,2.1,0
	c6.1-1.4,12.3-2,18.5-2.4c0.4,0,0.6-0.3,0.7-0.6c0.1-0.2,0.2-0.7,0.6-0.4c0.4,1.1-0.3,2.2-0.2,3.3c-0.2,1,0.3,1.6,1,2.3
	c2.6,2.3,5.4,4.1,8.9,4.5c2.2,0.3,4.3,0.2,6.2-1c0.9-0.5,1.7-1.2,1.6-2.4c-0.6-1.2-1.7-1.9-2.7-2.5c-1.2-0.8-2.6-1.5-4-2
	c-0.5-0.2-1.4-0.2-1-1.2c1.5-0.6,3-0.2,4.6-0.3c0.9,0.1,1.8-0.1,2.7,0.2c0.2,0.1,0.3,0.3,0.3,0.5c-0.3,1.3,0.2,2.1,1.2,2.9
	c2,1.6,4,3.2,6.5,3.9c0.2,0.1,0.4,0.1,0.6,0.4c0.1,0.1-0.2,0.3,0,0.3c0.5,0,1.1,0.1,1.6,0c0.1,0,0.3,0,0.4,0c0.1,0,0.1,0.1,0.2,0.2
	c0.8,0.2,1.6-0.1,2.4,0.2c0.1,0,0,0,0.1,0c0,0-0.1-0.1-0.1-0.1c0-0.1,0-0.2,0.1-0.3c1.1-0.5,2.3-0.6,3.3-1.2
	c0.8-0.6,1.6-1.2,1.5-2.4c-0.8-1.2-1.9-2-3-2.8c-0.3-0.2-1.1-0.4-0.4-1c1.2-0.4,2.2,0.5,3.3,0.5c3.1,0.4,6.2,0.7,9.3,1.1
	c2.6,0.3,5.1,0.9,7.6,1.6c1.4,0.4,2.7,0.9,3.7,2.2c0,0.2,0,0.4,0,0.7c-1,1.2-2.4,1.8-3.7,2.1c-4.3,1.2-8.7,1.9-13.2,2.3
	c-5.2,0.5-10.5,0.7-15.7,1c-5.1,0.3-10.2,0.2-15.3,0.1c-4.3,0-8.5-0.3-12.8-0.7c-3.6-0.4-7.2-0.6-10.7-1.3c-2.1-0.4-4.2-0.9-6.2-1.5
	c-0.4-0.1-0.9-0.1-1.3,0c-4.4,1.2-8.9,1.5-13.5,1.9c-3,0.3-6.1,0.3-9.1,0.5c-4.6,0.3-9.3,0.2-13.9,0.1c-5-0.1-10.1-0.3-15.1-0.9
	c-4.5-0.5-12.7-0.8-14.7-4.5"/>
<path class="st1" d="M35.1,69c-1.1-0.3-2-1.2-3-1.7c-0.2-0.2-0.5-0.4-0.6-0.8c0-0.5-0.4-0.7-0.8-1c-1.9-2.1-2.8-4.8-3.2-7.5
	c-0.3-1.7-0.5-3.5-0.5-5.2c-0.4-0.4-0.8-0.8-0.6-1.4c0.1-0.2,0.2-0.4,0.2-0.5c0-1,0.4-1.8,1-2.6c0.2-3.3,0.6-6.6,1-9.8
	c0.1-0.8,0.5-1.2,1.2-1.5c1.5-0.7,2.8-1.8,4.2-2.7c0.6-0.4,1.1-0.8,1.8-0.4c0.4,0.2,0.8,0,1.1-0.1c5.4-1.2,10.3-3.4,14.8-6.7
	c0.5-0.3,1-0.7,1.4-1.1c0.7-0.5,1.1-0.3,1.4,0.5c0.7,2.1,1.8,4,2.9,5.9c0.2,0.3,0.3,0.7,0.8,0.7c0.5,0,0.6,0.6,0.8,1
	c0.5,1.2,0.8,2.5,1.1,3.9c0,0.2,0.1,0.4,0.1,0.6c0.2,1,0.3,2.1,0.4,3.1c0.1,1.2-0.2,2.2-0.7,3.3c-0.7,1.6-1.1,3.3-1.5,4.9
	c2.4,0.7,4.7,0,7-0.3c0.6-0.1,1.2-0.1,1.8-0.3c0.4,0,0.9,0,1.3-0.2c0.2,0,0.4-0.1,0.6-0.1c2.3-0.3,4.5-0.9,6.8-1
	c0.3,0,0.7,0.1,0.8,0.4c-0.1,0.4-0.5,0.3-0.7,0.5c-0.2,0.1-0.5,0.2-0.7,0.1c0.2,0.1,0.4,0,0.6,0c0.1,0,0.3-0.1,0.4-0.1
	c0.3,0,0.5,0,0.7-0.2c0.1-0.1,0.2-0.1,0.3-0.1c0.5,0,1-0.1,1.5-0.3c0.3-0.1,0.6-0.2,0.9-0.3c0.3-0.1,0.5-0.2,0.7,0
	c0.2,0.2,0.1,0.5,0,0.8c0,0.1-0.2,0.1-0.1,0.2c0.1,0,0.2-0.1,0.3,0c0.1,0.1,0.1,0.2,0.2,0.3c0,0.2,0,0.4,0,0.6c0,0.1,0,0.2,0,0.1
	c0,0,0,0,0,0c0.2-0.6,0.5-0.5,0.7,0c0.2,0.4,0.1,0.9,0.2,1.3c0.1,0.3,0.1,0.7,0.1,1c0,1.6,0,3.2,0.2,4.8c0.1,0.6,0.2,1,0.7,1.3
	c1.3,0.8,1.5,1.3,1.1,2.8c-0.1,0.4-0.4,0.9-0.3,1.4c-0.1,1-0.7,1.6-1.5,2.1c-1.5-0.4-2.3,0.3-3.1,1.7c-1,1.8-2.6,2.8-4.2,3.9
	c-1.1,0.5-2.4,0.9-3.3,2c-1.3,0.2-2.6,0.3-3.8,0c-0.4-0.6,0.1-0.6,0.4-0.7c0.7,0,1.5,0,2.2,0c-0.9,0-1.8,0-2.7,0
	c-1.7-0.1-3.1-1-4.4-1.9c0.2,0.8,0.4,1.6,0.1,2.4c-0.2,0.1-0.4,0.1-0.5,0c-0.3-0.4-0.3-0.9-0.3-1.4c0.1-1-0.2-1.8-0.7-2.6
	c-0.1-0.4-0.3-0.7-0.7-0.9c-0.6-0.5-1.1-1.2-1.3-2c0-0.3,0-0.6,0-1c0-0.1,0-0.3-0.1-0.3c-0.2,0-0.2,0.2-0.2,0.4
	c-0.9,2-2.3,3.4-4.1,4.4c-1.2,0.7-1.8,1.4-1.5,2.9c0.1,0.4,0.1,1-0.3,1.4c-0.1,0-0.2,0-0.4-0.1c-0.4-0.5-0.4-1.1-0.4-1.7
	c0-0.7-0.2-0.9-0.8-0.7c-4.1,1.4-8.3,1.2-12.5,0.8c-1.1-0.1-2-0.5-3-0.7c-0.2-0.1-0.3-0.2-0.3-0.4C36,69.1,35.4,69.3,35.1,69z"/>
<path class="st2" d="M53.4,72.4c0.1,0,0.2,0,0.3,0c0.1,0,0-0.1,0.1-0.1c2,0,4.1,0.1,6,0.9c0.2,0.8,0.1,1.7,0.3,2.5
	c0,0.2-0.1,0.4-0.1,0.5c-0.5,0.5-0.4,1.3-0.9,1.8c-0.4,0-0.8-0.1-1.1,0.3c-0.2,0.1-0.4,0.1-0.6,0.1c-0.3-0.1-0.5-0.3-0.7-0.5
	c-0.1-0.1-0.1-0.2-0.2-0.3c-0.3-0.5-0.5-1.1-0.8-1.6c-0.1-0.2-0.2-0.5-0.5-0.4s-0.2,0.4-0.3,0.6c-0.2,0.3-0.4,0.3-0.7,0.2
	c-0.7-0.6-0.9,0-1.1,0.5c-1,0.5-0.2,1.1-0.1,1.7c0,0.2,0,0.3-0.1,0.5c-0.9,0.6-0.9,0.7,0,1.2c1.8,1.2,3.2,2.9,4.5,4.7
	c0.1,0.2,0.3,0.4,0.2,0.7c-0.2,0.7-0.6,1.4-0.9,2.1c-0.7,1.5-0.3,2.1,1.3,1.9c0.2,0,0.5,0,0.6,0.2c0.2,0.5,0.2,1,0.1,1.5
	c-0.1,1.2-0.4,2.5-0.1,3.7c0.1,0.3,0.1,0.6,0.2,1c0,0.4,0,0.9-0.2,1.3c-0.4,0.6-0.8,0.1-1.2,0c-0.5-0.3-1.2-1-1.6-0.4
	c-0.4,0.6,0.4,1,0.7,1.4c0.1,0.1,0.2,0.3,0.2,0.4c-0.4,0.7-1.1,0.6-1.7,0.6c-0.3,0-0.6-0.2-0.9,0.1c-0.4,0.4-0.3,0.9-0.1,1.4
	c0,0.2,0,0.3,0,0.5c-0.2,0.6,0,1,0.4,1.5c0.1,0.2,0.1,0.3,0.1,0.5c-0.3,0.9,0.3,1.1,0.8,1.4c0.1,0.2,0.1,0.3,0,0.5
	c-0.2,1.1-0.1,1.2,1,0.9c0.6-0.1,1.3-0.5,1.4,0.6c-0.1,0.7-0.1,1.4,0.1,2.1c0,1.1,0.3,2.2,0.3,3.3c0,1.3-0.4,1.7-1.6,1.7
	c-2.4,0-4.8,0.1-7.2,0c-1.6-0.1-3.1-0.2-4.8-0.2c1.2,0,2.3-0.1,3.4,0.1c0.1,0.1,0.1,0.3-0.1,0.4c-0.5,0.3-1.1,0.3-1.7,0.3
	c-2.8,0-5.5,0-8.3,0c-1.6,0-3.2,0-4.8,0c-0.7,0-1.2-0.1-1.5-0.8c-0.4-1.6-0.1-3.2-0.2-4.7c0-1.4,0-2.8,0-4.3c0.1-3.9,0-7.8,0-11.7
	c0-0.1,0-0.3-0.2-0.1c-0.1,0.9,0,1.8,0,2.8c0,0.4,0,0.8,0,1.2c-0.2,1.1-0.3,2.2-0.5,3.3c-0.4,1.5-0.6,3-1.5,4.3
	c-0.3,0.3-0.5,0.7-0.9,1c-0.5-0.1-0.8,0.2-0.9,0.7c-1.3,0.7-2.4,0.1-3.5-0.5c-2.2-1.2-4.3-2.4-6.4-3.8c-1-0.7-2.1-1.4-3.1-2.1
	c-1.4-0.9-2.9-1.8-4.3-2.8c-0.7-0.4-1.2-1-0.7-1.9c0.7-1.4,1.5-2.7,2.2-4.2c0.3-0.3,0.6-0.7,1.1-0.4c3.2,2.1,6.4,4.3,9.8,6.2
	c0.4,0,0.8,0.7,1.4,0.1c0.3-0.8,0.1-1.5-0.1-2.3c0-0.3,0-0.6,0.2-0.9c0.5-5.2,1.1-10.5,2.8-15.5c0.4-1.3,1-2.6,1.8-3.8
	c0.9-1.2,1.9-2.1,3.6-1.8c1.2,0.3,2.4,0,3.6,0.1c-0.7,0-1.5,0.1-2.2-0.2c1-0.2,2-0.1,2.9-0.1c0.4,0,0.7,0.1,1.1,0.4
	c1.7,1,3.5,1.4,5.4,1.4c1.6,0,3.2,0,4.8,0c0.7,0.1,1.3,0,1.9-0.3C50.8,73.9,52,73,53.4,72.4z"/>
<path class="st3" d="M145.7,112.6c0,0.3,0,0.6,0,1c0.4,0.5,0.4,1.1,0.3,1.6c-0.1,0.8,0,1.6,0.1,2.4c0,3,0.5,6,0.8,9
	c0.2,2.4,0.4,4.8,0.7,7.2c0,0.4,0,0.9,0.1,1.2c0.5,1.3-0.2,1.6-1.2,1.7c-2.6,0.2-5.2,0.7-7.8,1.1c-0.7,0.4-1.6,0-2.4,0.4
	c-0.4,0-0.9,0-1.3,0.1c-0.8,0.3-1.6,0.2-2.4,0.4c-0.3,0-0.5,0-0.8,0.1c-0.4,0.1-0.7,0.2-1.1,0.2c-0.6,0-1.2-0.1-1.7,0.2
	c-0.1,0.1-0.2,0.1-0.3,0.2c-0.7,0.2-1.5,0.4-2.2,0.4c-0.4,0-0.9,0-1.3,0.1c-1,0.1-2,0.4-3,0.3c-0.5-0.1-1-0.3-1.4,0.2
	c-0.8,0.5-1.8,0.2-2.7,0.5c-0.4,0.1-0.9,0.1-1.3,0.2c-0.4,0.1-0.7,0.1-1.1-0.1c-0.4-0.8,0.1-1.7-0.1-2.5c-0.1,0.8,0.2,1.6-0.3,2.4
	c-0.2-0.1-0.3-0.3-0.4-0.5c-0.2-2.8-0.1-5.6-0.1-8.4c0-1.5,0-3,0-4.5c0.1-4.8,0-9.7,0-14.5c0-0.6-0.1-1.2,0.1-1.7
	c0.1-0.3,0.1-0.4-0.2-0.2c-0.7-1.4-0.5-2.8-0.1-4.2c0.8-0.6,1.8-0.3,2.7-0.4c0.7,0,1.3,0,1.9,0c0.2,0,0.7,0.4,0.7-0.3
	c1-0.3,1.9-0.3,2.9,0c0.4,0.3,0.4,0.9,0.5,1.3c0.1,0.4,0,0.8,0,1.1c0,0.4,0,0.8,0.1,1.2c0,0.1,0,0.1,0.1,0.1c0-0.3-0.1-0.6-0.2-0.9
	c0-0.4,0-0.8,0-1.2c0-0.6-0.2-1.2,0.2-1.6c2.2-0.9,4.5-0.8,6.9-0.7c0.7,0,1.5,0.2,2.3-0.1c0.1-0.1,0.2-0.1,0.3-0.2
	c0.5-0.1,1-0.2,1.5,0c1,0.8,0.8,2.1,1.4,3c-0.2-0.6-0.5-1.2-0.7-1.9c-0.1-0.5-0.1-0.9,0.4-1.1c2.6-0.2,5.1-0.6,7.7-0.6
	c0.5,0,0.9,0,1.4,0.2c0.5,0.7,0.3,1.5,0.4,2.3c0,0.4,0,0.9,0.2,1.3c0,0.5,0,1,0,1.4C145.8,110.6,145.8,111.6,145.7,112.6z"/>
<path class="st1" d="M126.3,57.5c-0.7,1.6-1.4,3.2-2.1,4.8c-0.6,1.5-1.4,2.8-2.8,3.7l0,0c-0.7,1.1-1.5,2-2.8,2.3
	c-0.7-0.1-0.7,0.4-0.7,0.9c0,0.8,0.1,1.6-0.2,2.3c-0.1,0.1-0.2,0.2-0.3,0.2c-0.5-0.1-0.4-0.6-0.4-0.9c-0.1-1.2-0.1-1.2-1.2-0.8
	c-1,0.4-1.9,0.7-2.9,0.9c-3.3,0.7-6.5,0-9.5-1.3c-0.1,0.6,0.1,1.2-0.3,1.8c-0.6,0-0.5-0.5-0.6-0.9c-0.1-0.5,0-1-0.3-1.4
	c-1.1-1.2-2.6-2.1-3.7-3.4c-2.9-3.5-5-7.4-4.9-12.2c0-0.1,0-0.2-0.1-0.3c-0.5-0.4-1.1-0.1-1.6-0.1c-0.2,0,0,0-0.1,0
	c-0.7-0.1-1.4-0.5-1.4-1.2c0-0.7,0.8-0.5,1.3-0.8c0.2-0.1,0.4-0.1,0.6-0.1c1.3,0.3,1.4,0.2,1.4-1.1c0-0.7-0.1-1.4-0.2-2.1
	c0.6-2.7,2-4.9,3.6-7c1.6-2,3.7-3.5,5.8-4.9c0.2-0.1,0.4-0.2,0.7-0.2c0.4,0.5,0.7,0.2,1.1,0.1c2.4-0.8,4.8-1.8,7-3.2
	c1.3-0.6,2.4-1.5,3.6-2.3c0.6-0.4,1.1-0.5,1.5,0.2c1.8,3.5,4.5,6.4,6.3,9.9c0.1,0.3,0.3,0.6,0.5,0.9c0,0.6,1.1,1.2,0,1.8
	c-1.4-0.1-2.9-0.1-4.3,0c1.5,0.4,3.2-0.1,4.7,0.5c0.9,0.5,0.8,1.5,1.1,2.3c0.1-0.2-0.1-0.4-0.2-0.6c-0.1-0.5-0.4-1,0.2-1.3
	c0.3-0.1,0.7-0.1,1,0.1c0.1,0.1,0.2,0.2,0.2,0.4c0.3,2.7,0.1,5.3,0.1,8c0,0.9-0.1,1.7,0.1,2.5c0.1,0.3,0.1,0.5,0,0.8
	c0,0.2,0,0.5-0.1,0.7C126.5,56.8,126.2,57.1,126.3,57.5z"/>
<path class="st4" d="M92.3,51.3c-0.5,0.3-1,0.6-1.7,0.6c0.4,0.8,0.9,1.1,1.6,1.2c0.1-0.1,0.2-0.1,0.3,0c0.1,0,0.2,0.1,0.3,0.1
	c0.4,0.1,0.7,0.1,1.1,0c0.1,0,0.2,0,0.3,0.1c0,6.5,3.1,11.2,7.9,14.9c0.2,0.2,0.6,0.2,0.6,0.7c-0.1,0.2-0.3,0.2-0.5,0.3
	c-1.7,0.4-1.7,0.4-1.9,2.1c-0.1,0.4-0.3,0.8-0.5,1.2c-0.2,0.3-0.4,0.5-0.7,0.7c-0.6,0.4-0.7,0.9-0.6,1.6c0.4,2.2,0.2,2.9-1,4.7
	c1.7,0.6,2.8,1.8,3.2,3.6c0.3,1.5-0.4,4-1.4,4.8c-0.4,0.1-0.7-0.1-1-0.4c-0.5-0.4-0.8-0.2-1.1,0.3c-0.3,0.1-0.6,0.1-0.9,0
	c-1-0.8-2.1-1.4-2.8-2.5c-0.7-1-0.9-2.1-0.7-3.3c0.1-0.5,0.4-0.9,0.4-1.4c0-0.2,0.1-0.3,0.2-0.5c0.4-0.7-0.2-0.9-0.5-1.3
	c-0.9-1.4-1-2.9-0.5-4.4c0.7-1.1,1-2.1,0.4-3.4c-0.5-1.1-0.4-2.4,0.2-3.3c1.1-1.7,0.4-3.2-0.3-4.7c-0.1-0.1-0.2-0.3-0.3-0.4
	c-0.7-1.5-1.6-2.8-2.5-4.2c-0.7-1.2-1.4-2.4-1.9-3.7c-1.1-3.9-1.3-7.8-0.4-11.7c0.3-1.1,0.1-2.2,0.7-3.2c0.7-2.4,1.4-4.8,2.3-7.1
	c0.2-0.3,0.2-0.7,0.5-1l0,0c0.2-0.6,0.5-1.2,0.9-1.7c0-0.1,0-0.3,0.1-0.4c0.6-0.9,1-1.8,1.9-2.4c1.5,0.4,1.8,1,1.5,3.1
	c-0.7,1.7-1.5,3.3-1.9,5.1c-0.2,0.6-0.5,1.2-0.5,1.8c0,0.1,0,0.2-0.1,0.3c0.1,0,0-0.1,0.1-0.1c0.1-0.7,0.4-1.3,0.6-1.9
	c3.1-6.4,7.9-9.9,14.8-10.2c3.2-0.1,6.3,0.1,9.3,1.3c3.7,1.4,6.4,4,8.3,7.5c0.6,1,1.1,2.1,1.4,3.2c0.2,0.6,0.3,1.2,0.3,1.9
	c0,0.1,0,0.1,0,0.2c0,0,0.1,0,0-0.1c0-0.1-0.1-0.1-0.1-0.2c0-0.9-0.2-1.8-0.5-2.6c-0.7-3.8-2.1-7.1-5-9.7c-0.8-0.7-1.7-1.1-2.6-1.7
	c-0.3-0.2-0.7-0.4-0.8-0.8c0-0.5,0.4-0.6,0.7-0.5c0.4,0,0.7,0.1,1,0c2.6,0.4,4.5,2.1,5.9,4.3c1.9,3,2.8,6.3,2.7,9.9
	c0,2.9-0.2,5.9-0.3,8.8c0,0.4,0,0.9-0.2,1.3c-0.1-0.1-0.1-0.2-0.2-0.3c0.1,0.3-0.1,0.5,0.1,0.8c-0.2,2.5-0.8,4.9-1.8,7.2
	c-0.6-0.4-0.5-1-0.5-1.6c0-2.9,0-5.8,0-8.7c0-0.1-0.1-0.2-0.1-0.3c-0.1-0.1-0.1-0.3-0.3-0.4l0-0.1c-0.2-0.1-0.5-0.2-0.6-0.5
	c-0.3-0.7-0.7-1.3-1.3-1.9c-0.3-0.2-0.6,0-0.8-0.3c-2.1-3.9-5.1-7.2-7.2-11.3c-1.4,1-2.7,2.1-4.3,2.8c-0.4,0.1-0.5-0.1-0.6-0.4
	c0.2-0.8,1-0.9,1.4-1.2c-1.8,0.7-3.6,2-5.6,2.7c-0.5-0.1-1.2-0.7-1.2,0.5c-0.4,0.8-1.3,0.9-1.9,1.4c-0.1,0-0.2,0-0.3-0.1
	c-3.7,2.4-7.1,5.3-9,9.7c-0.3,0.7-0.7,1.5-0.8,2.3C93.7,49.2,93.7,50.6,92.3,51.3z"/>
<path class="st5" d="M126.6,139.3c0.8-0.1,1.5-0.2,2.3-0.3c0.5-0.4,1.1-0.1,1.6-0.2c0.1,0,0.2-0.1,0.3-0.2c0.4,0,0.7,0,1.1,0
	c-1.9,2.3-4.4,3.1-7.3,3.1c-2,0-4,0.2-6,0.2c-0.4,0.4-0.9,0.3-1.4,0.3c-1.4,0-2.7,0-4.1,0c-1.3,0.1-2.6,0.5-3.7,1.2
	c-1.1,0.6-2.2,1.2-3.5,0.9c-1.3-0.2-2.4-0.8-3.5-1.3c-0.6-0.2-1.3-0.4-1.9-0.3c-1,0-1.9,0.7-2.9,0.1c-0.3-0.5-0.2-1.1-0.2-1.7
	c0-2.8,0-5.5,0-8.3c0-0.4,0-0.9-0.1-1.3c-0.3-0.5-0.8-0.6-1.3-0.6c-0.5,0-1,0-1.5,0c-0.1,0-0.2,0-0.3,0c-0.2,0-0.4-0.2-0.6-0.3
	c-0.2-0.2-0.3-0.4-0.3-0.6c-0.2-0.8-0.3-1.5-0.4-2.3c-0.1-0.7-0.2-1.3-0.4-2c0-0.2,0-0.5,0.1-0.7c0,0,0-0.1,0.1-0.1
	c1.5-0.3,1.5-0.3,0.7-1.8c-0.3-0.5-0.6-1.1-0.4-1.7c0-0.2,0.1-0.4,0.2-0.5c2.2-2.6,3-5.7,2.7-9.3c-0.3-3.4,0.2-6.8,0.3-10.2
	c0.4-0.7,0.7-1.5,1.1-2.2c0.1-0.1,0.3-0.2,0.5-0.1c0.6,0.8,0.9-0.1,1.3-0.2c1.1,0.3,2.2-0.2,3.2-0.7c0.5,0.1,0.7,0.6,0.9,1
	c0.1,0.3,0.1,0.6-0.1,0.8c-0.4,0.4-0.1,0.9-0.1,1.3c0,0.3,0,0.6,0,0.9c0,0.2,0,0.4-0.1,0.5c-0.3,1.3-0.4,2.6-0.7,3.8
	c-0.1,0.6,0.1,1.1,0.5,1.5c0,0.1,0,0.3,0.1,0.3c0.4-0.1,0.9-0.1,1.3-0.2c1.4,0.1,2.7,0.5,4,0.7c0.7,0.2,1.4,0.2,2,0.4
	c0.4,0.1,0.9,0.2,1.1,0.7c0.3,1.9,0.2,3.8,0,5.8c0,0.1-0.1,0.2-0.2,0.3c-0.2-0.1-0.2,0.1-0.2,0.2c0.1,1.7,0,3.5,0.1,5.2
	c0,1.3,0,2.5,0,3.8c0,1.3,0,2.6,0,3.9c0,1.3,0,2.6,0,3.9c0,1.3,0,2.5,0,3.8c0,0.7,0,1.5,0,2.2c0,0.8,0.5,0.6,0.9,0.4
	c0.1-0.1,0.2-0.1,0.3-0.1c0.3-0.1,0.6-0.1,0.8-0.1c0.3,0,0.6,0,0.9,0c0.7,0.3,1.5,0.5,1.8,1.3c0,0.1,0.1,0.2,0.3,0.1
	c0.1-0.1,0.2-0.1,0.2,0c0.4,0,0.8,0,1.1,0c0.4-0.1,0.8,0.2,1.2-0.2c0.4-0.4,1-0.2,1.5-0.3c0.4,0,0.9,0.1,1.3-0.3
	c0.4-0.3,0.8-0.1,1.2-0.2c1.1-0.1,2.2-0.2,3.2-0.3C125.8,139.3,126.2,139.5,126.6,139.3z"/>
<path class="st6" d="M60.4,41.5c-0.1-1.1-0.3-2.1-0.4-3.2c0.1-0.1,0.1-0.3,0.1-0.5c0-0.1,0-0.2,0.1-0.2c-0.2,0-0.1,0.2-0.2,0.2
	c-0.5-1.6-0.8-3.4-1.7-4.9c-0.3,0.1-0.1,0.4-0.4,0.6c-1.4-2.5-2.9-5-3.8-7.9c-2.5,1.9-5,3.6-7.7,5c-3.2,1.6-6.5,2.7-9.9,3.5
	c-0.4,0.1-0.8,0.4-1.1-0.2c-0.2-0.4-0.4,0-0.6,0.1c-1.5,1-3,2.3-4.7,3c-1.1,0.5-1.1,1.2-1.2,2.1c-0.4,3-0.8,6-0.9,9.1
	c-0.1,0.3-0.1,0.7-0.5,0.7c-0.4,0-0.6-0.3-0.7-0.7c-0.3-0.9-0.3-1.8-0.4-2.6c0-0.4,0-0.7-0.2-1.1c-1.5-0.9-0.8-2.5-1.1-3.8
	c0.1-2.9-0.4-5.9,0.2-8.8c0.5-2.7,1.6-5.2,3.5-7.2c0.5-0.3,1-0.6,1.2-1.3c2.9-2.9,6.4-4.4,10.2-5c1.5-0.2,2.9-0.3,4.4-0.5
	c1.5,0.2,3.1-0.1,4.5,0.4c0.1,0.1,0.2,0.2,0.2,0.2c-0.1,0.1-0.3,0.2-0.4,0.1c0.3,0.1,0.6,0.1,0.9,0c1.9,0.4,3.6,1.3,5,2.9
	c0.2,0.2,0.4,0.4,0.7,0.5c2.8,0.8,4.8,2.6,6.2,5.1c1.2,1.9,1.6,4,1.6,6.2c0,1.3,0.2,2.6,0,3.9C63,38.2,63,39,63.1,39.8
	c-0.4,1.3-1.5,2.1-2.3,3.2C60.3,42.4,60.7,41.9,60.4,41.5z"/>
<path class="st5" d="M99,87.6c1.1-1.3,1.5-3,1.1-4.7c-0.4-1.9-1.6-2.9-3.4-3.3c1.6-1.7,1.8-3.6,1-5.7c-0.1-0.3-0.1-0.4,0.2-0.5
	c0.6-0.1,0.9-0.7,1.4-1c1-1.3,2.3-0.7,3.6-0.7c0.3,0.1,0.6,0.4,0.8,0.7c1.8,2.7,4.3,3.6,7.3,3.6c0.6,0,1.3,0,1.8-0.3
	c1.9-0.6,3.1-2.2,4.4-3.6c0.5-0.4,1-0.5,1.6-0.5c1.8,0,3.7,0,5.5,0c0.6,0,1,0.3,1.3,0.9c1.5,2.8,2.7,5.8,3.1,9.1
	c0,0.8,0.2,1.5,0.5,2.2c0.2,0.3,0.4,0.7,0.4,1.2c0,0.1,0,0.1,0,0.2c-0.1,0.2-0.2,0.3-0.2,0.6c0-0.2,0.1-0.3,0.4-0.2
	c0.7,1.5,0.8,3.1,0.9,4.7c0,1.1,0.3,2.1,0.5,3.2c0.7,1.5,0.7,3.1,0.8,4.7c-0.2,0.5-0.4,0.1-0.6,0c-0.4-0.4-0.7-0.8-1-1.2
	c-1.1-1.4-2.4-1.8-4-1.2c-0.4,0.1-0.7,0.3-1,0.4c-1.9-0.2-3.8-0.3-5.5-1.1c-0.3-0.8,0-1.5,0.1-2.3c0.2-1.6,0.6-3.1,0.6-4.7
	c-0.1-0.2-0.2-0.5-0.5-0.6c-0.3-0.2-0.7-0.1-1-0.2c-0.1,0-0.2,0-0.3-0.1c-0.4-0.1-0.7-0.1-1.1-0.1c-0.5-0.1-1-0.2-1.5-0.3
	c-3.2-0.6-6.3-1.2-9.5-1.7c-0.5-0.1-1-0.1-1.3,0.5c0,0.1-0.1,0.2-0.1,0.4c0,0.1-0.1,0.2-0.1,0.4c-0.4,1.6-0.4,3.3-1,4.9
	c-0.4,0.4-0.9,0.6-1.4,0.7c-0.7,0-0.8-0.5-1.1-1c-0.1-0.2-0.3-0.4-0.5-0.6c-0.6-0.7-1.4-1.3-2.1-1.8c-0.1-0.1-0.1-0.2-0.2-0.3
	C98.8,87.9,98.8,87.7,99,87.6z"/>
<path class="st7" d="M112.8,142.1c1.9-0.2,3.9-0.1,5.8-0.1c0,0.5,0,0.9,0,1.4c0,2.1-0.4,4.2-0.1,6.4c0.1,0.8,0,1.5-0.3,2.3
	c-0.2,3.5-0.3,7-0.5,10.5c-0.8,1-1.9,0.6-2.9,0.6c-0.4,0-0.9-0.2-1.4-0.1c-0.6,0-1.2,0-1.5-0.7c-0.1-3.6,0.4-7.3,0.2-11
	c-0.2-2.7,0.3-5.5,0.2-8.2C112.4,142.7,112.5,142.3,112.8,142.1z"/>
<path class="st8" d="M112.1,162.3c0.4,0.3,0.9,0.2,1.4,0.3c0.6,0.4,1.7,0,1.7,1.2c0.1,0.5,0.5,0.4,0.8,0.4c0.5,0,1-0.1,1.3,0.4
	c0.2,0.7-0.4,1.2-0.2,1.9c0.3-0.8,0.2-1.8,1-2.4c0.7-0.7,1.7-0.5,2.6-0.5c0.4,0,0.9,0.1,1.4,0c0.7,0,1.3,0.2,1.7,0.8
	c0,0.1,0.1,0.1,0.2,0c0.6,0.3,1.5,0.2,1.9,1c1.1,0.8,2.2,1.5,3.2,2.4c0.3,0.3,0.7,0.6,0.8,1c-0.5,1.1-1.3,1.8-2.3,2.2
	c-3,1.2-5.9,1-8.8-0.2c-2.6-1.1-4.7-2.9-6.7-4.8c-0.2-0.2-0.2-0.4-0.3-0.6c0-0.2,0-0.4,0-0.5C111.2,163.8,111.4,162.8,112.1,162.3z"
	/>
<path class="st9" d="M53.4,72.4c-1.1,1.2-2.4,1.8-4,2c-0.6,0.2-1.3,0.3-1.9,0.4c-2.7,0-5.3,0.3-8-0.4c-1.3-0.3-2.4-0.9-3.4-1.7
	c0.3-0.7,0.1-1.5,0.1-2.3c-0.1-0.2-0.1-0.3,0-0.5c0.3-0.1,0.4-0.5,0.7-0.3c1.2,1.1,2.7,0.9,4,1c3.7,0.1,7.4,0.4,10.9-1
	c1.3-0.5,1.3-0.4,1.2,1.1C53.1,71.3,53.2,71.8,53.4,72.4z"/>
<path class="st10" d="M2.3,86.7c0.3,0.3,0.6,0.7,1.2,0.4c0.8,1.4,2.1,2.3,3,3.5c0.2,0.4,0.2,0.9,0,1.3c-0.3,0.5-0.7,0.9-1.1,1.2
	c-0.5,0.2-0.9,0.1-1.3-0.2c-0.3-0.2-0.5-0.5-0.8-0.7C3,92.1,3,91.8,2.8,91.6C2.7,91.2,2.4,91,2,91.1c-1.8-2.1-1.7-1.8-2-2.3
	C0.4,87.7,0.9,85.3,2.3,86.7z"/>
<path class="st11" d="M6.3,90.5c-1-0.6-1.7-1.7-2.6-2.5c-0.3-0.2-0.2-0.6-0.2-0.9c1.7-0.5,3.2-0.1,4.6,1c1,0.8,1.8,1.8,2.9,2.4
	c0.3,0.2,0.7,0.3,0.5,0.8c-0.6,1.5-1.4,2.8-2.2,4.1c-1,0.4-1.7-0.4-2.5-0.7c-0.4-0.2-0.8-0.5-1.1-0.9c-0.1-0.1-0.1-0.2-0.1-0.3
	c-0.1-0.5,0.2-0.8,0.5-1.1C6.9,91.8,6.6,91.2,6.3,90.5z"/>
<path class="st12" d="M103.2,19.5c0.4-0.3,0.6-1,1.2-1.2c0.6,0,1.1-0.1,1.7,0.2c0.7,1.3,1.9,1.3,3.2,1.2c0.5,0,1-0.1,1.5,0.2
	c-0.8,0.7-1.7,0.2-2.6,0.4c-0.8,0.6-0.3,1.3-0.2,2c0.2,0.2,0.4,0.3,0.6,0.6c0.4,0.4,0.6,0.8,0.4,1.3c-0.2,0.5-0.7,0.5-1.1,0.6
	c-1.5,0.2-3.1,0.5-4.6,0.9c-1.2,0.3-1.7,0-2-1.4c0.1-1.1,0.7-2.1,0.8-3.2C102.4,20.3,102.9,20,103.2,19.5z"/>
<path class="st12" d="M95.2,30c0-1.2,0.1-2.5-1.4-2.9c-0.1,0-0.1-0.1-0.1-0.2c0-0.1,0-0.1,0-0.1c-0.3-0.4-0.5-1-0.5-1.5
	c-0.1-0.7-0.4-1.4,0.3-1.9c0.1-0.1,0.1-0.1,0.2-0.2c0.9-1.1,1.8-0.3,2.8-0.1l0,0c0.3,0.3,0.7,0,1,0.1c1,0.3,1.9,0.6,2.8,1.2
	c0.8,0.9,0.9,1.8,0,2.4c-1.4,1-2.6,2.1-3.8,3.3C96.1,30.8,95.6,30.9,95.2,30z"/>
<path class="st13" d="M107.4,22.4c0-0.6,0-1.3-0.2-1.9c-0.1-0.4,0-0.5,0.4-0.5c1.1,0.2,2.2,0.2,3.3,0c2.4,0.2,4.6,0.8,6.4,2.4
	c0.9,0.8,1.8,0.6,2.7,1c-0.7,0.1-1.3,0.3-2,0.5c-0.8,0-1.6-0.3-2.4-0.5c-1.9-0.5-3.9-0.6-5.9-0.6C109,22.8,108.2,22.8,107.4,22.4z"
	/>
<path class="st14" d="M24.9,40.9c0,0.5,0.1,0.9,0.1,1.4c0,0.7-0.2,1.6,1,1.4c0.3,0,0.3,0.4,0.3,0.7c0.2,0.7,0.2,1.3-0.7,1.3
	c-0.3,0-0.6,0.1-0.8,0.5c-0.5,1.2-0.3,2.4-0.2,3.6c0.1,0.7,0.8,0.9,1.4,1.2c0.2,0.1,0.4,0.2,0.6,0.4c-0.1,0.6,0.6,0.9,0.5,1.5
	c-0.4,0-0.7,0-1.1,0c-1.9,0-2.9-0.8-3.1-2.7c-0.1-1.7-0.5-3.5,0.3-5.1c0.1-0.1,0.1-0.4,0.2-0.4C25.2,43.9,24.7,42.3,24.9,40.9z"/>
<path class="st15" d="M142.3,104.3c0.8,0.5,1.7-0.1,2.5,0.4c-3.1-0.2-6.2,0.5-9.3,0.6c-0.4-0.2-0.7-0.4-0.3-0.9
	c1.1-0.4,2.1,0.2,3.2-0.1C139.6,104.3,141,104.3,142.3,104.3z"/>
<path class="st16" d="M123.8,164.5c-0.6-0.2-1.1-0.3-1.7-0.5c-0.4-0.2-1-0.1-1.4-0.4c0-0.1-0.1-0.1-0.1-0.2s0-0.1,0-0.1
	c0.7-0.8,0.1-1.2-0.7-1.5c1.8-0.8,1.3,0.9,1.6,1.5c0.7-1.1,1.1-1.1,3,0C124.1,163.5,123.6,163.8,123.8,164.5z"/>
<path class="st17" d="M135.1,104.5c0.1,0.3,0.3,0.6,0.4,0.8c0.4,1.2,0.8,2.5,1.2,3.7c-0.1,0-0.2,0.1-0.3,0.1
	c-0.8-1.2-0.9-2.7-1.6-3.9c-0.1-0.2-0.3-0.3-0.4-0.5c-0.4-0.9-0.7-1.7-1.1-2.6c-0.2-0.3-0.4-0.7-0.4-1.1c0-0.3,0.1-0.6,0.4-0.8
	c0.4,0.7,0.8,1.5,1.1,2.2c0.3,0.2,0.5,0.5,0.5,1c0,0.3,0.1,0.5,0.3,0.7C135.1,104.3,135.1,104.3,135.1,104.5
	C135.1,104.4,135.1,104.5,135.1,104.5z"/>
<path class="st18" d="M118.2,152c0-2.9,0-5.8,0.4-8.6c0.7,1.5-0.3,2.9,0,4.4c0.1,0.6,0,1.2,0.4,1.9
	C119.4,150.4,118.8,151.3,118.2,152z"/>
<path class="st19" d="M126.4,95.2c1.5-0.7,2.8-0.4,3.9,0.8c0.6,0.6,1.1,1.4,1.6,2.1c0.2,0.1,0.2,0.2,0.3,0.4c0,0.1,0,0.3,0,0.4
	c0.1,0.2,0.2,0.4,0.1,0.7c-0.4,0.3-0.5-0.1-0.6-0.3c-0.3-0.7-0.8-1.2-1.3-1.7c-0.9-1.1-1.9-1.9-3.4-1.8
	C126.7,95.6,126.4,95.6,126.4,95.2z"/>
<path class="st16" d="M125.9,165.5c-0.7-0.2-1.3-0.5-1.9-1c0.9-0.1,1.7-0.3,2.6-0.1c0.4,0.1,0.9,0.1,1.2,0.5
	c0.3,0.4,0.6,0.6,1.2,0.2c0.5-0.4,0.4,0.2,0.4,0.5C128.2,165.6,127,165.6,125.9,165.5z"/>
<path class="st20" d="M126.6,44.5c0.3-0.2,0.4,0,0.3,0.2c-0.3,3.1,0,6.1-0.1,9.2c0,0.5,0.2,1,0.2,1.4c0,0.5-0.4,0.9-0.5,1.4
	c-0.1,0.1-0.2,0.1-0.2,0c0-0.2,0-0.5,0-0.7c0-3.4,0-6.8,0-10.1C126.4,45.4,126.2,44.9,126.6,44.5z"/>
<path class="st21" d="M120.7,163.3c0,0.1,0,0.1,0,0.2c0.1,0.2,0.1,0.3,0,0.5c-0.8,0.2-1.8-0.2-2.6,0.5c-0.1,0.1-0.3,0.1-0.5,0.1
	c-0.3-0.3-0.7-0.5-0.5-1.1c0.5-0.3,0.8-0.8,1.5-0.8C119.4,162.8,120,163.3,120.7,163.3z"/>
<path class="st22" d="M145.7,112.6c-0.4-0.9-0.4-1.9-0.4-3c0.9-0.2,0.1-1.2,0.8-1.6c0.2,1.6,0.1,3-0.1,4.5
	C146,112.5,145.9,112.5,145.7,112.6z"/>
<path class="st23" d="M118.6,162.7c-0.4,0.4-0.8,0.9-1.4,0.8c0,0-0.1,0-0.2,0c-0.8-0.3-0.8-0.3-0.7,0.2c-0.4,0.5-0.9,0.7-1.4,0.3
	c0.1-0.7-0.1-1.1-0.8-1c-0.3,0-0.5-0.1-0.6-0.4c1.4,0,2.8,0.4,4.2-0.1C118,162.6,118.3,162.6,118.6,162.7z"/>
<path class="st22" d="M146.2,117.5c-0.5-1.3-0.4-2.6-0.4-4c0.9,0,1.3,0.6,0.9,1.5C146.3,115.9,146.3,116.7,146.2,117.5z"/>
<path class="st24" d="M132.2,99.7c0-0.3,0-0.6,0-0.8c0.5,0.4,0.7,1,0.9,1.5c0,0.3,0,0.6-0.2,0.7c-0.1,0.3-0.3,0.4-0.6,0.3
	c-0.3-0.1-0.3-0.4-0.4-0.6C131.9,100.4,131.9,100,132.2,99.7z"/>
<path class="st25" d="M48.9,18.5c-1.5-0.1-3-0.3-4.5-0.4C45.9,18.1,47.5,17.7,48.9,18.5z"/>
<path class="st26" d="M136.4,138c0.7-0.6,1.6-0.4,2.4-0.4C138.1,138.5,137.2,137.9,136.4,138z"/>
<path class="st27" d="M33.2,72.8c0.8,0,1.6,0,2.4,0c0,0.1,0,0.2,0,0.3c-1.2-0.1-2.5,0.3-3.7-0.3C32.3,72.9,32.7,72.9,33.2,72.8z"/>
<path class="st28" d="M118.2,23.7c0.6-0.5,1.3-0.1,1.9-0.2c0.2,0,0.5,0,0.7,0c-0.4,0.6-1.2-0.1-1.6,0.5
	C118.7,24.2,118.3,24.3,118.2,23.7z"/>
<path class="st29" d="M110.9,20c-1.1,0.3-2.2,0.3-3.3,0c1,0,2,0,3-0.1C110.8,20,110.8,20,110.9,20z"/>
<path class="st30" d="M132.7,138.5c0.7-0.4,1.5-0.5,2.4-0.4C134.3,138.8,133.5,138.5,132.7,138.5z"/>
<path class="st31" d="M81,39.3c0.3,0.6,1.2,0.6,1.2,1.4l-0.1,0.1c-0.7-0.2-1.2-0.5-1.5-1.3C80.7,39.4,80.7,39.2,81,39.3z"/>
<path class="st32" d="M30.7,65.5c0.7-0.1,1.1,0.2,0.9,1c-0.2,0.1-0.3,0.1-0.4,0C31,66.2,30.8,65.9,30.7,65.5z"/>
<path class="st33" d="M106.1,18.5c-0.6,0-1.1,0.2-1.7-0.2C105,17.9,105.6,17.9,106.1,18.5z"/>
<path class="st34" d="M11.5,91.3c-0.2-0.2-0.4-0.5-0.5-0.8c0.5,0.2,1.1-0.5,1.4,0.2C11.9,90.6,11.8,91.1,11.5,91.3z"/>
<path class="st35" d="M29.7,23.6c0.1,0.9-0.5,1.2-1.2,1.3C28.8,24.4,29.2,23.9,29.7,23.6z"/>
<path class="st36" d="M134.8,103.5c-0.2-0.3-0.3-0.7-0.5-1C135.2,102.5,135.1,102.9,134.8,103.5z"/>
<path class="st37" d="M35.1,69c0.4,0.1,1.1-0.3,1.2,0.5c-0.2,0.1-0.3,0.1-0.4,0C35.5,69.5,35.2,69.3,35.1,69z"/>
<path class="st38" d="M92.4,25.9c0,0.3,0.1,0.7-0.3,0.9C92.1,26.4,91.5,25.9,92.4,25.9L92.4,25.9z"/>
<path class="st39" d="M76.1,37.6c0.2,0.1,0.3,0.2,0.5,0.2c-0.5,0.5-1.1,0.4-1.8,0.2c-0.1-0.1-0.2-0.2-0.2-0.3c0.2,0,0.4-0.1,0.5-0.1
	C75.4,37.6,75.8,37.6,76.1,37.6z"/>
<path class="st40" d="M31.2,66.5c0.1,0,0.3,0,0.4,0c0.3,0.1,0.5,0.4,0.5,0.7C31.6,67.2,31.3,66.9,31.2,66.5z"/>
<path class="st41" d="M79.8,38.1c0.2-0.4,0.4-0.5,0.9-0.4C80.5,38.3,80.1,38,79.8,38.1L79.8,38.1z"/>
<path class="st42" d="M35.8,69.5c0.1,0,0.3,0,0.4,0c0,0.1,0,0.3,0,0.5c0,0.2,0,0.3,0,0.5C36,70.2,35.9,69.9,35.8,69.5z"/>
<path class="st43" d="M65.7,36.1c-0.1-0.1-0.3-0.1-0.3-0.2c0-0.2,0.2-0.2,0.3-0.2c0.1,0,0.2,0.1,0.3,0.1
	C65.9,35.9,65.8,36,65.7,36.1z"/>
<path class="st44" d="M91,31.5c0,0.4-0.2,0.7-0.5,1C90.6,32.1,90.4,31.6,91,31.5z"/>
<path class="st45" d="M49.6,18.8c-0.3,0.3-0.6,0.2-1,0.1c0.1-0.2,0.3-0.1,0.5-0.2C49.3,18.8,49.5,18.8,49.6,18.8z"/>
<path class="st46" d="M126.3,56.7c0.1,0,0.2,0,0.2,0c-0.1,0.2-0.2,0.5-0.2,0.8C126,57.2,126.1,57,126.3,56.7z"/>
<path class="st41" d="M81,39.3c-0.1,0.1-0.2,0.2-0.2,0.2c-0.4,0.1-0.7,0-0.7-0.5l0,0C80.4,39.1,80.7,39,81,39.3z"/>
<path class="st47" d="M128.9,48.2c-0.3-0.3-0.2-0.6-0.2-1c0.3,0.1,0.2,0.4,0.3,0.5C129,47.9,128.9,48,128.9,48.2z"/>
<path class="st43" d="M64.1,37.4c-0.2-0.2-0.3-0.4-0.1-0.6c0,0,0.1,0,0.2,0C64.2,37,64.2,37.2,64.1,37.4L64.1,37.4z"/>
<path class="st48" d="M60.2,120c-0.3,1.8-1.4,2.9-2.9,3.6c-0.5,0.2-0.7,0.5-0.7,1.1c-0.6,10.8-1.2,21.6-1.8,32.5c-0.1,2-0.3,4-0.4,6
	c-0.1,1-0.9,1.3-1.7,1.6c-1.4,0.5-2.8,0.8-4.3,0.9c-0.7,0-1.5,0.2-2.2,0.2c-1.1,0-1.8,0.3-2.2,1.4c-0.2-0.8-0.5-1.6-0.7-2.4
	c-0.3-0.3-0.2-0.7-0.1-1.1c0.5-3.6,1-7.2,1.5-10.9c0-0.3,0.1-0.6,0.3-0.8c0.3-0.2,0.3,0.1,0.3,0.4c0.1-0.5-0.3-0.8-0.3-1.1
	c0.1-2.6,0.6-5.2,1-7.9c0.7-5.7,1.5-11.3,2.3-16.9c0.1-0.4,0.2-0.9-0.1-1.3c-1.2-0.7-2.6-0.1-3.8-0.4c-0.2,0-0.2,0.1-0.2,0.3
	c-0.2,3.3-0.5,6.6-0.8,9.8c-0.4,4.2-0.7,8.4-1.1,12.5c-0.4,4.9-0.8,9.8-1.2,14.7c0,0.4,0,0.7-0.4,1c-0.3,1.4-0.6,2.8-0.9,4.2
	c-0.3-1.5-1.3-1.6-2.5-1.6c-1.9,0.1-3.9,0.1-5.8-0.3c-1-0.2-2.1-0.4-2.7-1.5c0.5-1.3,0.4-2.9,0.9-4.2c0.1,0,0.1,0.1,0.1,0.2
	c0-0.2,0-0.4-0.1-0.7c0.1-1.2,0.3-2.4,0.6-3.5c0.1,0.1,0.2,0.2,0.1,0.4c0.1-0.1,0.1-0.1,0.1-0.2c0-0.6,0.3-1.2,0.1-1.8
	c0.7-4.2,1.5-8.5,2.2-12.7c1-5.5,2-11,3-16.5c0.1-0.7,0.1-1.1-0.6-1.5c-1.5-1-2.3-2.5-2.4-4.4c-0.1-1.4,0-2.8,0-4.2
	c0.9-0.5,1.9-0.1,2.9-0.2c1.5,0,2.9,0.2,4.3,0.1c-0.7-0.1-1.4,0-2.2,0c-0.2-0.1-0.2-0.2-0.1-0.3c3.3,0,6.6,0,10,0
	c0.3-0.2,0.7-0.2,1-0.2c2.9,0,5.9-0.1,8.9,0c0.8,0.9,0.7,1.4-0.2,2.8c-0.4,0.5-0.8,0.9-1.1,1.4c-0.7,0.9-1.4,1.8-2.1,2.8
	c-0.3,0.4-0.4,0.8-0.1,1.2c0.3,0.5,0.8,0.5,1.3,0.3c1.3-0.5,2.6-1.1,3.6-2.2C59.3,120.3,59.5,119.7,60.2,120z"/>
<path class="st8" d="M104,165.3L104,165.3c2.3,1,4.7,1.9,6.7,3.6c0.5,0.5,1.2,0.9,1.4,1.7c-0.4,1.4-1.6,2.1-2.8,2.5
	c-2.6,1-5.2,0.7-7.8-0.3c-1.9-0.7-3.6-1.8-5.1-3.1c-0.8-0.8-1.8-1.4-2.5-2.3c0.1-1.1,0.3-2.2,0.4-3.4c0.1-0.2,0.3-0.2,0.5-0.3
	c1.9,0.2,3.8,0.4,5.7,0.2c0.3,0,0.5,0.1,0.6,0.4c0,0.7-0.5,0.8-1,1c-0.7,0.3-1.5,0.4-2.2,0.6c-0.1,0,0,0-0.1,0.1s0.1,0.1,0.2,0.2
	c0.5,0.2,1.3-0.5,1.6,0.5c0.1,0.5-0.2,1-0.1,1.6c0.8-2.6,1.1-2.8,4-2.7C103.7,165.4,103.8,165.3,104,165.3z"/>
<path d="M44,167.2c0-1.7,0-1.6,1.6-1.7c2.2-0.2,4.5-0.3,6.6-1c0.8-0.3,1.5-0.7,2.1-1.4c2.2,1.1,4.3,2.2,6.5,3.2c1,0.5,1.9,1,2.9,1.5
	c0.5,0.3,1.1,0.7,1,1.4c0,0.6-0.6,1-1.1,1.2c-0.7,0.2-1.4,0.5-2,0.5C55.4,171.1,49.6,169.6,44,167.2z"/>
<path d="M28.8,164c2.9,2,6.1,1.4,9.2,1.5c2,0,1.8-0.3,1.8,1.9c-3.7,1.9-7.7,3.1-11.7,4c-0.8,0.2-1.6,0.3-2.4,0.5
	c-0.1,0.2-0.3,0.1-0.4,0c-1.5,0-2.9,0.2-4.4-0.2c-0.7-0.2-1.5-0.4-1.6-1.3c-0.1-0.9,0.7-1.2,1.3-1.6c1.8-1.1,3.7-2.2,5.5-3.2
	C26.9,165,27.9,164.5,28.8,164z"/>
<path class="st49" d="M93.9,167.4c1.5,0.6,2.5,2.1,3.9,3c2.7,1.9,5.5,3.1,8.8,2.9c2.2-0.1,4.2-0.8,5.6-2.7c0.4,1.2-0.4,1.9-1.1,2.5
	c-1.2,1-2.6,1.3-4.2,1.4c-3.7,0.2-7.1-0.9-10-3.2c-0.7-0.5-1.3-1.2-2-1.6C93.9,169.1,93.7,168.4,93.9,167.4z"/>
<path class="st50" d="M111.6,165.5c2.2,1.9,4.2,3.9,6.9,5c2.9,1.2,5.8,1.5,8.8,0.3c1-0.4,1.7-1.2,2.4-2c0.3,1.2-0.4,2-1.3,2.6
	c-1.1,0.8-2.4,1.2-3.8,1.3c0,0-0.1,0-0.2,0c-0.7,0-1.4,0-2.1,0.1c-0.1,0-0.2,0-0.3-0.1c-0.2,0-0.3,0-0.5,0c-0.6,0.2-1.1,0-1.6-0.3
	c-3-0.9-5.5-2.6-7.8-4.6C111.5,167.2,111.2,166.5,111.6,165.5z"/>
<path class="st51" d="M124.7,173c0,0,0.1,0,0.1,0c0.1,0,0.2,0.2,0.1,0.2c-0.9,0-1.8,0-2.7,0c0,0,0-0.1,0-0.1c0,0,0-0.1,0-0.1
	C123,172.7,123.9,172.7,124.7,173z"/>
<path class="st52" d="M61,171.3c-0.9,0-1.8,0-2.7,0c0,0,0-0.1,0-0.1c0.9,0,1.8,0,2.7,0C61,171.2,61,171.2,61,171.3z"/>
<path class="st53" d="M120.1,172.6c0.5,0.1,1.1,0.2,1.6,0.3c-0.7,0.5-1.3,0.2-1.9-0.1c0,0,0-0.1,0-0.1
	C119.9,172.6,120,172.6,120.1,172.6z"/>
<path class="st54" d="M124.7,173c-0.8,0-1.7,0-2.5,0c0-0.1,0-0.1,0-0.2c0.1,0,0.2,0,0.3-0.1c0.8-0.1,1.5-0.1,2.3,0v0.1
	C124.7,172.9,124.7,173,124.7,173z"/>
<path class="st55" d="M25.3,171.9c0.1,0,0.3,0,0.4,0c0.2,0,0.4,0.1,0.7,0.1C25.9,172.1,25.6,172.2,25.3,171.9z"/>
<path class="st56" d="M85.3,57.2c-0.4,1.2-0.6,2.6-1.2,3.7c-0.1,0.1-0.2,0.1-0.4,0c0.4-1.9,0.3-2.2-1.4-2.9
	c-0.4-0.2-0.5-0.4-0.5-0.8c0-1.8-0.1-3.6-0.2-5.4c0.2-1,0-2-0.2-3c-0.2-0.4-0.5-0.3-0.8-0.2c-0.3,0.2-0.5,0.5-0.8,0.7
	c-0.1-0.6,0.5-1,0.5-1.6c-0.6-0.2-1,0.4-1.5,0.4c-0.1,0.1-0.3,0-0.4-0.1c0-0.1,0-0.2,0-0.2c0-0.1,0.2,0,0-0.1c-0.1,0-0.1,0-0.2,0.1
	c-0.4,0.1-0.7,0.1-1.1,0.2c-0.4,0.1-0.9-0.3-1.4,0c-2.3,0.3-4.6,0.7-7,1c-1.4-0.1-2.8,0.4-4,0.4c0.1,0,0.4-0.1,0.6,0.1
	c-2,0.3-4,1.2-6.2,0.5c-0.4-0.1-0.8,0-1.3,0.3c0.2-2.1,0.7-3.9,1.5-5.7c0.5-1.1,0.8-2.1,0.7-3.2c0.4,0.2,0.1,0.7,0.3,1.1
	c0.7-1,1.5-1.9,2.2-2.8c-0.1-0.1,0-0.2,0.1-0.2c0.5,0.2,0.7-0.3,1-0.5c1.7-1.2,3.4-2.4,5.5-2.6c0.7,0.1,1.4,0.1,2.1,0
	c1.2,0,2.1,0.7,3,1.2c0,0.1,0,0.1,0,0.2c0.7,0.2,1.4,0.1,2.1,0c1.2,0,2.2,0.7,3.3,1.2c0.2,0.2,0.5,0.3,0.7,0.5
	c0.4,0.4,0.9,0.9,1.4,1.3c0.9,1.1,1.7,2.4,2.4,3.6c0.6,1.8,1.1,3.7,1.1,5.7c-0.1,1.3-0.1,2.6,0,3.9c0,0.5,0.1,1.1-0.2,1.5
	c-0.2-0.1-0.1-0.3-0.2-0.5c0.1,0.4,0,0.7,0.2,0.9C85.4,56.4,85.4,56.8,85.3,57.2z"/>
<path class="st57" d="M71.8,71.4c1.1,0.4,1.5,1.4,1.8,2.4c1.5,3.6,2.1,7.4,2.4,11.3c0.2,1.8,0.2,3.6,0.2,5.5
	C76,90.9,75.5,91,75,91.1c-0.4,0.1-0.8,0.2-1.2,0.1c-0.7-0.3-1.4,0.1-2-0.2c0.1,0.2,0.5,0,0.6,0.2c-0.3,0.7-1,0.5-1.5,0.6
	c-0.4,0-1-0.4-1.3,0.2c-2.4,0.6-4.9,0.7-7.4,0.6c-0.8,0-1.6,0-2.4,0c-0.3,0-0.5,0-0.8,0c-0.3,0-0.5,0.1-0.7-0.1
	c0-0.3-0.1-0.6,0.1-0.9c0-0.6,0-1.2,0-1.7c-0.4-0.9,0.2-1.4,0.7-2.1c0.2-0.1,0.5-0.2,0.7-0.1c0.8,0.2,1.6,0.7,2.3,1.1
	c0.2,0.2,0.2,0.5,0.3,0.8c0.3,1.4,0.6,1.6,1.8,1.1c0.5-0.2,0.5-0.6,0.4-1.1c0-0.1,0-0.2,0-0.3c0-0.3,0.1-0.7,0.3-1
	c1.5-1.4,2.7-3.1,3.6-5c0.3-0.5,0.9-0.8,0.8-1.5c0-0.3,0-0.7,0.1-1.1c0.2-0.3,0.4-0.7,0.6-1.1c1.2-0.7,2.2-3.5,1.7-4.8
	c-0.5-1.5-2.1-1.9-3.3-1c-0.4,0.3-0.5,0.7-0.9,1c-0.6,0.1-1.1,0-1.7,0.1c-1.1-0.7-2.3-0.8-3.5-1.1c-0.3-0.3-0.7-0.5-0.7-1
	c0.4-0.6,0.7-1.3,1.5-1.5c0.1,0,0.3,0,0.4,0c0.4-0.4,0.9-0.3,1.5-0.3c0.9,0.1,1.9-0.3,2.8,0.3C69,71.4,70.4,71.4,71.8,71.4z"/>
<path class="st58" d="M79.3,80.2c-0.8-0.6-1.8-0.9-1.9-2.2c0.1-0.4,0.1-0.8,0-1.2c0-0.4,0.2-0.7-0.3-1c-0.9-0.6-1.1-1.5-0.8-2.5
	c0.3-1.2-0.4-3.1-1.5-3.8c0.9-0.7,1.8-1.4,2.6-2.2c0.6-0.5,1.2-1.1,1.5-1.8c0.7-1.5,1.6-2.3,3.3-1.7c-0.5,0.6-1,1.3-1.5,1.9
	c0,0.4-0.4,0.6-0.6,0.8c-0.1,0.2-0.2,0.3-0.3,0.5c-0.1,0.3-0.2,0.7-0.4,1c-0.7,0.8,0.3,1,0.5,1.4c0.7,0.5,0.3,1.2,0.3,1.8
	c-0.4,0.8-0.2,1.6-0.2,2.4c-0.1,1.5,0.6,2.4,1.6,3.1c0.2,0.1,0.2,0.3,0.3,0.5c0,0.2,0.1,0.3,0,0.5c-0.2,0.6-0.1,1.3,0,1.9
	c0,0.2,0,0.4-0.2,0.5l0,0C80.7,81,80.2,81,79.3,80.2z"/>
<path class="st59" d="M50.8,61.4c-0.4,0.6-1,1-1.6,1.2c-0.3,0.1-0.5,0.2-0.7,0.5c-1.3,0.6-2.6,1-4,1c-3.3,0-5.9-1.5-7.9-4.3
	c-0.2-0.2-0.4-0.4,0-0.7c2.9,0.7,5.8,1.1,8.8,0.9c1.1,0,2.2-0.3,3.4-0.3c0.5,0,1.1,0.1,1.6-0.2c0.2-0.1,0.4-0.1,0.5,0
	C51.7,60.2,51.3,60.8,50.8,61.4z"/>
<path class="st60" d="M73,65.5c0.2,0.2,0.1,0.3-0.1,0.5c-1.9,1.7-5.7,1.9-7.7,0.3c-1.1-0.9-2-2-2.5-3.5c-0.1-0.3-0.4-0.6,0.2-0.7
	c0.4,0.2,0.9,0.3,1.2,0.6c2.4,1.5,5,2.4,7.8,2.5C72.3,65.3,72.7,65.4,73,65.5z"/>
<path class="st61" d="M34.5,57.2c-1.5,0-2.6-0.5-3.7-1.2c-1.2-0.9-1.9-2.9-0.4-4.8c1.8-2.2,6.3-2.1,7.9,0.1c1.3,2,0.6,4.8-1.7,5.3
	C35.9,56.8,35.2,57.5,34.5,57.2z"/>
<path class="st62" d="M50.8,59.6c-0.1,0-0.3,0.1-0.4,0.1c-0.4,0.4-1,0.3-1.5,0.4c-2,0.1-4,0.4-6,0.3c-2.1-0.1-4.3-0.3-6.2-1.3
	c0.7-0.5,1.5,0,2.2,0c4.2,0.1,8.4-0.2,12.7-0.5c0.3-0.2,0.4-0.1,0.5,0.2C51.8,59.4,51.3,59.7,50.8,59.6z"/>
<path class="st63" d="M26.4,51.3c-1.8-0.1-2.3-0.7-2.3-2.5c0-0.6-0.1-1.3,0-1.9c0.1-0.8,0.3-1.6,1.4-1.5c0.9,0.1,0.7-0.6,0.7-1
	c0.2,1.3,0.4,2.6,0.6,3.8c0,0.2,0,0.6,0.4,0.7c0.4,0.1,0.5-0.3,0.6-0.6c-0.6,0.9-0.9,1.9-1.2,2.9C26.7,51.3,26.5,51.3,26.4,51.3z"/>
<path class="st64" d="M52.9,41.8c-1.3,0.1-2.4,0.2-3.4,0.6c-0.4,0.2-0.8,0.2-0.9-0.4c-0.1-0.4-0.2-0.8,0.3-1.2
	c1.8-1.2,5.4-1.1,7.1,0.3c0.3,0.2,0.7,0.4,0.5,0.8c-0.2,0.4-0.6,0.1-1,0.1C54.6,42.1,53.6,41.9,52.9,41.8z"/>
<path class="st65" d="M34.8,40.8c1.5-0.5,2.8-0.1,4.2,0.4c0.5,0.2,0.6,0.6,0.5,1.1c-0.1,0.6-0.5,0.7-1,0.5c-2-0.7-4.1-0.4-6.1,0.1
	c-0.3,0.1-0.6,0.4-0.8-0.1s0.2-0.7,0.4-0.9c0.7-0.5,1.5-1,2.3-1c0.3,0.2,0.7,0,1,0.1c0-0.1,0-0.1,0-0.1C35.2,41,35,41,34.8,40.8z"/>
<path class="st66" d="M57.1,52.8c-0.3,0.3-0.2,0.6-0.2,1c-0.3,1.3-1.7,2.1-3.1,1.7c-0.4-0.1-0.9-0.3-1.3-0.5
	c-0.9-0.6-1.6-1.4-1.3-2.6c0.3-1.1,2.1-2.3,3.1-2.2C56.4,50.3,57.2,51.1,57.1,52.8z"/>
<path class="st67" d="M34.9,44.7c-0.1-0.6,0.5-0.6,0.8-0.9c0.2-0.2,0.4-0.2,0.6,0c1.1,0.7,1.5,2.4,0.8,3.6c-0.6,0.9-1.7,0.9-2.2-0.1
	C34.5,46.4,34.5,45.5,34.9,44.7c0.1,0.1,0.2,0.2,0.3,0.3C35.1,44.9,34.9,44.8,34.9,44.7z"/>
<path class="st68" d="M57.1,52.8c-0.1-1.7-1.4-2.2-2.6-2.3c-0.9-0.1-1.7,0.2-2.3,1.1c-1,1.4-1.1,1.4,0.3,3.2C52.2,55,52,55,51.7,55
	c-1.1-0.2-1.5-1.2-1.5-2c0-1.2,0.7-2.1,1.6-2.8c0.3-0.2,0.7-0.4,1-0.6c1.3-0.1,2.5-0.3,3.7,0.4c0.9,0.6,1.3,1.2,0.8,2.3
	C57.3,52.5,57.3,52.7,57.1,52.8z"/>
<path class="st69" d="M51,44.2c0.3-0.8,0.8-0.9,1.5-0.8c0.7,0.1,0.9,0.7,1,1.3c0,0.4,0.1,0.8,0,1.2c-0.1,0.7-0.3,1.4-1.1,1.5
	c-0.9,0.1-1.3-0.4-1.5-1.2c-0.1-0.3-0.1-0.7,0-1c0.1-0.2,0.7-0.3,0.2-0.8C51.1,44.4,51.1,44.3,51,44.2z"/>
<path class="st70" d="M73,65.5c-3.3,0.3-6.3-0.8-9.1-2.6c0-0.5,0.2-0.4,0.5-0.3c2.2,0.8,4.4,1.4,6.6,2.3
	C71.6,65.1,72.5,64.8,73,65.5z"/>
<path class="st71" d="M60.1,52.1c-0.2,1-0.5,1.9-0.9,2.7c-0.2,0.5-0.4,0-0.6,0c-0.5,0-0.8-0.3-0.8-0.8c-0.1-1,0.3-1.8,0.7-2.6
	c0.2-0.4,0.6-0.4,1-0.3C60,51.3,60.2,51.6,60.1,52.1z"/>
<path class="st72" d="M44.5,47.7c0.1,2,0.7,3.9,1.7,5.6c0.4,0.7,0.6,1.4,0,2.1c-0.6,0.6-2.1,0.9-2.9,0.5c0.6-0.1,1.2-0.3,1.8-0.4
	c0.8-0.3,1.1-0.9,0.6-1.7c-1.3-2.1-1.8-4.4-1.6-6.8C44.6,46.9,44.2,47.5,44.5,47.7z"/>
<path class="st73" d="M82,58.8c0.1,0.6,1.2,0.4,1,1.4c-0.2,0.8-0.2,1.6-0.9,2.2c-0.4,0.4-0.8,0.4-1.3,0.2c-0.6-0.3-0.1-0.7-0.1-1
	c0.1-0.7,0.4-1.4,0.7-2.2C81.5,59.1,81.6,58.8,82,58.8z"/>
<path class="st74" d="M64.8,71.4c-0.5,0-0.9,0-1.4,0c-0.1-0.9-0.4-1.7-0.2-2.7c1.4,0.7,2.8,1.7,4.4,2c0,0.7-0.5,0.4-0.9,0.5
	C66.1,71.3,65.4,71,64.8,71.4z"/>
<path class="st75" d="M52.7,49.9c-0.6,0.7-1.5,1-1.9,2c-0.5,1.3-0.3,2.1,0.9,2.9c0.2,0.2,0.4,0.3,0.6,0.4c0.3,0.4,1,0.4,1,1.1
	c-0.4,0-0.8,0-1.2,0c-0.7-0.5-1.7-0.9-2.1-1.8c-0.6-1.2-0.6-2.4,0.2-3.6c0.6,0,0.7-1.1,1.4-1C52,49.7,52.4,49.6,52.7,49.9z"/>
<path class="st76" d="M66,55.7C65.9,55.7,65.9,55.7,66,55.7c-0.3,0.7-0.5,1.4-1.3,1.4c-0.4,0-0.7-0.1-0.8-0.5
	c-0.3-0.7,0-1.4,0.3-1.9c0.5-0.9,1.1-0.5,1.8,0C66.3,54.9,66.2,55.3,66,55.7z"/>
<path class="st77" d="M76,59c0,0.5-0.2,0.9-0.4,1.2c-0.3,0.3-0.6,0.5-1,0.4c-0.4-0.1-0.6-0.4-0.6-0.9c0-0.8,0.1-1.5,0.8-1.9
	c0.5-0.3,1-0.1,1.4,0.5c0.1,0.1,0,0.3,0,0.4c-0.1,0-0.1,0.1-0.1,0.2C75.9,58.8,76,58.9,76,59z"/>
<path class="st78" d="M52.7,49.9c-0.3,0-0.6,0-0.9,0c0.2-0.2,0.3-0.3,0.5-0.5c1.3-0.5,2.6-0.4,4,0c1.8,0.6,2,1.2,1.2,2.9
	c0-1.3-0.9-2.4-2.2-2.4C54.3,49.8,53.5,49.9,52.7,49.9z"/>
<path class="st79" d="M68.6,62.2c-0.8,0-1.5-0.4-1.7-1.2c-0.2-0.7,0.4-1.1,0.9-1.4c1.4-1.1,2.1-2.5,2.7-4.1c0,1.8-1,3.1-2.1,4.3
	c-0.1,0.1-0.3,0.2-0.5,0.3c-0.7,0.6-0.9,1.1,0.1,1.6C68.3,61.9,68.5,62.1,68.6,62.2z"/>
<path class="st80" d="M50.3,50.8c0,0.3,0,0.7-0.1,0.9c-0.5,1.3-0.1,2.8,1.1,3.5c0.4,0.2,0.7,0.5,0.9,0.9c-1.4-0.1-2.2-1.2-2.7-2.2
	c-0.4-0.8-0.5-2.1,0.3-2.9C49.9,51,50.2,50.9,50.3,50.8z"/>
<path class="st81" d="M64.8,71.4c0.1-0.7,0.7-0.4,1-0.5c0.6-0.1,1.2,0.2,1.8-0.2c1.1-0.1,2.2,0.2,3.4-0.1c0.2-0.1,0.5-0.1,0.5,0.2
	c0,0.3-0.2,0.4-0.4,0.4c-1,0-1.9,0-2.9,0c-0.2,0-0.4,0.1-0.5,0.2C66.7,71.4,65.8,71.4,64.8,71.4z"/>
<path class="st82" d="M53.4,56.2c-0.4-0.3-1-0.4-1.2-1c0.3-0.3,0.6-0.1,0.9,0c1,0.4,1.9,0.5,2.9-0.1c0.3-0.2,0.6-0.2,0.9-0.1
	c0.8,0.8-0.1,0.9-0.5,1.1C55.4,56.6,54.4,56.4,53.4,56.2z"/>
<path class="st83" d="M56.9,55c-1.5,0.9-3.1,1-4.7,0.2c-0.3,0-0.5-0.2-0.5-0.5c0.2,0,0.5,0,0.7,0c0.4,0,0.7,0,1.1,0.2
	c1.3,0.7,2.7,0.2,3.3-1.2C56.9,54.2,56.9,54.6,56.9,55z"/>
<path class="st84" d="M63.2,52.1c1.5-0.5,2.9-0.1,4.3,0.6c0.1,0.1,0.2,0.2,0.2,0.4c-0.1,0.2-0.3,0.2-0.5,0.1
	C65.9,52.6,64.5,52.4,63.2,52.1z"/>
<path class="st85" d="M78.3,57.3c-1.3-0.5-2.4-1.2-3.8-1.5c-0.2,0-0.4,0-0.4-0.3c0-0.3,0.3-0.2,0.4-0.2C76.1,55.4,77.4,56,78.3,57.3
	z"/>
<path class="st86" d="M50.8,59.6c0.4-0.2,0.8-0.4,1.2-0.7c0.1-0.3,0.4-0.4,0.7-0.4c0.4,0.2,0.3,0.4,0,0.6c-0.6,0.8-1.1,1.7-1.9,2.2
	C51.1,60.8,51.2,60.2,50.8,59.6z"/>
<path class="st87" d="M56.2,49.4c-1.3,0-2.6,0-4,0C53.5,48.3,54.5,48.3,56.2,49.4z"/>
<path class="st88" d="M65.6,49.6c-0.3,0-0.5,0-0.8-0.1c1.4-0.4,2.8-1,4.2-0.5c-0.1,0-0.3,0-0.4,0c-0.4,0.2-0.9,0-1.2,0.2
	C66.8,49.6,66.2,49.7,65.6,49.6z"/>
<path class="st89" d="M80.7,48.6c0.3-0.7,0.6-0.5,1,0c0.1,0.8,0.2,1.5,0,2.3c-0.1-0.5-0.2-1-0.2-1.5c-0.3,0.2-0.1,0.5-0.2,0.7
	c-0.6-0.2-0.1-0.9-0.4-1.2C80.8,48.8,80.7,48.7,80.7,48.6z"/>
<path class="st90" d="M52.7,59.2c0-0.2,0.3-0.4,0-0.5c-0.4-0.2-0.8,0.1-1.1-0.2c-0.1,0-0.2,0-0.3,0c-0.3-0.2,0-0.2,0.1-0.2
	c0.7-0.3,1.5-0.2,2.3,0.1C53.3,58.8,53.1,59.1,52.7,59.2z"/>
<path class="st91" d="M60.1,64.6c-0.4-0.2-0.3-1-0.9-1c0-0.5,0.4-0.7,0.7-1C60.3,63.3,60.1,64,60.1,64.6z"/>
<path class="st92" d="M44.5,47.7c-0.2-0.2-0.3-0.5-0.5-0.7c0-0.6,0-1.2,0.5-1.9C44.5,46,44.5,46.9,44.5,47.7z"/>
<path class="st93" d="M81.6,50.9c0-0.8,0-1.5,0-2.3c0.5,1.1,0.3,2.1,0,3.2C81.7,51.5,81.6,51.2,81.6,50.9z"/>
<path class="st94" d="M64.4,62.6c-0.2,0-0.4,0.1-0.5,0.3c-0.4-0.2-0.7-0.4-0.9-0.8C63.5,61.9,64,62.1,64.4,62.6z"/>
<path class="st95" d="M78.6,47.9c0.1,0.1,0.2,0.2,0.3,0.3c-0.5,0.3-1.1,0.6-1.7,0.3c-0.2-0.5,0.3-0.4,0.5-0.6
	C78,47.9,78.3,47.7,78.6,47.9z"/>
<path class="st96" d="M77.9,48.1c-0.2,0.1-0.6,0-0.7,0.4v0c-0.2,0.3-0.4,0.3-0.5-0.1c-0.2-0.3-0.5-0.2-0.8-0.3
	c0.4-0.3,0.9-0.2,1.4-0.2C77.6,47.9,77.9,47.6,77.9,48.1z"/>
<path class="st97" d="M80.8,48.9c0.4,0.3,0,0.9,0.4,1.2c0,0.2,0,0.5-0.2,0.7C80.5,50.2,80.8,49.5,80.8,48.9z"/>
<path class="st98" d="M51,44.2c0.1,0,0.2,0,0.3,0c0.1,0.3,0.1,0.6,0,0.9c-0.5,0.2-0.2,0.7-0.3,1.1C50.7,45.6,50.6,44.9,51,44.2z"/>
<path class="st99" d="M76.1,48.9c-0.5,0.3-1.1,0.2-1.6,0.1c-0.1,0-0.3-0.1-0.1-0.3c0.1-0.1,0.2,0,0.3,0
	C75.1,48.9,75.7,48.5,76.1,48.9z"/>
<path class="st100" d="M58.3,57c0-0.3-0.3-0.9,0.1-0.9c0.6,0,0.3,0.6,0.3,0.9c0,0.1,0,0.3,0,0.5C58.2,57.6,58.5,57.1,58.3,57z"/>
<path class="st101" d="M76.1,48.9c-0.4-0.1-1,0.1-1.4-0.2c0.4,0,0.8,0,1.2-0.1c0.2,0,0.6-0.2,0.6,0.2C76.4,48.9,76.2,48.9,76.1,48.9
	z"/>
<path class="st102" d="M83.8,60.9c0.1,0,0.2,0,0.4,0c-0.1,0.4-0.2,0.8-0.6,1C83.2,61.5,83.6,61.2,83.8,60.9z"/>
<path class="st103" d="M36.2,43.8c-0.2,0-0.4,0-0.6,0c0.2-0.5,0.5-0.3,0.9-0.2C36.4,43.6,36.3,43.7,36.2,43.8z"/>
<path class="st104" d="M34.8,40.8c0.3,0,0.5,0.1,0.9,0.1c-0.6,0.2-1,0.3-1.3-0.1C34.5,40.8,34.7,40.8,34.8,40.8z"/>
<path class="st105" d="M62,67.3c-0.3-0.2-0.5-0.4-0.7-0.8C61.9,66.5,62.1,66.7,62,67.3z"/>
<path class="st106" d="M51.5,58.4c0.4,0.1,0.8-0.2,1.1,0.2c-0.2,0.1-0.5,0.2-0.7,0.2c-0.2-0.1-0.3-0.2-0.5-0.2
	C51.5,58.6,51.5,58.5,51.5,58.4z"/>
<path class="st95" d="M76.5,48.9c-0.1-0.2-0.4-0.2-0.6-0.2c0.2-0.2,0.5-0.2,0.8-0.2c0.1,0.3,0.3,0.3,0.5,0.1
	C77.1,48.9,76.8,48.9,76.5,48.9z"/>
<path class="st107" d="M58.3,57c0.1,0.1,0.3,0.3,0.4,0.5c0,0.2,0,0.4,0,0.6C58.3,57.7,58.3,57.4,58.3,57z"/>
<path class="st108" d="M66,55.7c0-0.4,0-0.7,0-1.1c0.5,0.3,0.3,0.8,0.2,1.2C66.2,55.7,66.1,55.8,66,55.7C66,55.7,66,55.7,66,55.7z"
	/>
<path class="st109" d="M48.4,63.1c0-0.5,0.4-0.5,0.7-0.5C49,62.9,48.8,63.1,48.4,63.1z"/>
<path class="st56" d="M67.4,49.4c0.4-0.4,0.8-0.2,1.2-0.2C68.3,49.4,67.8,49.4,67.4,49.4z"/>
<path class="st110" d="M76,59L76,59h-0.1c-0.2-0.2-0.2-0.3,0-0.5c0.1-0.1,0.1-0.2,0.2-0.3C76.4,58.5,76.4,58.7,76,59z"/>
<path class="st111" d="M59.9,37.9c0-0.2,0-0.4,0.1-0.7c0.2,0.5,0.2,0.9,0,1.2C59.9,38.2,59.9,38,59.9,37.9z"/>
<path class="st63" d="M68.6,83.4c-0.8,2.1-1.9,3.9-3.7,5.2c-0.2,0.2-0.4,0.4-0.6,0.5c-0.7,0.3-1.5,0.5-2.3,0c-0.9,0-1.5-0.7-2.3-1
	c-0.2-0.2-0.6-0.2-0.8-0.4c-0.7-0.4-1.3-1-1.6-1.8c-1.4-2.1-2.9-4-5.1-5.3c-0.4-0.2-0.8-0.5-0.7-1c0.2-0.6,0.7-0.2,1.1-0.3
	c0.3,0.1,0.4,0.2,0.7,0.4c0.1,0.1,0.2,0.2,0.4,0.3c-0.2-0.2-0.3-0.5-0.5-0.6c-0.2-0.2-0.3-0.5-0.4-0.7c-0.1-0.1-0.2-0.3-0.3-0.5
	c-0.6-0.8-0.5-1.2,0.5-1.3c0.3,0,0.5,0.3,0.6,0.5c0.4,0.6,0.8,1.2,1.3,1.7c0.5,0.5,1.2,0.7,1.9,0.9c1.3,0.3,2.4,1,3.2,2.2
	c0.5,0.8,1.2,1.4,1.9,2c0.9,0.7,1.2,0.6,1.9-0.3c0.4-0.6,0.6-1.5,1.5-1.5C66.3,82.7,67.6,82.6,68.6,83.4z"/>
<path class="st63" d="M54,103.3c-0.8-0.3-0.8-0.8-0.4-1.5c0.4-0.2,0.4-0.4,0-0.5c-0.5-0.5-0.4-1,0-1.5c0.7-0.5,1.6,0.1,2.3-0.2
	c0.2-0.1,0.6,0,0.4-0.4c-0.4-0.4-0.7-0.7-1-1.1c-0.2-0.3-0.4-0.6-0.2-1c0.3-0.3,0.6-0.4,1.1-0.3c0.8,0.2,1.3,0.9,2,1.1
	c0,0,0.1,0,0.2,0.1c0.5,0.7,1.4,0.7,2,1.2c0.7,0.7,1.3,1.3,1.5,2.3c-0.1,0.7,0.1,1.3,0.4,1.9c0.1,0.7,0.2,1.5-0.1,2.2
	c-0.1,0.1-0.2,0.2-0.3,0.2c-0.3,0.1-0.6,0.1-0.9,0c-0.4-0.4,0.2-0.6,0.1-1.1c-0.2,0.3-0.3,0.7-0.4,1c-0.4,0.4-0.9,0.5-1.4,0.6
	c-0.8,0.1-1.4,0.5-1.7,1.3c-0.1,0.1-0.2,0.1-0.3,0c-0.1-0.2-0.1-0.4,0-0.5c-0.3-1-0.9-0.3-1.3-0.1c-0.5,0.2-0.9,0.2-1.3-0.1
	c-0.4-0.3-0.3-0.7-0.1-1.1c0-0.1,0.2-0.1,0.3-0.1c0.1-0.1,0.3-0.2,0.3-0.3c-0.1,0-0.2,0-0.3-0.1c-1.2-0.1-1.4-0.4-0.9-1.5
	c0.3-0.3,0.7-0.2,1-0.3C54.7,103.5,54.3,103.6,54,103.3z"/>
<path class="st112" d="M65.1,82.7c-0.8,0.2-0.8,1.1-1.2,1.6c-0.6,0.8-1.2,1.1-2,0.3c-0.7-0.7-1.6-1.3-2.1-2.1
	c-0.9-1.4-2.1-1.9-3.5-2.3c-0.6-0.2-1.3-0.4-1.7-1c-0.1,0-0.1-0.1-0.1-0.2s0-0.1,0-0.1c0.3-0.4,0.4-0.9,0.8-1.1
	c0.4-0.2,0.8-0.4,1.2,0c0.1,0,0.1,0,0.2,0c0,0.3-0.1,0.4-0.3,0.6c-0.2,0.2-0.3,0.4-0.1,0.6c0.1,0.2,0.3,0.2,0.5,0.2
	c0.4-0.1,0.3-0.4,0.3-0.7c0-0.1,0-0.2,0-0.4c0.2,0,0.4,0,0.7,0c0.3,0,0.6,0,0.9,0.1c0.2,0.1,0.4,0.2,0.7,0.2
	c0.3-0.1,0.1-0.4,0.1-0.6c-0.1-0.6-0.1-1.1,0.2-1.6c0-0.2,0.1-0.3,0.1-0.5c0.1-0.3,0.1-0.6,0.1-1c0-1.4,0.6-1.8,1.8-1.3
	c0.1,0,0.3,0.1,0.4,0.1c0.5,0.4,1,0.2,1.6,0.3c0.8,0,1.3,0.7,1.9,1c0.2,0,0.3,0.1,0.4,0.1c0.6,0.1,1.2,0.3,1.3,1
	c0.1,0.6-0.2,1.2-0.7,1.5c-0.4,0.1-0.9,0.1-1.2-0.3c-0.1-0.3,0-0.6,0.1-0.9c0.1-0.1,0.2-0.1,0.3-0.1c0.1-0.1,0-0.1-0.1-0.1
	c-0.2,0-0.5-0.2-0.6,0c-0.8,0.9-1.6,0.2-2.4,0c-0.2-0.1-0.4-0.3-0.6-0.3c-0.6,0.3-0.3,0.9-0.4,1.3c-0.6,1.6,0.4,2.9,1.9,2.7
	c1.2-0.1,1.1-1.2,1.3-2c1.2-0.2,1.3-0.2,1.6,1.1c0,0.9-0.7,1.3-1.2,1.9C64.9,81.2,65.1,82,65.1,82.7z"/>
<path class="st113" d="M57.3,85.9c0.6,0.6,1.1,1.2,1.7,1.7c0.1,0.2,0.1,0.3,0,0.5c-0.2,0.7-0.7,1.2-0.7,1.9c-0.5,0-0.7,0.6-1.3,0.5
	c-0.8-0.2-1.4-1-1.1-1.9C56.3,87.6,56.7,86.7,57.3,85.9z"/>
<path class="st114" d="M57.4,107.6c0.1,0,0.1,0,0.2,0c0.5,2.2,1,4.4,0.3,6.7c-3.3,0.1-6.7,0.1-10,0c-1.4,0-2.8,0-4.3,0
	c0-0.1,0-0.2,0-0.3c1.9,0,3.8,0,5.7,0c2.4,0,4.8,0,7.2,0c1,0,1.3-0.4,1.2-1.3c-0.1-1.2-0.3-2.4-0.3-3.6
	C57.2,108.6,57.1,108.1,57.4,107.6z"/>
<path class="st115" d="M55.2,78c-0.3,0.3-0.1,0.9-0.7,1c-0.4-0.5-0.8-1-1.2-1.5c-0.2-0.1-0.4-0.3-0.5-0.5c0.1-0.4-0.4-0.9,0.1-1.2
	c0.5-0.2,0.7,0.2,1.1,0.5c0.1,0.4,0.6,0.3,0.8,0.5C55.1,77.2,55.5,77.5,55.2,78z"/>
<path class="st116" d="M55.2,78c-0.2-0.4-0.3-0.8-0.5-1.2c-0.2-0.1-0.1-0.4-0.2-0.5c0-0.4-0.3-0.9,0.3-1.1c0.4-0.1,0.7,0.3,0.8,0.7
	c0.3,0.6,0.7,1.2,0.8,1.8C56,77.9,55.7,77.9,55.2,78z"/>
<path class="st117" d="M31.6,105.1c-0.4-1.9-0.1-3.8-0.2-5.8c-0.1-1.8-0.1-3.5-0.3-5.3c0-0.5-0.1-1.1,0.3-1.6c0.4,0.2,0.3,0.6,0.3,1
	C31.6,97.4,31.6,101.2,31.6,105.1z"/>
<path class="st118" d="M62.2,73.6c-0.2,0.3-0.3,0.4-0.7,0.1c-0.7-0.5-1.3-0.1-1.4,0.8c0,0.5,0.1,1-0.4,1.3c-0.2-0.8-0.5-1.6-0.1-2.4
	c0.6-0.5,1.2-0.6,1.9-0.4C61.8,73.1,62,73.4,62.2,73.6z"/>
<path class="st119" d="M47.8,114.3c3.3,0,6.6,0,10-0.1c0.1,0,0.1,0.1,0.1,0.2c0,0.1,0,0.1,0,0.1c-3.4,0-6.7,0-10.1,0
	C47.7,114.4,47.8,114.4,47.8,114.3z"/>
<path class="st120" d="M57.1,78.3c0.2,0.3,0.6,0.6,0.3,1.1c-0.2,0.3-0.5,0.4-0.8,0.4c-0.4,0-0.7-0.3-0.8-0.7
	c-0.2-0.8,0.7-0.8,0.9-1.2C56.8,78,56.9,78.1,57.1,78.3z"/>
<path class="st121" d="M59.4,78.8c-0.3,0-0.6,0-0.7-0.3c-0.1-0.2-0.1-0.3,0-0.5c0.4-0.5-0.1-1.5,0.9-1.7c0,0.7,0,1.3,0,2
	C59.8,78.5,59.7,78.7,59.4,78.8z"/>
<path class="st122" d="M37.7,114.5c0,0-0.1,0.1-0.1,0.2c-0.6,0.3-1.2,0.1-1.9,0.1c-1-0.1-2,0.1-3-0.1c-0.4-0.2-1.2,0.4-1.1-0.7
	c0.3,0.5,0.7,0.4,1.2,0.4C34.5,114.5,36.1,114.5,37.7,114.5z"/>
<path class="st123" d="M58.3,92.7c0.1-0.1,0.3-0.1,0.4-0.2c0.5,0.7,0.3,1.5,0.3,2.3c-0.2,0.5-0.1,1.1-0.4,1.6
	c-0.1,0.1-0.2,0.1-0.3,0.1c0-0.3,0-0.7,0-1C58,94.5,58.1,93.6,58.3,92.7z"/>
<path class="st124" d="M56.4,99.1c0.1,0.1,0.4,0.1,0.4,0.2c0.1,0.3-0.2,0.4-0.4,0.4c-0.9,0-1.8,0-2.7,0c0.1-0.5,0.5-0.5,0.8-0.4
	C55.1,99.7,55.7,99.4,56.4,99.1z"/>
<path class="st125" d="M58.3,92.7c0,0.9,0,1.8,0,2.7c-0.2,0-0.5-0.1-0.4-0.3c0.4-1.1-0.1-2.3,0.4-3.3C58.3,92.1,58.3,92.4,58.3,92.7
	z"/>
<path class="st126" d="M58.8,78c0,0.2,0,0.3,0,0.5c-0.4,0-0.7,0-1-0.3C57.9,77.3,58.3,77.3,58.8,78z"/>
<path class="st127" d="M30.7,96c0.1-1.2-0.3-2.4,0.2-3.5c0.3,0.4,0.2,0.9,0.2,1.4c0,0.3,0,0.5,0,0.8c0,0.4,0.1,0.8-0.3,1.2l0,0
	C30.8,96,30.8,96,30.7,96z"/>
<path class="st128" d="M23.6,97.1c0-0.7,0-1.4,0.1-2.1c0.4,0.7,0.1,1.5,0.4,2.3c0,0.1-0.1,0.3-0.3,0.2
	C23.6,97.3,23.6,97.2,23.6,97.1z"/>
<path class="st129" d="M53.6,101.3c0.4,0,0.8,0,1.6,0.1c-0.7,0.5-1.2,0.3-1.6,0.4C53.6,101.6,53.6,101.5,53.6,101.3z"/>
<path class="st130" d="M30.9,94c0-0.5,0-1,0-1.5c0.1,0,0.3,0,0.4,0c0,0.5,0,1,0,1.5C31.2,94.1,31.1,94.1,30.9,94z"/>
<path class="st131" d="M47.5,74.8c0.6-0.3,1.2-0.5,1.9-0.4C48.8,74.9,48.2,74.9,47.5,74.8z"/>
<path class="st132" d="M54,103.3c0.4,0,0.8,0,1.3-0.1c-0.4,0.6-0.8,0.5-1.3,0.5C54.1,103.6,54,103.5,54,103.3z"/>
<path class="st133" d="M57.4,107.6c0,0.5,0,1,0,1.5c-0.3-0.7-0.4-1.3,0-2C57.4,107.3,57.4,107.5,57.4,107.6z"/>
<path class="st134" d="M52.7,78.8c0.2,0.1,0.3,0.3,0.5,0.5c0.1,0.2,0.1,0.3,0,0.5c-0.3,0-0.5-0.1-0.5-0.4
	C52.6,79.1,52.7,79,52.7,78.8z"/>
<path class="st135" d="M27.8,105.7c-0.1,0.3-0.4,0.5-0.7,0.5c-0.3-0.4,0.1-0.6,0.3-0.7C27.6,105.3,27.6,105.7,27.8,105.7z"/>
<path class="st136" d="M58.3,96.4c0.1,0,0.1,0,0.2,0c0.4,0.4,0.4,0.9,0.1,1.4c-0.1,0.1-0.2,0.2-0.4,0.1h0
	C58.2,97.4,58.3,96.9,58.3,96.4z"/>
<path class="st137" d="M54.9,105.2c0.3,0,0.5-0.3,0.8-0.1c-0.2,0.4-0.5,0.4-0.8,0.5C54.9,105.5,54.9,105.4,54.9,105.2z"/>
<path class="st138" d="M30.7,96c0,0,0.1-0.1,0.2-0.1c0,0.4,0.1,0.9-0.2,1.2C30.7,96.7,30.7,96.4,30.7,96z"/>
<path class="st139" d="M54.5,76.3c0.2,0.1,0.2,0.3,0.2,0.5c-0.4,0-0.7,0-0.7-0.5C54.2,76.3,54.4,76.6,54.5,76.3z"/>
<path class="st140" d="M112.6,139.5c-0.3,0-0.6,0-0.9,0.1c-0.4,0.2-0.7,0.2-1,0c-0.3-0.8-0.1-1.7-0.2-2.5c0-1.3,0-2.6,0-3.9
	c0-1.3,0-2.6,0-3.9c0-1.3,0-2.6,0-3.9c0-1.3,0-2.6,0-3.9c0.1-1.8-0.2-3.6,0.2-5.4c0-2.1,0-4.1,0-6.2c-0.5-0.9-0.4-1.9-0.2-2.9
	c0.1-0.3,0.3-0.7,0.6-0.6c1.3,0,2.6-0.2,3.8,0.5c0.1,1.4-0.3,2.8,0.2,4.1c0.2,0.4,0.1,0.9,0.1,1.3c0,4.6,0,9.2,0,13.8
	c0,0.4-0.1,0.9,0.1,1.3c0,4.4,0,8.8,0,13.2c-0.6-0.4-1.2-0.7-1.8-1.1C113.2,139.2,112.9,139.2,112.6,139.5z"/>
<path class="st141" d="M114.9,106.7c-1.1-0.1-2.2,0-3.3-0.3c-0.4-0.1-0.7,0.1-0.8,0.4c-0.5-1,0.3-1,0.8-1c1.5,0,3-0.3,4.5-0.3
	c0.5,0,1-0.1,1.5-0.1c0.2,0,0.4,0,0.6,0c1,0,2,0,3,0c0.3,0,0.6-0.1,0.9-0.1c0.3,0,0.6,0,0.9,0.1c0.1,0.1,0.2,0.2,0.2,0.3
	c0,0.2,0,0.4-0.2,0.5c-1,0-2,0-3,0c-0.7,0.5-1.7-0.1-2.4,0.4C116.7,106.7,115.8,106.7,114.9,106.7z"/>
<path class="st142" d="M134.5,104.7c0.1,0.2,0.1,0.4,0.2,0.5c-0.5,0-1,0-1.6,0c-0.7,0.4-1.4,0.1-2.1,0.2c-0.1,0-0.2,0.1-0.3,0.2
	c-2.4,0-4.7,0.1-7,0.5c-0.1-0.1-0.1-0.3-0.1-0.4c0-0.1,0.1-0.2,0.2-0.2c0.2-0.1,0.5-0.1,0.5-0.4c0.1-0.3,0-0.7,0.3-0.9
	c0.1,0,0.2,0,0.3,0.1c0.3,0.5,0.7,0.7,1.3,0.7c0.6,0,1.2-0.1,1.9,0.1c0.1,0-0.1-0.2,0-0.3c0.2-0.2,0.4-0.2,0.7-0.1
	c0.5,0.1,0.9,0.1,1.4,0.1c0.5,0,0.9,0,1.4-0.1c0.4-0.1,0.9-0.1,1.4-0.2c0.3,0,0.6,0,0.8,0.1C134.2,104.5,134.3,104.6,134.5,104.7z"
	/>
<path class="st143" d="M115.4,127.3c-0.3-0.3-0.2-0.8-0.2-1.2c0-5.1,0-10.2,0-15.3c0-0.3,0-0.6,0-1c0.1,0,0.2,0,0.2,0
	C115.4,115.7,115.4,121.5,115.4,127.3z"/>
<path class="st144" d="M123.8,107.9c0,0.4,0,0.8,0.1,1.2c0,0.4,0.4,0.9-0.2,1.2c0,0-0.1-0.1,0-0.2c-0.2-0.5,0-1-0.2-1.5
	c0-0.4,0-0.8-0.1-1.2c-0.2-0.5,0-1.1-0.1-1.7c-0.1-0.6-0.4-1.2-0.1-1.8c0-0.1,0.2-0.2,0.3-0.3c0.1,0,0.2,0.1,0.3,0.2
	c0.2,0.6,0.2,1.2,0,1.8C123.7,106.5,123.6,107.2,123.8,107.9z"/>
<path class="st145" d="M117.7,106.7c0.7-0.9,1.6-0.3,2.4-0.4c0,0.1,0.5,0.4,0,0.4C119.3,106.7,118.5,106.7,117.7,106.7z"/>
<path class="st146" d="M115.8,140.7c-0.1,0-0.2,0-0.2,0c0-1,0-1.9,0-2.9C116.6,138.7,115.6,139.8,115.8,140.7z"/>
<path class="st147" d="M130.8,105.5c0.7-0.5,1.6-0.2,2.4-0.2c0,0.1,0,0.1-0.1,0.2C132.4,105.7,131.6,105.7,130.8,105.5z"/>
<path class="st148" d="M130.8,105.5c0.8,0,1.5,0,2.3,0c-0.7,0.4-1.5,0.2-2.3,0.2C130.8,105.6,130.8,105.5,130.8,105.5z"/>
<path class="st149" d="M123.8,107.9c-0.4-0.7-0.2-1.5-0.2-2.3c0,0,0.1,0,0.1,0c0,0.2,0,0.3,0.1,0.5
	C123.8,106.8,123.8,107.3,123.8,107.9z"/>
<path class="st150" d="M118.2,140.5c-0.3,0.9-0.8,0.3-1.2,0.2C117.3,140.3,117.8,140.5,118.2,140.5z"/>
<path class="st151" d="M122.2,139.8c-0.4,0.4-0.8,0.2-1.2,0.2C121.3,139.1,121.7,139.6,122.2,139.8z"/>
<path class="st152" d="M130.7,138.8c-0.5,0.5-1.2,0.2-1.8,0.2c0,0,0.1-0.1,0.1-0.2C129.5,138.6,130.1,138.6,130.7,138.8z"/>
<path class="st153" d="M130.7,138.8c-0.6,0-1.1,0-1.7,0c0.6-0.5,1.2-0.2,1.8-0.2C130.8,138.6,130.7,138.7,130.7,138.8z"/>
<path class="st149" d="M123.3,105.7c0,0.6,0,1.2,0,1.8c-0.1-0.4-0.1-0.8-0.2-1.2c0-0.2,0-0.3,0.1-0.5
	C123.2,105.6,123.3,105.6,123.3,105.7z"/>
<path class="st149" d="M123.6,110.3c0.4-0.4,0.1-0.9,0.2-1.2c0.2,0.3,0.2,0.8,0.2,1.2C124,110.5,123.8,110.7,123.6,110.3z"/>
<path class="st149" d="M123.3,108.6c0.3,0.5,0.2,1,0.2,1.5C123.3,109.7,123.3,109.2,123.3,108.6z"/>
<path class="st154" d="M126.6,139.3c-0.4,0.4-0.8,0.2-1.2,0.2C125.8,139.2,126.2,139.3,126.6,139.3z"/>
<path class="st155" d="M111.1,76.3c-3.4,0-6.2-1.1-8-4.4c0-0.1-0.1-0.2-0.1-0.2c0-0.1,0-0.2,0.1-0.2c0-0.7,0-1.5,0-2.3
	c2.4,1.2,4.8,1.8,7.3,1.8c1.9,0,3.8-0.4,5.5-1.2c1.6-0.7,1.6-0.7,1.5,1.1c0,0.3-0.2,0.5,0,0.8c0.2,0.3,0,0.5-0.2,0.7
	c-1,1.7-2.3,2.9-4.2,3.5C112.4,76.1,111.8,76.2,111.1,76.3z"/>
<path class="st156" d="M121,58.7c0.6,0.1,0.3,0.5,0.1,0.7c-3.1,5.5-9.2,7.2-14,3.5c-1.2-1-2.4-2.1-3-3.6c0.1-0.2,0.4-0.2,0.5-0.2
	c1.3,0,2.4,0.8,3.7,0.9c0.6,0,1.1,0.2,1.7,0.2c0.4,0,0.8,0,0.9,0.5c-0.2,0.2-0.5,0.2-0.6,0.1c1.1,0,2.2-0.5,3.4,0c0.1,0,0.2,0,0.2,0
	c-0.1,0-0.3,0-0.4-0.1c0.2-0.7,0.7-0.5,1.1-0.6c1.7-0.2,3.3-0.5,4.9-1.2C120.2,58.8,120.5,58.5,121,58.7z"/>
<path class="st62" d="M120,59.1c-2,1.1-4.2,1.1-6.4,1.5c-0.9,0.3-1.8,0.2-2.7,0c-2.1-0.3-4.3-0.6-6.3-1.5c-0.1,0-0.3,0-0.3-0.2
	c1.1-0.5,2.3-0.2,3.4-0.1c2.5,0.2,5,0.2,7.6,0c1.2-0.1,2.5,0,3.7,0C119.5,58.7,120.1,58.2,120,59.1z"/>
<path class="st157" d="M103.4,47c0.7-0.9,1.6-1.1,2.3-0.5c0.7,0.7,0.6,2.7-0.1,3.4c-0.6,0.6-1.4,0.4-2.2-0.5
	c-0.4-0.5-0.1-1.1-0.1-1.6c0.1-0.2,0.3-0.1,0.4-0.2c-0.1-0.1-0.2,0-0.3-0.1C103.3,47.3,103.3,47.2,103.4,47z"/>
<path class="st158" d="M120.3,46.9c0.2-0.8,0.7-0.8,1.3-0.8c0.6,0,1,0.5,1.1,1.1c0.1,0.4,0.1,0.7,0.1,1.1c0,0.8-0.2,1.5-0.9,1.8
	c-0.5,0.2-1,0.2-1.3-0.2c-0.5-0.6-0.8-1.3-0.4-2.2C121.1,47.5,120.5,47.2,120.3,46.9z"/>
<path class="st159" d="M112.6,56.6c0.7-0.1,1.2-0.2,1.8-0.5c1.1-0.5,1.1-1,0.5-2c-1.6-2.4-2.4-4.9-1.9-7.8c0-0.1,0.1-0.1,0.2-0.3
	c0.1,3,0.8,5.7,2.4,8.1c0.7,1,0.4,1.8-0.8,2.3C114.1,56.8,113.4,56.8,112.6,56.6z"/>
<path class="st160" d="M99.6,44.2c0.7-0.8,1.5-1,2.4-1.2c1.5-0.4,3-0.3,4.5-0.2c0.3,0,0.6,0.1,0.7,0.5c0,0.3-0.1,0.5-0.4,0.5
	C104.4,43.6,102,43.7,99.6,44.2z"/>
<path class="st161" d="M111.4,32.5c0.1,0.2,0.3,0.4,0.5,0.5c-2.4,1.6-5.1,2.6-7.8,3.5c-0.7,0.2-0.5-0.2-0.5-0.5c0.1,0,0.2,0,0.4,0
	c2.1-1.1,4.4-2.1,6.4-3.2C110.7,32.5,111,32.3,111.4,32.5z"/>
<path class="st162" d="M124,44c-1.6-0.3-3.2-0.3-4.7-0.2c-0.4,0-0.9,0.2-0.9-0.4c0-0.6,0.5-0.5,0.9-0.6c1.5,0,3-0.2,4.5,0.2
	c0.2,0.1,0.4,0.2,0.5,0.5C124.4,43.7,124.2,43.9,124,44z"/>
<path class="st163" d="M92.3,51.3c0.9-0.9,1-2.3,1.5-3.4c0.3,0.7,0.3,1.5,0.2,2.3C94.1,51.9,93.8,52,92.3,51.3z"/>
<path class="st164" d="M126.6,44.5c0,3.3,0,6.7,0,10c0,0.5,0.1,1.1-0.2,1.5c0-0.3,0-0.5-0.1-0.8c-0.2-3.5,0-7-0.1-10.5
	c0-0.1,0.1-0.2,0.2-0.3C126.5,44.4,126.5,44.5,126.6,44.5z"/>
<path class="st165" d="M126.4,44.4c0,3.6,0,7.2-0.1,10.8c0-0.1-0.2-0.2-0.2-0.3c0-3.6,0-7.1,0-10.6
	C126.2,44.3,126.3,44.4,126.4,44.4z"/>
<path class="st166" d="M117.3,72.4c0.1-0.2,0.1-0.5,0.2-0.7c0.1,0,0.2-0.1,0.2-0.1c2,0,4,0,5.9,0c0.4,0,0.9-0.1,1.2,0.3
	c-1.9,0-3.7,0-5.6,0C118.5,71.9,117.8,72,117.3,72.4z"/>
<path class="st167" d="M124,44c0.1-0.1,0.2-0.3,0.2-0.5c-0.1-0.2,0-0.3,0.2-0.3c0.2,0,0.3,0.1,0.4,0.2c0.2,0.3,0.4,0.5,0.3,0.9
	c-0.4,0.4,0,0.8,0,1.2c0,0.4,0.4,0.9-0.2,1.2C124.8,45.7,124.8,44.7,124,44z"/>
<path class="st168" d="M124.5,43.3c-0.1,0.1-0.2,0.2-0.3,0.2c-0.2-0.1-0.3-0.3-0.5-0.5c0.2-0.6-0.4-1-0.4-1.5c0.3,0,0.6-0.4,0.9-0.1
	C124.4,42.1,125.1,42.5,124.5,43.3z"/>
<path class="st169" d="M120,59.1c-0.1-0.6-0.6-0.3-0.9-0.4c0.5-0.3,1.1-0.4,1.7-0.5c0.4,0,0.3,0.2,0.2,0.5
	C120.7,58.8,120.4,59,120,59.1z"/>
<path class="st170" d="M120.3,46.9c0.4,0.1,1,0.1,0.8,0.8c-0.1,0.5-0.6,0.4-0.9,0C120.3,47.4,120.3,47.2,120.3,46.9z"/>
<path class="st171" d="M103.7,47.7c-0.5,0.5-0.1,1.1-0.2,1.6c-0.6-0.7-0.2-1.6-0.3-2.4c0,0,0.1,0,0.1,0c0,0,0.1,0,0.1,0
	c0,0.1,0,0.3,0.2,0.4C103.7,47.4,103.7,47.6,103.7,47.7z"/>
<path class="st172" d="M125.2,44.2c-0.2-0.2-0.3-0.5-0.5-0.7c0.4-0.3,0.7-0.2,0.9,0.2c0.2,0.2,0.4,0.3,0.5,0.5
	C125.8,44.2,125.5,44.2,125.2,44.2z"/>
<path class="st173" d="M118.6,68.2c-0.3,0.2-0.6,0.5-0.9,0.7C117.7,68.2,117.8,67.7,118.6,68.2z"/>
<path class="st174" d="M125,46.6c0.4-0.3,0.1-0.8,0.2-1.2c0.3,0.4,0.2,0.9,0.2,1.4c0,0.2-0.1,0.3-0.3,0.2C125,47,125,46.8,125,46.6z
	"/>
<path class="st175" d="M92.4,53.1c-0.1,0-0.1,0-0.2-0.1c0.6-0.3,1.2-0.4,1.8,0C93.5,53.3,93,53.4,92.4,53.1z"/>
<path class="st176" d="M92.4,53.1c0.6,0,1.1,0,1.7,0c0,0.1,0,0.2,0,0.2h-0.1l-0.1,0c-0.5,0.1-0.9,0.1-1.4,0
	C92.4,53.2,92.4,53.2,92.4,53.1z"/>
<path class="st177" d="M104.4,58.9c0.1,0.1,0.2,0.2,0.3,0.2c-0.2,0-0.4,0-0.6,0c-0.1-0.1-0.3-0.3-0.3-0.3
	C104,58.6,104.2,58.9,104.4,58.9z"/>
<path class="st5" d="M88.7,95.8c0-1-0.1-2,0.2-2.9c0.2,0.1,0.1,0.3,0.1,0.5c0-0.8,0-1.6,0-2.4c0.3-4.1,1-8.2,1.8-12.2
	c0.1-0.4,0.1-0.7,0.2-1.1c0-0.1,0.1-0.1,0.2-0.1c0.2-0.3,0-0.5,0-0.8c0.3-0.9,0.2-2,1.2-2.5c-0.4,1.5-0.3,3,0.5,4.3
	c-0.1,0.6,0.7,0.8,0.4,1.4c-0.1,0.1-0.1,0.2-0.2,0.3c0,0.4-0.1,0.8-0.2,1.2c-0.3,2.2,0.6,3.7,2.3,4.9c0.4,0.3,0.7,0.6,1,1
	c0.1,0.1,0.1,0.2,0.2,0.3c0.1,0.4,0.1,0.8,0,1.2c0,0.2-0.1,0.4-0.2,0.6c-1,1.5-1.5,3.1-0.5,4.8c0.1,0.1,0.1,0.3,0.1,0.5
	c-0.1,1.4-0.4,2.7-0.6,4.1c-0.7,4-1,8.2-1.5,12.2c0,0.4,0,0.9-0.4,1.2c-0.4-0.2-0.1-0.6-0.3-0.9c0,0.5,0.2,1.1,0.2,1.6
	c0,0.3,0.1,0.6,0.1,1c-0.2,0.9,0.2,1.9-0.5,2.7c-0.2,0-0.3,0-0.2-0.2c-0.1,0.1,0,0.2,0,0.4c0,0.6-0.3,0.8-0.8,0.9
	c-0.8,0.1-1.6,0-2.4,0c-0.8-0.1-1.7,0.2-2.5-0.4c-0.5-0.3-0.3-0.9-0.2-1.3c0.5-5.5,1.1-11,1.7-16.6c0.2-0.5,0-1,0.2-1.5
	c0-0.1,0-0.1,0-0.2C88.8,97.2,88.4,96.5,88.7,95.8z"/>
<path class="st178" d="M118.2,23.7c0.2,0.3,0.6,0.2,0.9,0.3c1.1,0.8,2.4,1.5,3.4,2.4c2.9,2.5,4.5,5.8,5,9.7c0,0.4,0.4,0.9-0.3,1.1
	c-1.3-3.4-3.2-6.4-6.1-8.6c-2.7-2-5.7-3-8.9-3.2c-2.9-0.2-5.7-0.1-8.5,0.8c-4.3,1.4-7.3,4.4-9.5,8.5c-0.1,0.2-0.3,0.5-0.4,0.7
	c-0.1,0.2-0.2,0.3-0.4,0.2c-0.2-0.1-0.1-0.3,0-0.5c0.3-1.8,1-3.5,1.9-5.1c0.4,0.4,0.8,0.5,1.2,0c1.1-1.2,2.3-2.3,3.6-3.2
	c1-0.6,0.8-1.3,0.3-2.1c0.1-0.7,0.6-0.9,1.2-0.7c0.1,1.2,0.6,1.5,1.7,1.3c1.5-0.3,2.9-0.6,4.4-0.8c0.4-0.1,0.9,0.2,1.1-0.4
	c0.1-0.6-0.3-0.9-0.7-1.2c-0.2-0.2-0.6-0.1-0.7-0.4c2.6,0.1,5.3-0.2,7.9,0.5C116.3,23.2,117.2,23.4,118.2,23.7z"/>
<path class="st179" d="M111.4,32.5c-2,1.1-4.1,2.2-6.2,3c-0.4,0.2-0.8,0.4-1.2,0.3c0.4-0.8,1.4-0.8,1.9-1.4c0.2-0.5,0.7-0.6,1.1-0.6
	c2.1-1,4.2-2.2,6.8-3.1C112.9,31.7,112,31.9,111.4,32.5z"/>
<path class="st180" d="M90.3,46.4c0.1-0.4,0.3-0.8,0.7-1.1c1.1,2.4,0.8,4-0.6,4.8c-0.2-0.2-0.3-0.4-0.2-0.7c0.2-0.9,0.1-1.7,0.1-2.6
	C90.2,46.7,90.2,46.5,90.3,46.4z"/>
<path class="st181" d="M125.6,43.7c-0.3-0.2-0.6-0.2-0.9-0.2c-0.1-0.1-0.1-0.2-0.2-0.2c0.2-0.6-0.4-1.2-0.3-1.8
	C124.8,42.1,125.6,42.7,125.6,43.7z"/>
<path class="st182" d="M127.3,37.2c0.4-0.3,0.2-0.7,0.3-1.1c0.5,0.9,0.4,2,0.5,3c-0.1,0.1-0.2,0.1-0.3,0
	C127.6,38.5,127.4,37.8,127.3,37.2z"/>
<path class="st4" d="M99,87.6c0,0.1,0,0.3,0,0.4c-0.3,0.2-0.5,0-0.8,0c-0.4-0.2-0.8-0.1-1.1-0.4c0.1-0.3-0.4-0.6,0-0.9
	c0.3-0.2,0.5,0.1,0.8,0.2C98.2,87.2,98.6,87.4,99,87.6z"/>
<path class="st183" d="M99.8,71.4c1.1,0.4,2.2,0.1,3.3,0.2c0,0.1,0,0.2,0,0.3c-1.2,0.1-2.6-0.3-3.7,0.5C99.5,72,99.6,71.7,99.8,71.4
	z"/>
<path class="st184" d="M106.9,33.9c-0.4,0.2-0.7,0.4-1.1,0.6c-0.3-0.4-0.3-0.7,0.1-1C106.4,33,106.5,33.9,106.9,33.9z"/>
<path class="st185" d="M93.3,35.2c0,0.3,0.2,0.5,0.5,0.3c-0.2,0.6-0.5,1.3-0.7,1.9c-0.2,0.1-0.3,0-0.2-0.2
	C92.9,36.4,92.9,35.7,93.3,35.2z"/>
<path class="st186" d="M90.1,50.1c-0.4-1.2-0.4-2.4,0-3.6C90.5,47.7,90.4,48.9,90.1,50.1z"/>
<path class="st187" d="M93.4,80.2c-0.1-0.5-1-0.7-0.4-1.4C93.4,79.1,94.4,79.3,93.4,80.2z"/>
<path class="st188" d="M90.1,50.1c0-1.2,0-2.4,0-3.6c0.1,0,0.1,0,0.2,0c0,0.1,0,0.2,0.1,0.3c0.1,0.9,0.1,1.8,0,2.7
	c0,0.2,0,0.5,0,0.7C90.3,50.1,90.2,50.1,90.1,50.1z"/>
<path class="st189" d="M97.1,87.6c0.4,0,0.8-0.1,1.2,0.2c-0.7,0.5-1.4,0.5-2.1,0c0-0.1,0-0.2,0-0.3C96.5,87.6,96.8,87.6,97.1,87.6z"
	/>
<path class="st190" d="M92.9,81.7c0-0.4-0.1-0.9,0.2-1.2C93.6,81,93.2,81.3,92.9,81.7z"/>
<path class="st191" d="M127.7,39.1c0.1,0,0.2,0,0.3,0c0.3,0.2,0.3,0.5,0.1,0.7c0,0-0.2,0-0.3,0.1C127.8,39.7,127.8,39.4,127.7,39.1z
	"/>
<path class="st192" d="M123.4,40.2c0.3,0.1,0.5,0.3,0.5,0.6c0,0-0.2,0.1-0.2,0.1C123.5,40.7,123.3,40.5,123.4,40.2z"/>
<path class="st193" d="M92.4,53.3c0.5,0,0.9,0,1.4,0C93.3,53.6,92.9,53.7,92.4,53.3z"/>
<path class="st194" d="M92.9,37.1c0.1,0.1,0.2,0.1,0.2,0.2c-0.1,0.2-0.2,0.4-0.3,0.6C92.6,37.6,92.6,37.4,92.9,37.1z"/>
<path class="st195" d="M84,128.8c0.1,0,0.1,0,0.2,0c0.5,0.2,1.1-0.2,1.6,0.1c0.2,0,0.3,0,0.5,0.1c0.2,0,0.3,0,0.5,0
	c0.1,0,0.3,0,0.4,0.1c0.3,0.1,0.7,0,1,0.1c0.2,0.1,0.4,0.3,0.6,0.5c0.1,0,0.2,0.1,0.2,0.2c0.4,0.2,0.9,0.1,1.3,0.2
	c0.1,0,0.2,0.1,0.3,0.1c0.8,0.3,1.2,0.9,1.2,1.8c0,0,0.1,0,0.1,0c0,0,0.1,0,0.1-0.1c0.1-0.3,0.2-0.6,0.4-0.9
	c0.3-0.4,0.7-0.7,1.2-0.4c0.1,0.1,0.3,0.2,0.4,0.2c0.6,0.1,1.2-0.1,1.8,0.2c0.3,0.5,0.2,1,0.1,1.5c-0.8,5.9-1.4,11.9-2.2,17.8
	c-0.1,0.7-0.1,1.4-0.1,2.1c-0.9,0.5-1.5-0.3-2.3-0.3c-1.6,0-2.9-0.8-4.3-1.3c-1.9-0.6-3.8-1-5.5-2.1l-0.1,0h-0.1
	c-1.4-0.3-2.9-0.5-4-1.5c0.4-2.9,1.3-5.6,1.9-8.4c0.5-2.5,1.3-4.9,1.7-7.5c0-1,0.3-1.8,0.7-2.7l0,0C82.3,128,83.2,128.7,84,128.8z"
	/>
<path class="st1" d="M94.8,164c0.3-1.1,0.6-2.3,0.9-3.4c0-0.2,0-0.5,0-0.7c0.6-3.4,1.8-6.7,2.5-10.1c0.5-2.1,1.2-4.2,1.8-6.4
	c0.1-0.3,0.1-0.6,0.4-0.9c1-0.2,1.8,0.3,2.7,0.5c0.9,0.3,1.8,0.7,2.7,1.1c-0.5,1.4-1,2.7-1.2,4.2c-0.2,0.5-0.2,1-0.4,1.5
	c-0.4,1.3-1,2.5-1,3.9c-0.6,3.1-1.6,6-2.4,9c-0.1,0.5-0.2,1-0.2,1.5C98.7,164.5,96.7,164.5,94.8,164z"/>
<path class="st196" d="M117.7,105.7c-2,0.3-4.1,0.4-6.1,0.5c-0.4,0-1-0.1-0.8,0.7c0,1,0,1.9-0.1,2.9c-1-0.2-2.1-0.2-3-0.6
	c0-0.5,0.4-0.4,0.7-0.6c-0.8,0.6-1.6,0.2-2.5,0.2c-0.2,0-0.5,0.1-0.5-0.3c0-0.2,0.2-0.4,0.5-0.5c-0.4-0.1-0.7,0.2-1,0.3
	c-1.5,0.5-2.8-0.7-2.6-2.3c0.1-1.1-0.3-2.2,0-3.3c0-0.1,0-0.3,0-0.5c0.3-0.3,0.3-0.7,0.2-1.1c-0.1-1.3,0.5-1.9,1.7-1.9
	c1.4,0,2.7,0.3,4,0.3c0.2,0,0.5,0,0.5,0.2c0.6,1.6,1.8,0.6,2.7,0.8c0.1,0,0.3,0,0.5,0c1.3,0.2,2.6,0.4,3.9,1.1
	c0.3,0.6,1.1,0.4,1.6,0.9C118.4,103.5,118,104.6,117.7,105.7z"/>
<path class="st197" d="M102.7,91.6c0.4-0.3,0.8-0.6,1.4-0.5c0.6,0,1.1,0.5,1.8,0.5c0-0.5-0.4-0.8-0.5-1.2c-0.2-0.6-0.3-1.2,0.2-1.6
	c0.5-0.4,1.1-0.3,1.6,0.1c0.5,0.4,0.8,1,1.2,1.5c1.1,1.4,2.3,2.8,3.4,4.3c-0.3,1.9-0.4,3.8-1.5,5.4c-0.8,0.4-1.5-0.4-2.2-0.4
	c-1.7,0-3.4-0.3-5.1-0.2c-0.1,0-0.2-0.1-0.3-0.1c-0.4-0.2-0.5-0.6-0.7-1c-0.2-0.2-0.1-0.4,0.1-0.6c0.4-0.2,0.8-0.2,0.9-0.8
	c0-0.1,0.1-0.2,0.2-0.2c0.2-0.1,0.5-0.1,0.5-0.5c-0.1-0.4-0.6-0.8,0.1-1.2c0.4-0.2-0.1-0.1-0.1-0.2c-0.4-0.7-0.6,0-0.9,0.2
	c-0.5,0-0.9-0.3-0.9-0.9c0-0.6,0.2-1,0.8-1.2c0.1,0,0.1,0,0.2,0c0.1-0.2-0.1-0.1-0.2-0.2C102.5,92.4,102.4,92,102.7,91.6z"/>
<path class="st198" d="M93.6,152.5c-0.7-0.1-0.4-0.6-0.4-0.9c0.6-5.2,1.3-10.4,1.9-15.6c0.2-1.6,0.3-3.1,0.5-4.7
	c0.4-0.5,0.9-0.2,1.4-0.1c0.7-0.1,0.5,0.4,0.5,0.9c0,3.6,0,7.3,0,10.9c0.3,0.4,0.3,0.8,0.3,1.3c-0.1,1.8,0.3,3.6-0.2,5.5
	c-0.1,0.1-0.2,0.2-0.4,0.2c-0.3-0.8,0-1.6-0.2-2.4c0.1,0.9-0.1,1.7,0.1,2.6c0.2,0.8,0.3,1.6-0.2,2.3c-0.6,0.2-1.1,0.4-1.7-0.1
	C94.8,152.1,94.3,152.5,93.6,152.5z"/>
<path class="st1" d="M86.8,117.5c0.8,0,1.7,0,2.5,0c0.2,0.1,0.3,0.1,0.5,0.2c0.6,0.1,1.2,0,1.7,0c0.3,0,0.5,0,0.7,0.2
	c0.3,0.5,0.3,1.1,0.4,1.7c0.2,0.7,0.3,1.4,0.2,2.1c-0.1,0.9,0.5,1.5,0.9,2.2c0.2,0.3,0.7,0.4,0.4,1c-0.3,0.5-0.7,0.5-1.2,0.4
	c-0.2,0-0.4,0-0.6-0.1c-0.4,0.5,0.1,1,0,1.5c0,0.2-0.1,0.3-0.2,0.5c0,0.1-0.1,0.2-0.2,0.3c-0.8,0.5-1.7,0-2.5,0.1
	c-0.7,0-1.4,0.1-2,0.3c-0.2,0-0.3,0-0.5-0.1c-0.2-0.1-0.3-0.1-0.5-0.2c-0.2-0.1-0.3-0.2-0.4-0.4c-0.2-1.6-0.4-3.1,0.2-4.7
	C86.5,120.7,86.7,119.1,86.8,117.5z"/>
<path class="st4" d="M102.3,97.9c-0.1,0.2-0.2,0.3-0.3,0.5c-1,0.9-2,1.4-3.3,0.7c0-0.2,0-0.3,0.2-0.4c0.5-0.5,0.4-1,0-1.5
	c-0.8-0.7-1.9-0.9-2.7-1.6c-0.3-0.2-0.5-0.5-0.5-0.9c-1-1.6-1.1-3.1,0-4.7c0.2-0.3,0.6-0.6,0.6-1c0.8-1,1.9-0.8,2.9-1
	c0.8,0.5,1.6,1.1,2.2,1.9c0,0.3,0.3,0.3,0.4,0.5c0.5,0.1,0.3,1,0.9,1.1c0,0.5-0.1,1,0.3,1.4c0.1,0.1,0,0.2-0.1,0.2
	c-0.6,0-0.8,0.4-0.8,1c0,0.5,0.2,0.8,0.8,0.8c-0.3,0.8-0.8,1.5-0.3,2.4C102.6,97.6,102.5,97.7,102.3,97.9z"/>
<path class="st199" d="M102.2,102.7c0,1,0.4,1.8,0.4,2.7c0,0.7,0,1.3,0.4,2c0.5,1,1,0.8,1.7,0.5c0.7-0.4,1.4-0.3,2.2-0.1
	c-0.4,0.6-1.2,0-1.5,0.8c1.1-0.4,2.1,0.4,3.1-0.2c-0.3,0.4-0.7,0.4-0.9,0.8c-1.4-0.2-2.8-0.4-4.2-0.6c-0.4,0-0.7,0.1-1.1-0.2
	c-0.9-0.2-1.1-0.7-0.8-1.7C101.8,105.4,101.8,104,102.2,102.7z"/>
<path class="st199" d="M102.7,99.4c2.6-0.2,5.1,0.2,7.7,0.5c0.4,0.4,1.2,0.2,1.5,1c-0.8,0.1-1.6-0.1-2.4,0.4
	c-0.4,0.3-0.6-0.1-0.6-0.5c0-0.5-0.1-0.9-0.7-0.8c-1.2,0-2.4-0.1-3.6-0.2c-0.6-0.1-1.3-0.3-1.7,0.5c-0.4,0.8-0.3,1.5,0.3,2.1
	c-0.4,0.3-0.7-0.3-1,0.1c0-0.3,0-0.6,0-0.9c0.2-0.4-0.1-0.9,0.2-1.3C102.6,99.9,102.7,99.6,102.7,99.4z"/>
<path class="st200" d="M98.9,98.8c-0.1,0.1-0.2,0.2-0.2,0.3c-0.4,0.3,0,0.8-0.4,1.1c-0.4-0.2-0.7-0.4-0.7-0.9c0-0.3-0.4-0.2-0.5-0.4
	c-0.1-0.1-0.1-0.2-0.2-0.3c-0.1-0.2-0.3-0.5-0.3-0.8c-0.1-0.6,0.3-0.8,0.7-0.6c0.6,0.3,1.1,0.6,1.8,0.7c0.1,0,0.1,0.3,0.1,0.4
	C99.2,98.6,99.1,98.7,98.9,98.8z"/>
<path class="st200" d="M96.2,101.3c0-0.7,0-1.3,0-2c0.3-0.3,0.3-0.9,0.9-0.5l0,0c0.1,0.2,0.1,0.3,0,0.5
	C97.1,100.1,96.8,100.8,96.2,101.3z"/>
<path class="st201" d="M110.2,121.4c0-1.8,0-3.7,0-5.5c0,0,0,0,0.1-0.1c0,0.1,0.1,0.1,0.2,0.2c0.2,1.7,0.1,3.5,0.1,5.2
	C110.5,121.3,110.4,121.4,110.2,121.4z"/>
<path class="st202" d="M110.5,121.4c0-1.8,0-3.6,0-5.4c0.1,0,0.1,0,0.2,0c0,1.8,0,3.6,0,5.4C110.6,121.4,110.6,121.4,110.5,121.4
	C110.5,121.4,110.5,121.4,110.5,121.4z"/>
<path class="st203" d="M97.1,131.2c-0.5,0-1,0-1.4,0.1c-0.6-0.1-1.2,0.2-1.7-0.3l0,0c0.5-0.2,1.1,0,1.6-0.2
	C96.2,130.7,96.7,130.7,97.1,131.2z"/>
<path class="st204" d="M93,127.7c0.3,0.8,0.3,1.7,0.4,2.5c-0.2,0.1-0.3,0.1-0.5,0c-0.3-0.7-0.3-1.4-0.4-2.2c0-0.1,0.1-0.2,0.2-0.3
	C92.8,127.6,92.9,127.6,93,127.7z"/>
<path class="st205" d="M92.9,130.2c0.1,0,0.3,0,0.4,0c0.1,0.1,0.2,0.3,0.3,0.4c-0.5-0.1-0.7,0.5-1.2,0.5c-0.2,0-0.3-0.1-0.4-0.3
	c0-0.2,0-0.3,0-0.5c0.1-0.2,0.2-0.3,0.4-0.3C92.6,130,92.8,130.1,92.9,130.2z"/>
<path class="st206" d="M110.2,129.2c0-1.3,0-2.6,0-3.9c0.1,0,0.3,0,0.3,0.2c0,1.2,0,2.4,0,3.5C110.5,129.2,110.4,129.2,110.2,129.2z
	"/>
<path class="st207" d="M110.3,137.1c0-1.3,0-2.6,0-3.9c0.1,0,0.3,0,0.3,0.2c0,1.2,0,2.4,0,3.5C110.5,137,110.4,137.1,110.3,137.1z"
	/>
<path class="st208" d="M110.5,133.1c-0.1,0-0.1,0-0.2,0c0-1.3,0-2.6,0-3.9c0.1,0,0.1,0,0.2,0c0,0,0.1,0.1,0.1,0.2c0,1.2,0,2.4,0,3.6
	C110.5,133,110.5,133.1,110.5,133.1z"/>
<path class="st209" d="M110.5,125.3c-0.1,0-0.1,0-0.2,0c0-1.3,0-2.6,0-3.9c0.1,0,0.1,0,0.2,0l0,0c0.2,1.2,0.1,2.5,0.1,3.7
	C110.5,125.2,110.5,125.2,110.5,125.3z"/>
<path class="st210" d="M93,127.7c-0.1,0-0.2,0-0.3,0c-0.3-0.1-0.4-0.5-0.6-0.7c-0.1-0.1,0-0.2,0.1-0.3c0.4-0.3,0-0.8,0.3-1
	C92.9,126.3,93,127,93,127.7z"/>
<path class="st211" d="M110.3,137.1c0.1,0,0.1,0,0.2,0c0,0,0.1,0.1,0.1,0.1c0,0.6,0,1.3,0,1.9c0,0.1,0,0.2,0,0.3
	c-0.1,0.1-0.2,0.1-0.3,0C110.2,138.7,110.2,137.9,110.3,137.1z"/>
<path class="st212" d="M112.6,139.5c0.3-0.6,0.6-0.7,1,0C113.2,139.5,112.9,139.5,112.6,139.5z"/>
<path class="st213" d="M97.1,99.3c0-0.2,0-0.3,0-0.5c0.3,0,0.6-0.1,0.8,0.2c0.1,0.2-0.2,0.2-0.3,0.3C97.4,99.3,97.3,99.3,97.1,99.3z
	"/>
<path class="st214" d="M102.3,108.4c0.4,0,0.7,0.1,1.1,0.2c-0.4,0.5-0.9,0-1.4,0C102,108.4,102.2,108.4,102.3,108.4z"/>
<path class="st215" d="M95.7,130.8c-0.5,0.3-1.1,0.1-1.6,0.2C94.6,130.4,95.2,130.8,95.7,130.8z"/>
<path class="st216" d="M110.2,139.5c0.1,0,0.2,0,0.2,0.1c0.4,0.2,0.8-0.1,1.1,0.2C111.1,140.1,110.6,140.3,110.2,139.5z"/>
<path class="st217" d="M92.5,125.7c-0.1,0.3,0.1,0.8-0.3,1c0.1-0.5-0.2-1.2,0.3-1.6C92.5,125.3,92.5,125.5,92.5,125.7z"/>
<path class="st218" d="M102.5,100.1c0,0.4,0,0.9-0.2,1.3c0-0.4,0-0.9,0-1.3C102.3,100.1,102.4,100.1,102.5,100.1
	C102.5,100.1,102.5,100.1,102.5,100.1z"/>
<path class="st219" d="M111.6,139.8c-0.4,0-0.8,0.1-1.1-0.2l0-0.1c0.1-0.1,0.2-0.1,0.2,0c0.3,0,0.6,0,0.9,0.1
	C111.6,139.6,111.6,139.7,111.6,139.8z"/>
<path class="st220" d="M63,39.5c0,0.1,0,0.2-0.1,0.2c-0.3-0.7-0.3-1.4,0-2.2C63,38.3,63,38.9,63,39.5z"/>
<path class="st221" d="M111.9,100.8c-0.4-0.5-1.4,0-1.5-1c0.5-1.7,1-3.5,1.2-5.3c0-0.8,0.5-0.8,1.1-0.8c1.5,0.1,3,0.3,4.5,0.4
	c0.9,0.4,2-0.2,2.8,0.5c1.9,0.3,3.7,0.7,5.6,1c0.3-0.1,0.6,0,0.9,0c1.5,0.3,2.9,0.6,4.1,1.7c0.7,0.6,1.3,1.4,1.6,2.3
	c0,0.4,0,0.8,0,1.2c0,1.2-0.5,2.1-1.1,3c-0.5,0.7-1.2,1.2-2.1,0.9c-0.3,0-0.5,0-0.8,0c-1.2,0.4-2.3,0-3.3-0.5c0,0-0.1,0-0.1,0
	c-0.5,0-0.9,0-1.1-0.5l0,0c-0.4-0.2-0.8,0.2-1.1,0c-0.2,0-0.4-0.1-0.7-0.2c-1.1-0.3-2.1-0.6-3.2-0.5c-0.8-0.7-1.8-0.9-2.7-1.2
	C114.5,101.4,113.2,101,111.9,100.8z"/>
<path class="st196" d="M117.2,94.5c-1.5-0.1-3.1-0.2-4.6-0.4c-0.5,0-0.7,0-0.9,0.4c-1.3-1.2-2.3-2.6-3.3-4c-0.3-0.8-1-1.4-1.5-2
	c-0.4-0.4-0.1,0.1-0.2,0.1c-1,0.3-1.8-0.2-1.7-1.4c0-0.5,0.1-1,0.1-1.4c0-0.1,0-0.2,0-0.2c1.6-0.1,3.1-0.2,4.8,0.2
	c2.3,0.5,4.7,0.9,7.1,1.2c0.9,0.1,1.8,0.4,2.6,0.5c0.9,0.2,1.3,0.7,1,1.7c-0.3,1.1-0.4,2.3-0.6,3.5
	C119.8,94.5,119.1,94.8,117.2,94.5z"/>
<path class="st222" d="M117.2,94.5c0.8-0.1,1.8,0.3,2.2-0.6c0.4-0.7,0.5-1.6,0.6-2.4c0-0.8,0.1-1.6,0.3-2.3c0.3-1-0.2-1.2-0.8-1.2
	c-3-0.6-6-1.2-9-1.6c-0.9-0.1-1.7-0.5-2.5-0.5c-0.2,0-0.5-0.1-0.7,0c-0.8,0.6-1.5,0.3-2.2,0c0-0.1,0-0.2,0-0.2
	c0.3-0.4,0.6-0.8,1.2-0.6c2.4,0.5,4.9,0.8,7.3,1.3c1.8,0.5,3.7,0.7,5.6,1c0.5,0.1,1.1,0.2,1.5,0.5c0.6,0.2,0.3,0.7,0.3,1
	c-0.3,2.1-0.6,4.1-1,6.1C119.1,94.7,118.1,94.8,117.2,94.5z"/>
<path class="st223" d="M105,85.9c0.4,0,0.2,0.2,0.1,0.4c-0.2,0.7-0.3,1.4,0.4,2c0.3,0.2,0.3,0.2,0.7-0.1c0.2-0.2,0.4,0,0.6,0.1
	c0.7,0.3,0.7,1.7,1.8,1.5c0.1,0-0.3,0.5-0.4,0.8c-0.5-0.3-0.7-0.9-1.1-1.2c-0.4-0.4-0.9-0.7-1.5-0.3c-0.5,0.4-0.3,0.9-0.1,1.4
	s0.7,0.9,0.8,1.6c-1,0-1.8-0.2-2.5-0.9C104.3,89.3,104.6,87.6,105,85.9z"/>
<path class="st224" d="M113.7,86.4c-2.3-0.4-4.7-0.8-7-1.2c-0.5-0.1-1.1-0.3-1.6,0.2c0.2-0.9,0.6-1.1,1.5-0.9
	c3.2,0.7,6.5,1.2,9.7,1.9C115.5,86.9,114.6,86.4,113.7,86.4z"/>
<path class="st225" d="M113.7,86.4c0.9,0,1.7,0,2.6,0c0.6,0,1.1,0.1,1.6,0.3c0.4,0.3,0.8,0,1.2,0.2l0,0c0.4,0.3,0.8,0,1.2,0.2
	c0.4,0,0.4,0.1,0.4,0.5c-1.9-0.1-3.7-0.5-5.6-0.9C114.7,86.6,114.1,86.8,113.7,86.4z"/>
<path class="st226" d="M99.2,88.1c-1,0.3-2,0.6-2.9,1c0-0.4,0-0.8,0-1.2c0.7,0,1.4,0,2.1,0c0.3,0.1,0.5,0.2,0.7,0.2
	C99.1,88.1,99.1,88.1,99.2,88.1z"/>
<path class="st227" d="M102.4,90c-0.2-1.4,0.1-1.7,1.2-1.5c0.3,0.1,0.5,0.2,0.4,0.5c-0.1,0.3-0.3,0.4-0.6,0.4
	C103,89.4,102.7,89.5,102.4,90z"/>
<path class="st228" d="M111.1,76.3c0.6-0.3,1.2-0.5,1.9-0.4C112.5,76.4,111.8,76.4,111.1,76.3z"/>
<path class="st229" d="M126.3,95.9c-0.2-0.1-0.4-0.1-0.7-0.2c0.2-0.3,0.4-0.4,0.7-0.5c0.2,0.3,0.5,0.2,0.7,0.2
	C127.1,96,126.6,95.7,126.3,95.9z"/>
<path class="st230" d="M101.8,90.5c-0.3,0-0.7,0.2-0.8-0.2c-0.1-0.2,0.2-0.2,0.4-0.3C101.7,90,101.8,90.2,101.8,90.5z"/>
<path class="st231" d="M119.1,86.9c-0.4,0-0.8,0.2-1.2-0.2C118.3,86.6,118.8,86.6,119.1,86.9z"/>
<path class="st231" d="M120.3,87.1c-0.4,0-0.9,0.2-1.2-0.2C119.5,86.9,120,86.8,120.3,87.1z"/>
<path class="st232" d="M129.6,84.9c0,0.1,0,0.3,0.1,0.4c0,0.2,0,0.4-0.1,0.7C129.4,85.6,129.3,85.2,129.6,84.9z"/>
<path class="st233" d="M117.7,164.5c0.2,0,0.3,0,0.5,0c-0.5,0.6-0.4,1.3-0.6,2c-0.1,0.3-0.1,0.8-0.6,0.7c-0.4-0.1-0.2-0.5-0.2-0.8
	c0-0.6,0.4-1.2,0.5-1.7C117.4,164.5,117.5,164.3,117.7,164.5z"/>
<path class="st234" d="M117.7,164.5c-0.1,0.1-0.3,0.1-0.4,0.2c-0.6-0.5-1.3-0.2-1.8-0.1c-0.7,0.2-0.6-0.3-0.5-0.7
	c0.5,0,1-0.1,1.5-0.4c0.3-0.3,0.6-0.3,0.9-0.1l0,0.1C117.2,163.9,117.8,164.1,117.7,164.5z"/>
<path class="st235" d="M120.8,164c0-0.2,0-0.3,0-0.5c0.5,0,1,0.2,1.4,0.5C121.7,163.9,121.2,164,120.8,164z"/>
<path class="st236" d="M6.3,90.5c0.7,0.6,0.7,1.3,0,1.9c-0.1-0.2-0.1-0.3,0-0.5C6.3,91.5,6.3,91,6.3,90.5z"/>
<path class="st237" d="M2.6,92c-0.4-0.2-0.5-0.6-0.5-1c0.4-0.5,0.6-0.4,1,0.5C2.9,91.7,2.8,91.9,2.6,92z"/>
<path class="st238" d="M4,92.7c-0.4,0.3-0.8,0.4-1-0.2c0-0.1,0.1-0.2,0.3-0.3C3.9,91.8,4,92.2,4,92.7z"/>
<path class="st239" d="M6.3,92c0,0.2,0,0.3,0,0.5c-0.4,0.2-0.5,0.6-0.5,1c-0.2-0.1-0.3-0.3-0.5-0.5C5.5,92.5,5.8,92.1,6.3,92z"/>
<path class="st240" d="M3.3,92.2c-0.1,0.1-0.2,0.2-0.3,0.3c-0.1-0.2-0.3-0.3-0.4-0.5c0-0.3,0.1-0.5,0.5-0.5
	C3.1,91.7,3.2,92,3.3,92.2z"/>
<path class="st241" d="M101.6,24c-0.4,0.2-0.9,0.3-1.2,0.7c-0.9-0.4-1.8-0.8-2.8-1.2c1-0.8,2.2-1.3,3.2-2c0.5-0.2,0.9-0.3,1.4-0.5
	c0.5,0.1,0.1,0.4,0.1,0.6C102.1,22.4,101.8,23.2,101.6,24z"/>
<path class="st196" d="M87.1,52c0.5,0.6-0.2,1.1,0.3,1.9C86.4,53.1,86.4,53.1,87.1,52z"/>
<path class="st242" d="M85.6,54c-0.3-1.3-0.3-2.6,0-3.9C85.8,51.4,85.8,52.7,85.6,54z"/>
<path class="st196" d="M86.1,51.8c0.3,0.5-0.2,0.8-0.1,1.2C85.9,52.6,85.8,52.3,86.1,51.8z"/>
<path class="st243" d="M85.4,56c-0.3-0.3-0.2-0.6-0.1-1.2c0.1,0.4,0.1,0.5,0.2,0.7C85.4,55.7,85.4,55.8,85.4,56z"/>
<path class="st244" d="M71.6,36.4c-0.7,0.3-1.4,0.3-2.1,0C70.2,36.3,70.9,36.2,71.6,36.4z"/>
<path class="st245" d="M133.8,104.7c-0.3,0-0.4-0.1-0.6-0.3c-0.8-0.9-1.1-1.9-0.8-3.1c0.2-0.1,0.3-0.1,0.5-0.2
	c0.2,0.3,0.3,0.6,0.5,0.9c0,0.6,0.4,1.1,0.4,1.6C133.9,104,134.3,104.4,133.8,104.7z"/>
<path class="st246" d="M133.8,104.7c0-0.9-0.6-1.7-0.4-2.7c0.5,0.9,0.9,1.7,1.1,2.7C134.3,104.7,134,104.7,133.8,104.7z"/>
<path class="st247" d="M126.3,95.9c0.3-0.1,0.5-0.3,0.8-0.4c1.6-0.2,2.6,0.6,3.5,1.9C129.2,96.6,127.8,96.3,126.3,95.9z"/>
<path class="st8" d="M117.2,163.5c-0.3,0-0.6,0-0.9,0.1c-0.3-0.1-0.6,0.1-0.9-0.3C116.1,163,116.7,162.7,117.2,163.5z"/>
<path class="st248" d="M76.8,37.9c-0.7,0.4-1.4,0.2-2.1,0.1c0,0,0,0,0-0.1c0,0,0-0.1,0-0.1c0.6,0,1.3,0,1.9,0
	C76.6,37.8,76.7,37.9,76.8,37.9z"/>
<path class="st249" d="M30.7,154.2c0.6,0.7,0,1.3-0.1,1.9c0,0-0.1-0.2-0.2-0.3C30.4,155.3,30.4,154.7,30.7,154.2z"/>
<path class="st250" d="M32.8,114.8c1,0,2,0,3,0c0.1,0,0.1,0.1,0.1,0.2c0,0,0,0.1-0.1,0.1c-1,0-2,0-3,0
	C32.8,114.9,32.8,114.9,32.8,114.8z"/>
<path class="st251" d="M20.4,104.7c-0.2,0.6-0.6,0.5-1,0.7C19.7,104.8,19.7,104.8,20.4,104.7z"/>
<path class="st252" d="M6.3,96.9c0.1,0,0.3,0.1,0.3,0.2c0.1,0.2-0.1,0.2-0.3,0.3c-0.2,0-0.3,0-0.4-0.2C5.9,96.9,6.1,97,6.3,96.9z"/>
<path class="st138" d="M30.9,94.7c0.3,0.4,0.2,0.8,0.2,1.2c-0.1,0-0.2,0-0.2,0C30.9,95.5,30.9,95.1,30.9,94.7z"/>
<path class="st253" d="M29.7,159.3c0.3,0.3,0.2,0.6,0.1,1.2c-0.1-0.4-0.1-0.5-0.2-0.7C29.7,159.6,29.7,159.5,29.7,159.3z"/>
<path class="st254" d="M58.2,97.9c0.1,0,0.2,0,0.2,0c0.3-0.9,0-1.8,0.2-2.6c0.4-0.5,0.2-1.2,0.2-1.7c0-0.5,0-0.9,0.6-1
	c3.2,0,6.3,0,9.5-0.5c0.3,0,0.6-0.1,0.9-0.2c0.3-0.3,0.6-0.1,0.9-0.1c0.6-0.1,1.1-0.2,1.7-0.4c0.4-0.4,0.9-0.3,1.3-0.3
	c0.4,0,0.8-0.1,1.2-0.2c0.7,0,1.3,0,2,0.3c0.4,0.5,0.9,0.8,1,1.5c0,0.4-0.1,0.8,0.4,1c0.3,0.2,0.4,0.5,0.5,0.9c0.9,3,1.7,6,2.4,9
	c0,0.2-0.1,0.5,0.1,0.7c0.1,0.3,0.2,0.6,0.3,0.9c0.7,1.5,0.5,1.9-1.2,2.2c-0.5-0.1-1.1-0.1-1.6,0c-2.3-0.6-4.4,0.4-6.6,0.8
	c-0.7,0.1-1.4-0.2-2.1,0c-0.4,0-0.8,0-1.2-0.2c0-0.1,0.1-0.1,0.2-0.1c-0.2,0-0.4,0-0.6,0.1c-0.7,0-1.2-0.5-1.8-0.8
	c-0.6-0.1-1.1-0.6-1.5-0.9c-0.1-0.1-0.2-0.2-0.4-0.3c-1-1-1.9-2.2-2.7-3.5c-0.2-0.2,0-0.5-0.2-0.8c-0.7-1.4-1.4-2.7-3.2-2.8
	C58.1,98.8,58.4,98.2,58.2,97.9z"/>
<path class="st255" d="M64.8,105.6c0.1,0.1,0.2,0.2,0.3,0.3c0,0.4-0.5,0.5-0.7,0.7c-0.2,0.2-0.3,0.4-0.5,0.5c-0.1,0.3-0.2,0.6,0,0.9
	l0,0c0.4,0.2,0.3,0.7,0.4,1c0,0.5,0.3,0.8,0.5,1.2c0.8,1.4,1.5,2.9,2.1,4.4c0.3,0.8,1.1,1.3,1,2.2c-0.4,0.3-0.4,0.8-0.5,1.3
	c-0.2,1.5-0.6,2.9-1.3,4.2c-0.7,1.3-1.5,1.7-2.7,1.4c-0.7-1.2,0-2.1,0.5-3.1c0.2-1,0-1.9-0.9-2.5c-0.1-0.1-0.1-0.2-0.1-0.3
	c0-0.9,0.1-1.8-0.1-2.7c-0.1-0.7-0.7-1.2-0.9-1.8c-0.4-2.2,0-4.4-0.4-6.6c-0.1-0.4,0-0.9,0.3-1.2c0.1,0,0.2,0,0.3,0
	C63,105.3,63.9,105.3,64.8,105.6z"/>
<path class="st256" d="M63.3,123.7c1.1,0.4,1.9-0.2,2.4-1.2c0.8-1.5,1.3-3.2,1.4-4.9c0-0.5,0.1-0.9,0.7-0.7c0.7-0.2,0.9,0.5,1.1,0.9
	c0.3,0.4,0.3,0.8,0.5,1.2c0.5,1.1,0.2,2-0.4,2.9c-0.2,0.4-0.2,1.2-1,0.5c-0.7-0.3-0.4,0.3-0.5,0.6c-0.2,0.4-0.1,1-0.4,1.3l0,0
	c-0.2,0.6-0.4,1.2-0.8,1.8c-0.3,0.5-0.6,0.9-1.1,1.1l0,0c-0.2,0.7-0.9,0.7-1.4,1l0,0c-0.6,0.4-1.1,0.6-1.6,0c-0.6-1,0.3-1.9,0.2-2.9
	C62.8,124.8,62.3,123.8,63.3,123.7z"/>
<path class="st257" d="M62,113.8c0.8,0.1,0.8,0.8,1,1.4c0.2,1,0.1,2,0,3c0,0.1,0,0.1,0,0.2c-0.7,0.2-1.1,1.6-2.3,0.8
	c-0.3-0.2-0.2,0.5-0.5,0.7c-0.5-0.1-0.6,0.4-0.8,0.6c-1.1,1.3-2.6,2-4.1,2.6c-0.6,0.2-1.3,0.1-1.7-0.4c-0.4-0.6-0.1-1.1,0.3-1.6
	c0.7-0.9,1.3-1.9,2.2-2.7c0.2,0.1,0.3,0.2,0.5,0.4c0.4,0.4,0.8,0.2,1.3,0c0.1,0,0.2-0.1,0.3-0.1c0.4-0.2,0.7-0.6,1-0.9
	c0.8-0.8,1.4-1.8,2-2.8C61.4,114.5,61.6,114.1,62,113.8z"/>
<path class="st258" d="M79.8,82c0,0,0.1-0.1,0-0.2c0.2-1.1,1.1-1.2,1.8-1.3c0.4,0.2,0.9,0.4,1.3,0.6c0.6,0,0.8,0.4,1,1
	c0.2,0.3,0.4,0.6,0.5,1c0.7,1,0.6,2,0,2.9c-0.3,0.3-0.4,0.8-0.9,1c-0.4,0.1-1.1,0.7-0.9-0.6c0.1-0.7-0.6-0.9-1.1-1
	c-0.7-0.1-1.3-0.5-1.7-1.1C79.2,83.4,79.2,82.7,79.8,82z"/>
<path class="st259" d="M81.7,77.3c-0.5-0.9-1.2-1.5-2.3-1.4c0.5-1.1,0.7-2.1,0.1-3.1c-0.5-0.8,0.4-0.9,0.6-1.3
	c0.1-0.1,0.2-0.1,0.3,0c-0.4,0.8,0.1,1.5,0.1,2.3c-0.1,1.5,1,2.3,1.6,3.4C82,77.3,81.9,77.3,81.7,77.3z"/>
<path class="st260" d="M63.3,123.7c-0.7,0.3-0.4,1.2-0.9,1.6c0-0.7-0.4-1.4,0.2-2l0,0c0.3-0.3,0.3-0.7,0.2-1c-0.3-1,0.1-1.4,1-1.4
	C64,121.9,63,122.7,63.3,123.7z"/>
<path class="st261" d="M84.5,85.9c0.3-1,0.2-2,0-2.9c0.3,0.4,0.9,0.5,1,1.2C85.5,85,85.3,85.6,84.5,85.9z"/>
<path class="st262" d="M81.7,77.3c0.1-0.1,0.2-0.2,0.2-0.2c0.7,0.9-0.1,2.1,0.5,3c0.1,0.1-0.5,0.1-0.8,0.1c0-0.1,0-0.3,0-0.5
	c-0.2-0.7,0.1-1.3,0-2C81.7,77.6,81.7,77.5,81.7,77.3z"/>
<path class="st263" d="M66.2,126c0.3-0.6,0.6-1.1,0.9-1.7c0,0.8,0.5,1.7-0.2,2.4c0,0-0.1,0-0.1,0c-0.2-0.1-0.4-0.3-0.5-0.5
	C66.3,126.1,66.2,126.1,66.2,126z"/>
<path class="st264" d="M81.7,80.5c-0.7,0.4-1.5,0.5-1.8,1.3c0.3-0.7-0.9-0.8-0.5-1.5c0.8,0.6,1.5,0.2,2.3,0
	C81.6,80.3,81.7,80.4,81.7,80.5z"/>
<path class="st265" d="M80.3,71.4c-0.1,0-0.2,0-0.3,0c0.1-0.7,0.1-1.3-0.1-2c0.2-0.2,0.2-0.6,0.5-0.6c0.5,0.1,0.2,0.5,0.2,0.8
	C80.8,70.3,80.4,70.8,80.3,71.4z"/>
<path class="st262" d="M84,82c-0.3-0.3-0.7-0.6-1-1c0.1,0,0.2-0.1,0.3-0.2c0.3-0.2,0.5-0.8,0.9-0.5c0.4,0.3,0,0.6-0.1,0.9
	C84,81.5,84.2,81.8,84,82z"/>
<path class="st263" d="M65.2,127.2c0.2-0.5,0.6-0.8,1-1.2l0,0.1c0.1,0.3,0.4,0.4,0.7,0.7l0,0C66.5,127.3,65.9,127.3,65.2,127.2z"/>
<path class="st263" d="M62.3,128.2c0.5,0.3,1.1,0.1,1.6,0c0.1,0.2,0.2,0.3,0.2,0.5c-0.6-0.1-1.1,0.2-1.6,0.5
	C62.4,128.9,62.3,128.5,62.3,128.2z"/>
<path class="st266" d="M80.8,127.3c0-0.4,0.2-0.5,0.4-0.5c0.4,0,0.4,0.3,0.4,0.6c0,0.1,0.2,0.4-0.2,0.4
	C81.1,127.7,80.9,127.6,80.8,127.3z"/>
<path class="st264" d="M79.8,82c-0.3,0.7-0.2,1.5,0.1,2.2c-1.2-0.5-0.4-1.5-0.5-2.3C79.5,81.9,79.6,81.9,79.8,82z"/>
<path class="st263" d="M63.9,128.2c0.3-0.5,0.9-0.7,1.4-1C65.7,128.8,64.4,128,63.9,128.2z"/>
<path class="st267" d="M70,108.1c0.7-0.4,1.4-0.4,2.1,0C71.4,108.5,70.7,108.3,70,108.1z"/>
<path class="st268" d="M76.7,91c0,0.1,0,0.1,0,0.2c-0.6-0.1-1.2-0.3-1.8-0.4c0.5-0.1,0.9-0.2,1.4-0.3C76.5,90.7,76.6,90.8,76.7,91z"
	/>
<path class="st269" d="M92.8,163.8c-0.2,0.1-0.3,0.4-0.5,0.5c-0.1,0.1-0.3-0.1-0.3-0.3c0-0.3,0.1-0.5,0.5-0.5
	C92.6,163.5,92.8,163.5,92.8,163.8z"/>
<path class="st270" d="M89.1,91.1c0.2,0.9,0.1,1.7,0.1,2.7c-0.3-0.2-0.1-0.6-0.2-0.8C88.9,92.3,88.9,91.7,89.1,91.1z"/>
<path class="st271" d="M68.1,122.4c0.5,0.3,0.7-0.3,1-0.5c0.3,0.6-0.1,0.9-0.6,1.1C68.1,123.1,68.1,122.7,68.1,122.4z"/>
<path class="st263" d="M64.1,128.6c0.6,0.1,0.9,0.2,1.3,0.3C64.9,129.2,64.4,129.3,64.1,128.6z"/>
<path class="st263" d="M67.2,124.3c0-0.5,0.2-0.9,0.4-1.3c0,0.5,0.1,1,0,1.4C67.5,124.9,67.3,124.3,67.2,124.3z"/>
<path class="st272" d="M88.7,95.8c0,0.7,0.3,1.4-0.2,2C88.4,97.2,88.4,96.5,88.7,95.8z"/>
<path class="st273" d="M77.5,76.8c0.4,0.4,0.4,0.8,0,1.2C77.3,77.6,77.2,77.2,77.5,76.8z"/>
<path class="st260" d="M62.7,123.3c-1,0-0.5-0.5-0.4-1.1C62.5,122.7,62.6,123,62.7,123.3L62.7,123.3z"/>
<path class="st265" d="M79.4,68c0-0.4,0.2-0.7,0.4-1C80,67.5,79.9,67.9,79.4,68z"/>
<path class="st274" d="M78.6,107.4c0.5-0.3,1.1-0.3,1.6,0C79.7,107.5,79.2,107.5,78.6,107.4z"/>
<path class="st265" d="M80.1,66.5c0.1-0.3,0.3-0.6,0.6-0.8C81.1,66.5,80.6,66.5,80.1,66.5z"/>
<path class="st272" d="M88.4,98c0,0.5,0.2,1.1-0.2,1.5C88.2,99,88.2,98.5,88.4,98z"/>
<path class="st275" d="M68.3,107.9c0.3-0.3,0.6-0.2,0.9-0.1c-0.1,0.3-0.4,0.1-0.5,0.2C68.6,107.9,68.5,107.9,68.3,107.9z"/>
<path class="st1" d="M58.3,118.9c0,0-0.1,0.1-0.2,0.1c-0.2,0.1-0.4,0.1-0.5-0.1c0-0.1,0-0.1,0-0.2c0,0,0,0-0.1,0.1
	c-0.1,0-0.2,0-0.3,0c-1.1-0.4,0-1.1-0.2-1.7c0.5-0.8,1.1-1.6,0.7-2.7c0-0.1,0-0.2,0-0.3c0.2-2.2-0.3-4.4-0.2-6.6
	c-0.1-0.8,0.3-1.3,1-1.4c0.7-0.1,1.3-0.3,2-0.5c0.1-0.1,0.2-0.1,0.2,0c0.3,0,0.6,0,0.9,0c0.3,2.4,0.1,4.8,0.4,7.2
	c0,0.3-0.1,0.6-0.2,0.9c-0.7,1.5-1.5,3-2.8,4.2C58.7,118.1,58.6,118.2,58.3,118.9z"/>
<path class="st276" d="M48.4,124.8c-1.5,0.2-3.1,0.1-4.7,0.1c0-0.1,0-0.3,0.1-0.3C45.4,124.7,46.9,124.3,48.4,124.8z"/>
<path class="st277" d="M57,117.2c0.4,0.2,0.2,0.5,0,0.8c-0.2,0.4-0.2,0.7,0.3,0.8c-0.2,0.7-0.6,0.4-1,0.2c-0.1-0.2-0.2-0.3-0.2-0.5
	C56.3,117.9,56.7,117.5,57,117.2z"/>
<path class="st278" d="M35.8,115c0-0.1,0-0.2,0-0.2c0.6,0,1.2,0,1.8,0c0.9,0,1.8,0,2.8,0c0,0.1,0,0.2,0,0.3
	C38.9,115,37.4,115,35.8,115z"/>
<path class="st279" d="M45.1,151.9c0-0.1,0-0.3,0-0.4c0.3,0.3,0.2,0.6,0.1,1C45.2,152.3,45.2,152.1,45.1,151.9z"/>
<path class="st280" d="M102.1,165c0.4,0,0.7,0,1.1,0c0.3,0.1,0.5,0.2,0.8,0.3c-0.1,0-0.2,0.1-0.3,0.1c-0.7,0.2-1.4,0-2.2,0.1
	c-0.3,0-0.8,0.1-0.7-0.4c0-0.4,0.4-0.4,0.7-0.4C101.7,164.8,101.9,164.9,102.1,165z"/>
<path class="st281" d="M104.2,149.8c0-0.6,0-1.1,0.4-1.5C104.7,148.9,104.6,149.4,104.2,149.8z"/>
<path class="st282" d="M102.1,165c-0.4,0-0.7-0.1-1.2,0.3c1,0.4,2,0.1,2.9,0.2c-0.4,0.3-0.8,0.2-1.2,0.2c-1.8,0.1-2.2,0.5-2.5,2.3
	c-0.1,0.3,0.1,1-0.5,0.9s-0.3-0.7-0.2-1.1c0.1-0.4,0.2-0.7,0.3-1.1c0.2-0.5,0-0.7-0.4-0.6c-0.4,0.1-0.8,0.1-1.2,0.3
	c-0.3,0-0.6-0.1-0.6-0.5c0-0.4,0.4-0.4,0.7-0.5c1.1-0.2,2.2-0.1,3.1-1.1C101.4,164.5,101.9,164.5,102.1,165z"/>
<path class="st283" d="M97.8,166.4c0.4-0.3,0.9-0.4,1.4-0.4c0.8,0,0.6,0.3,0.3,0.7C99.1,165.8,98.3,166.8,97.8,166.4z"/>
<path class="st284" d="M124.7,172.8c-0.8,0-1.5,0-2.3,0C123.2,172.4,124,172.5,124.7,172.8z"/>
<path class="st285" d="M77.9,48.1c-0.2-0.1-0.4-0.1-0.5-0.2c0.4-0.2,0.8-0.2,1.3-0.2c0.1,0.1,0.1,0.2,0,0.3l0,0
	C78.4,48,78.1,48,77.9,48.1z"/>
<path class="st286" d="M78.6,47.9c0-0.1,0-0.2,0-0.3c0.2-0.2,0.4-0.3,0.5,0C79.2,47.8,78.8,47.9,78.6,47.9z"/>
<path class="st287" d="M67.4,74.9c0.1-1.4,2-2,3-1.7c1.1,0.3,1.9,1.7,1.6,3c-0.3,1.1-0.5,2.2-1,3.2c-0.3,0.5-0.5,0.7-1,0.4
	c-0.4,0.2-0.7-0.2-1.1-0.2c-0.8-0.4-1.6-0.6-2.2-1.2c-0.1-0.3-0.1-0.6,0.1-0.8C67.7,76.8,67.6,75.8,67.4,74.9z"/>
<path class="st288" d="M65.1,82.7c-0.4-0.8-0.6-1.6,0.3-2.2c1.1-0.4,2.1,0,3,0.5c0.1,0.4-0.2,0.4-0.5,0.5c-0.2,0.1-0.5,0.1-0.4,0.5
	c0,0.2,0.2,0.3,0.4,0.3c0.3,0,0.4-0.1,0.4-0.4c0-0.2,0-0.5,0.1-0.7c0.8-0.3,0.9,0.3,1.1,0.8c0.1,0.8-0.4,1.1-0.9,1.5
	C67.4,83.2,66.2,82.9,65.1,82.7z"/>
<path class="st289" d="M68.3,81.2c-0.9-0.5-2-0.6-3-0.8c0.3-0.6,1.1-0.8,1.1-1.7c0.1-0.1,0-0.4,0.3-0.5c0.8,0.3,1.5,0.7,2.3,1.1
	c0.5,0.4,1,0.8,0.5,1.5c0,0.4,0,0.8-0.1,1.2C69.2,81.5,68.9,81.1,68.3,81.2L68.3,81.2z"/>
<path class="st290" d="M62,89.1c0.8,0,1.6,0,2.4-0.3c0.3,0.2,0.1,0.5,0.2,0.7l0,0c0.3,0.6,0.1,1-0.3,1.4
	C62.7,91.9,62.1,91.4,62,89.1z"/>
<path class="st291" d="M67.4,74.9c0.8,1.2,0.7,1.8-0.4,2.7c-0.2,0-0.3-0.1-0.3-0.3c0.9-1.4,0.8-1.5-0.6-2.1
	c-0.2-0.1-0.3-0.3-0.4-0.4C66.3,74.4,66.8,74.6,67.4,74.9z"/>
<path class="st292" d="M67.5,91.5c-0.8,0-1.4,0.1-2.2-0.1C66.3,90.9,66.3,90.9,67.5,91.5z"/>
<path class="st293" d="M73.7,91c-0.4,0.2-0.9,0.3-1.3,0.3c-0.3,0-0.5,0-0.8-0.1C72.3,91.2,73,90.4,73.7,91z"/>
<path class="st294" d="M69.5,80.8c0.1-0.6-0.3-1-0.5-1.5c0.4-0.1,0.6,0.3,0.9,0.5C69.9,80.2,70.1,80.7,69.5,80.8z"/>
<path class="st295" d="M59.4,92.5C59,92.8,59,93.3,59,93.8c0,0.5,0.2,1-0.2,1.4c-0.1,0-0.1-0.1-0.1-0.1c0,0,0-0.1,0.1-0.1
	c0-0.8,0-1.6,0-2.4C59,92.5,59.2,92.5,59.4,92.5z"/>
<path class="st292" d="M64.3,91c0.2-0.5,0.3-0.9,0.3-1.4C65.1,90.1,65.2,90.7,64.3,91z"/>
<path class="st292" d="M64.6,89.5c-0.3-0.2-0.2-0.5-0.2-0.7c0.1-0.2,0.3-0.2,0.5-0.2C64.9,89,64.8,89.3,64.6,89.5z"/>
<path class="st296" d="M59,88.1c0-0.1,0-0.3,0-0.5c0.3,0,0.6,0,0.7,0.5C59.4,88.1,59.2,88.1,59,88.1z"/>
<path class="st297" d="M70.7,91.7c-0.3,0-0.6,0.1-0.9,0.1C70,91.3,70.3,91.5,70.7,91.7z"/>
<path class="st298" d="M81.7,77.8c0.3,0.7,0.1,1.3,0,2C81.3,79.1,81.3,78.4,81.7,77.8z"/>
<path class="st86" d="M48.8,60.1c0.5-0.3,1-0.4,1.5-0.4C50,60.5,49.3,60,48.8,60.1z"/>
<path class="st299" d="M34.4,50.4c1.1-0.1,2,0.5,2.9,0.9c1.4,0.7,1.3,3.4-0.2,4.3c-1.5,0.9-3.8,1.2-5.3-0.1
	c-1.6-1.4-1.5-3.4,0.4-4.5C32.8,50.7,33.5,50.1,34.4,50.4z"/>
<path class="st300" d="M53.8,54.3c-0.9,0.2-1.3-0.4-1.3-1.2c0-1.1,1-1.7,2.5-1.7c1.1,0,1.1,1,1.3,1.7C56.5,53.5,55.1,54.3,53.8,54.3
	z"/>
<path class="st301" d="M34.9,44.7c0.4,0,0.8-0.1,0.9,0.5c0,0.3-0.2,0.6-0.5,0.5C34.7,45.5,34.8,45.1,34.9,44.7L34.9,44.7z"/>
<path class="st302" d="M51.3,45.2c-0.2-0.3-0.3-0.6,0-0.9c0.4-0.1,0.7,0,0.7,0.5C51.9,45.2,51.6,45.3,51.3,45.2z"/>
<path class="st303" d="M65.5,54.9c0.2,0,0.4,0.1,0.4,0.3c0,0.2-0.1,0.3-0.3,0.3c-0.2,0-0.4-0.1-0.4-0.3C65.2,55.1,65.3,55,65.5,54.9
	z"/>
<path class="st304" d="M75.8,58.5c0,0.2,0,0.3,0,0.5c-0.3,0.2-0.5,0.1-0.5-0.3C75.3,58.4,75.6,58.4,75.8,58.5z"/>
<path class="st305" d="M53.1,79.7c0-0.2,0-0.3,0-0.5c0.1,0.1,0.3,0.1,0.4,0.2c0.3,0.3,0.5,0.7,0.7,1.1
	C53.8,80.3,53.2,80.4,53.1,79.7z"/>
<path class="st306" d="M53.4,77.5c0.5,0.4,1.1,0.8,1.2,1.5c0,0.1,0,0.2,0,0.2C54,78.8,53.5,78.3,53.4,77.5z"/>
<path class="st307" d="M64.8,105.6c-0.9,0-1.8,0.3-2.7,0c0-0.8-0.1-1.6-0.1-2.4c-0.1-0.3-0.3-0.7,0.1-1
	C63,103.4,63.7,104.6,64.8,105.6z"/>
<path class="st255" d="M60.8,105.7c-0.1,0-0.2,0-0.2,0c0-0.2,0-0.3,0-0.5c0-0.4-0.2-0.9,0.4-1c0.2,0,0.4,0,0.5,0.2
	c0.1,0.5,0,0.9-0.5,1C60.9,105.6,60.9,105.7,60.8,105.7z"/>
<path class="st308" d="M62.1,102.3c0,0.3-0.1,0.7-0.1,1c-0.4-0.5-0.6-1-0.2-1.6C62,101.7,62,102,62.1,102.3z"/>
<path class="st309" d="M65.1,77.8c0.4,1.5-0.1,2.3-1.6,2.2c-0.9,0-1.6-0.5-2.1-1.2c-0.4-0.7-0.2-1.4,0.4-2c0.4-0.4,0.9-0.6,1.4-0.2
	c0.1,1.1,0.6,0.9,1.1,0.4C64.8,77,65.1,77.3,65.1,77.8z"/>
<path class="st310" d="M63.2,76.8c-0.5-0.3-0.9,0.2-1.4,0.1c-0.3-0.6-0.5-1.3,0.5-1.5c0.2,0.2,0.4,0.4,0.7,0.5
	c0.3,0.2,0.8-0.3,1,0.3c0.1,0.3,0.6,0.2,0.7,0c0.4-1.3,1.1,0,1.7-0.2c0.1,0,0.2,0.1,0.1,0.2c-0.2,0.5-0.5,0.1-0.8,0.2
	c-0.2,0.2-0.4,0.4-0.2,0.7c0.4,0.2,0.8,0.3,1.2,0.2c0.1,0.1,0.2,0.2,0.3,0.3c-0.1,0.2-0.3,0.4-0.2,0.6c-0.1,0.2-0.2,0.3-0.3,0.5
	c0-1-0.7-1.1-1.4-1c-0.2-0.3-0.4-0.6-0.7-0.7C63.9,77.2,63.5,77.2,63.2,76.8z"/>
<path class="st311" d="M63,75.8c-0.6,0.5-0.8,0.2-0.7-0.5C62.6,75.3,62.9,75.4,63,75.8z"/>
<path class="st312" d="M65.5,77.1c-0.2-0.1-0.5-0.2-0.4-0.5c0.1-0.3,0.4-0.2,0.6-0.2C65.8,76.6,65.7,76.8,65.5,77.1z"/>
<path class="st313" d="M59.4,78.8c0.1-0.2,0.2-0.4,0.3-0.5c0.2,0.2,0.3,0.4,0.1,0.6C59.7,79,59.5,78.9,59.4,78.8z"/>
<path class="st314" d="M58.7,94.9c0,0.1,0,0.1,0,0.2C58.6,96,59,97,58.5,97.9c0-0.5,0-1,0-1.5C58.6,95.9,58.4,95.4,58.7,94.9z"/>
<path class="st315" d="M110.4,129.2c0-1.3,0-2.6,0-3.9h0c0-0.1,0.1-0.1,0.2,0c0,1.3,0,2.6,0,3.9
	C110.6,129.3,110.5,129.3,110.4,129.2L110.4,129.2z"/>
<path class="st316" d="M110.5,137.1c0-1.3,0-2.6,0-3.9h0c0.1-0.1,0.1-0.1,0.2,0c0,1.3,0,2.6,0,3.9
	C110.6,137.2,110.5,137.2,110.5,137.1L110.5,137.1z"/>
<path class="st317" d="M110.7,133.1c-0.1,0-0.1,0-0.2,0c0-1.3,0-2.6,0-3.9c0.1,0,0.1,0,0.2,0C110.7,130.5,110.7,131.8,110.7,133.1z"
	/>
<path class="st318" d="M110.6,125.3c-0.1,0-0.1,0-0.2,0c0-1.3,0-2.6,0-3.9c0.1,0,0.1,0,0.2,0C110.6,122.7,110.6,124,110.6,125.3z"/>
<path class="st319" d="M110.5,137.1c0.1,0,0.1,0,0.2,0c0,0.8,0,1.6,0,2.4c-0.1,0-0.2,0-0.2,0C110.5,138.7,110.5,137.9,110.5,137.1z"
	/>
<path class="st320" d="M118.7,103c0.2-0.3,0.4-0.5,0.8-0.3c0.8,0.3,1.6,0.4,2.4,0.6c0.1,0.8,0,1.6-0.5,2.3c-1.1,0-2.2,0-3.3,0.1
	C117.8,104.7,118.1,103.8,118.7,103z"/>
<path class="st321" d="M118.7,103c-0.2,0.9-0.3,1.8-0.5,2.7c-0.2,0-0.3,0-0.5,0c0.1-0.6-0.4-1.2,0.1-1.9c0.2-0.3-0.6-1.2-1.2-1.4
	c-0.4-0.1-0.7,0-0.8-0.6c0.7,0.2,1.5,0.3,2.2,0.5C118.5,102.4,118.6,102.6,118.7,103z"/>
<path class="st322" d="M121.5,105.6c0.1-0.8,0.1-1.6,0.5-2.3c0.1,0.1,0.3,0.1,0.4,0.2c0.2,0.2,0.2,0.5,0.2,0.7
	c-0.1,0.4,0,0.9-0.5,1.2C121.9,105.6,121.7,105.8,121.5,105.6z"/>
<path class="st323" d="M122.1,105.4c0.1-0.4,0-0.9,0.3-1.3c0.2,0.2,0.3,0,0.4-0.2c0.1-0.3,0.3-0.5,0.5,0c-0.1,0.5,0.1,1-0.1,1.5
	C122.7,105.5,122.4,105.5,122.1,105.4z"/>
<path class="st324" d="M123.1,105.5c0-0.6,0-1.2,0-1.7c0.1-0.1,0.2-0.1,0.2,0c0,0.6,0,1.3,0,1.9c0,0-0.1,0-0.2,0
	C123.1,105.6,123.1,105.6,123.1,105.5z"/>
<path class="st325" d="M123.6,103.7c0.3,0.3,0.9,0.1,1.1,0.5c0,0.4,0,0.7,0,1.1c-0.2,0.3-0.7,0-0.9,0.3l-0.1,0c0,0-0.1,0-0.1,0
	C123.6,105,123.6,104.4,123.6,103.7z"/>
<path class="st326" d="M123.8,105.7c0.2-0.6,0.6-0.3,0.9-0.3C124.5,105.9,124.1,105.7,123.8,105.7z"/>
<path class="st327" d="M130.3,104.9c0.4-0.4,1-0.2,1.5-0.2C131.4,105.1,130.8,104.9,130.3,104.9z"/>
<path class="st328" d="M123.3,103.8l-0.1,0h-0.1c-0.5,0.3,0,1-0.5,1.3c-0.4-0.2-0.2-0.6-0.3-0.9c0-0.2,0-0.4,0-0.7
	c0.4,0,0.8-0.1,1.2,0.2C123.5,103.7,123.4,103.7,123.3,103.8z"/>
<path class="st329" d="M111,60.6c0.9,0,1.8,0,2.7,0c0.1,0,0.3,0,0.4,0.1c0,0,0,0.1,0,0.1c-1.4,0-2.8,0-4.1,0
	C110.3,60.5,110.7,60.7,111,60.6z"/>
<path class="st330" d="M103.7,47.7c0-0.1,0-0.2,0-0.3c0.2-0.4,0.4-0.4,0.7-0.1c0.2,0.2,0.3,0.4,0,0.6
	C104.1,48.1,103.9,48.1,103.7,47.7z"/>
<path class="st331" d="M93.2,112.4c0,0.5,0,1.1-0.2,1.6c-0.2-0.9-0.1-1.8-0.1-2.7C93.3,111.7,93.1,112.1,93.2,112.4z"/>
<path class="st332" d="M89.7,117.7c-0.1-0.1-0.2-0.1-0.3-0.2c0.9,0,1.8,0,2.6,0c0.1,0.1,0.1,0.2,0,0.3c-0.2,0-0.4,0-0.6,0
	C90.8,117.8,90.2,118,89.7,117.7z"/>
<path class="st333" d="M92,117.7c0-0.1,0-0.1,0-0.2c0.8-0.1,0.3-0.9,0.7-1.3c0,0.3,0,0.5,0.1,0.7c0,0.3,0,0.6,0,0.9
	C92.4,117.9,92.2,117.9,92,117.7z"/>
<path class="st334" d="M91.2,77.7c0-0.2,0.1-0.4,0.1-0.6c0.2,0.2,0.1,0.5,0.1,0.8c0,0.1,0,0.3-0.2,0.1C91.3,78,91.3,77.8,91.2,77.7z
	"/>
<path class="st335" d="M90.4,49.4c0-0.9,0-1.8,0-2.7C90.7,47.6,90.7,48.5,90.4,49.4z"/>
<path class="st336" d="M89.4,127.2c0.9-0.1,1.7,0.2,2.6,0c0.5,0.9,0.3,1.8,0.2,2.7c-0.1,0.2-0.2,0.3-0.5,0.3c-0.4,0-0.7-0.1-1.1-0.3
	c-0.2-0.1-0.5-0.1-0.7-0.1c-0.4,0-0.9,0.1-1.2-0.2c-0.2,0-0.4-0.1-0.5-0.4C88.1,128.3,88.7,127.7,89.4,127.2z"/>
<path class="st337" d="M91.6,130.2c0.1,0,0.3,0,0.4,0c0.2,0,0.2,0.2,0.3,0.3c0,0.1,0,0.3,0,0.4c0,0.1,0,0.2,0,0.3
	c-0.1,0.2-0.3,0.5-0.1,0.8c0,0,0.1,0,0.1,0.1c-0.2,0.6-0.6,0.7-0.7,0.1c0-0.9-0.3-1.5-1-2C90.9,130,91.2,130.1,91.6,130.2z"/>
<path class="st338" d="M90.1,129.8c0.2,0,0.4,0,0.5,0.2c0,0.1-0.2,0.2-0.2,0.3c-0.5-0.1-1.1,0.2-1.6-0.3
	C89.2,129.7,89.7,130,90.1,129.8z"/>
<path class="st339" d="M86.8,129.2c-0.2,0-0.3,0-0.5,0c-0.2-0.2-0.1-0.5-0.1-0.7c0.1-0.2,0.2-0.5,0.4-0.6c0.3,0.1,0.4,0.3,0.4,0.6
	C87.1,128.8,87,129,86.8,129.2z"/>
<path class="st340" d="M85.7,130.2c0-0.3,0-0.5,0.4-0.7c0.2,0.5-0.2,0.8-0.1,1.2C85.4,130.7,85.5,130.4,85.7,130.2z"/>
<path class="st341" d="M90.1,129.8c-0.4,0.4-0.9,0.1-1.3,0.2c0-0.1-0.1-0.2-0.1-0.2C89.1,129.7,89.6,129.7,90.1,129.8z"/>
<path class="st342" d="M85.7,130.2c0.1,0.2,0.1,0.3,0.2,0.5c0,0.3-0.1,0.6-0.3,0.4C85.3,130.9,85.4,130.5,85.7,130.2z"/>
<path class="st343" d="M86.4,128.6c0,0.2,0,0.5-0.1,0.7c-0.2,0-0.3,0-0.5,0c0.1-0.3,0.2-0.7,0.3-1C86.4,128.2,86.5,128.3,86.4,128.6
	z"/>
<path class="st341" d="M90.3,130.2c0.1-0.1,0.2-0.2,0.2-0.3c0.4,0,0.7,0,1,0.2c-0.3,0-0.7,0-1,0C90.5,130.2,90.4,130.2,90.3,130.2z"
	/>
<path class="st344" d="M92.2,131.2c0-0.1,0-0.1,0-0.2c0.1,0.1,0.1,0.1,0.2,0.2c0,0.3,0.1,0.7-0.2,1l-0.1,0
	C91.9,131.8,92,131.4,92.2,131.2z"/>
<path class="st345" d="M86.8,129.2c0-0.2,0-0.5,0-0.7c0-0.1,0.1-0.1,0.2-0.1c0.1,0.1,0.2,0.2,0.2,0.3c0,0.2,0,0.4,0,0.6
	C87.1,129.3,87,129.3,86.8,129.2z"/>
<path class="st346" d="M102.5,97.4c-0.9-1.1-0.8-1.5,0.4-2.4c0.2-0.1-0.1-0.7,0.4-0.6c0.4,0.1,0.7,0.3,1.1,0.5
	c-0.2,0.1-0.2,0.4-0.5,0.6c-0.8,0.4,0.5,0.5,0.2,1c-0.2,0.3-0.7,0.1-0.9,0.5h0C103,97,102.9,97.5,102.5,97.4z"/>
<path class="st347" d="M102.5,97.4c0.2-0.2,0.3-0.5,0.7-0.5c0.1,0.8-0.2,1.1-0.9,1C102.4,97.7,102.5,97.5,102.5,97.4z"/>
<path class="st346" d="M105.4,96.6c0,0.2-0.2,0.2-0.3,0.3c-0.2,0-0.3,0-0.4-0.2c0-0.2,0.2-0.2,0.3-0.2
	C105.2,96.4,105.3,96.4,105.4,96.6z"/>
<path class="st348" d="M103.2,96.9c0.1-0.7,0.6-0.4,0.9-0.5C104.1,97.1,103.6,96.8,103.2,96.9z"/>
<path class="st349" d="M102.9,93.2c0-0.1,0.1-0.1,0.1-0.2c0.2,0,0.6,0,0.5,0.2C103.4,93.7,103.2,93.2,102.9,93.2z"/>
<path class="st350" d="M97.4,149.9c-0.1,0.8,0.4,1.6-0.3,2.4c0-1.7,0-3.4,0-5.1c0.1,0,0.2,0,0.3,0C97.4,148,97.4,148.9,97.4,149.9z"
	/>
<path class="st351" d="M92.2,130.5c-0.1-0.1-0.2-0.2-0.3-0.3c0-1,0-2,0-2.9c0-0.1,0-0.2,0-0.2c0.4,0,0.6,0.3,0.6,0.7v0
	c-0.3,0.8,0.4,1.7-0.3,2.4C92.3,130.3,92.3,130.4,92.2,130.5z"/>
<path class="st352" d="M86.4,128.6c-0.1-0.1-0.2-0.2-0.2-0.3c0.1-0.3,0.2-0.6,0.3-1c0.1,0,0.3,0,0.4,0c0.3,0.3,0.1,0.5-0.2,0.7
	C86.6,128.2,86.5,128.4,86.4,128.6z"/>
<path class="st353" d="M89.7,117.7c0.6,0,1.2,0,1.8,0.1c0,0,0,0.1,0,0.2C90.9,117.9,90.2,118.2,89.7,117.7z"/>
<path class="st354" d="M86.6,128c0-0.2,0.1-0.5,0.2-0.7c0.1,0.1,0.2,0.2,0.3,0.3c0.1,0.3,0.2,0.6-0.1,0.9c-0.1,0-0.1,0-0.2,0.1
	C86.8,128.4,86.7,128.2,86.6,128z"/>
<path class="st355" d="M87,128.4c0-0.3,0-0.6,0.1-0.9c0.1,0,0.2,0.1,0.3,0.2c0,0.3-0.1,0.7-0.1,1C87.2,128.6,87.1,128.5,87,128.4z"
	/>
<path class="st356" d="M91.5,117.9c0,0,0-0.1,0-0.2c0.2,0,0.3,0,0.5-0.1c0.2,0,0.4,0,0.7,0c-0.1,0.3-0.3,0.3-0.5,0.3
	C91.9,118,91.7,118,91.5,117.9z"/>
<path class="st357" d="M92.7,123.9c0.1,0.1,0.2,0.2,0.2,0.3c0,0.1-0.1,0.1-0.1,0.2c-0.1-0.1-0.2-0.1-0.2-0.2
	C92.5,124.1,92.6,124,92.7,123.9z"/>
<path class="st358" d="M97.1,98.9c-0.3,0.2-0.6,0.3-0.9,0.5c0-1.3,0-2.6,0-3.9c0.9,0.6,2,0.8,2.8,1.7c0.2,0.4,0.7,0.9,0,1.2
	c0-0.2-0.1-0.5-0.3-0.3c-0.6,0.5-1,0.5-1.1-0.4c-0.1-0.3-0.4-0.3-0.6-0.2c-0.3,0.2,0,0.4,0.1,0.6C97.1,98.3,97.1,98.6,97.1,98.9z"/>
<path class="st359" d="M99,98.4c0.4-0.4-0.1-0.8,0-1.2c0.9,0.1,0.3,0.9,0.5,1.4c0.2,0.4-0.3,0.3-0.5,0.3C99,98.7,99,98.5,99,98.4z"
	/>
<path class="st360" d="M92.4,130.2c0.2-0.8-0.2-1.6,0.3-2.4c0.1,0.8,0.2,1.6,0.3,2.4C92.7,130.2,92.6,130.2,92.4,130.2z"/>
<path class="st361" d="M78.4,94.4c1.4,1.5,2.5,3.2,3.5,5c0.9,1.7,0.6,2.9-1,4.3c-0.8-2.9-1.7-5.9-2.5-8.8
	C78.4,94.8,78.4,94.6,78.4,94.4z"/>
<path class="st362" d="M64.1,92.9c-1.4,0-2.8,0-4.1,0c0,0,0-0.1,0-0.1C61.3,92.8,62.7,92.8,64.1,92.9C64.1,92.9,64.1,92.9,64.1,92.9
	z"/>
<path class="st363" d="M77.6,92.8c0.1,0.3,0.2,0.6,0.4,0.9C77.4,93.7,77.3,93.5,77.6,92.8z"/>
<path class="st364" d="M63,118.2c0-1,0-2,0-3C63.3,116.2,63.4,117.2,63,118.2z"/>
<path class="st365" d="M58.3,118.9c0.4-0.5-0.4-1,0.1-1.5c0.1,0.5,0.4,0.6,0.9,0.6C59,118.3,58.7,118.7,58.3,118.9z"/>
<path class="st365" d="M56.4,118.9c0.3,0,0.7,0.1,1-0.2c0.1,0,0.2,0,0.2,0l0,0c0.1,0.2,0.3,0.2,0.5,0.3
	C57.5,119.4,56.9,119.7,56.4,118.9z"/>
<path class="st196" d="M66.9,126.8c-0.4,0-0.7-0.2-0.7-0.7C66.6,126.2,66.9,126.3,66.9,126.8z"/>
<path class="st277" d="M57.6,118.7c-0.1-0.2-0.4-0.5,0-0.8c0,0,0.2,0,0.2,0C57.9,118.2,57.8,118.5,57.6,118.7L57.6,118.7z"/>
<path class="st366" d="M68.3,81.2c0.1,0.4,0.6,0.8,0,1.3c-0.3,0.2-0.7,0.3-1,0c-0.3-0.2-0.5-0.4-0.4-0.8c0.1-0.4,0.4-0.5,0.8-0.5
	C68,81.2,68.1,81.2,68.3,81.2L68.3,81.2z"/>
<path class="st367" d="M34.3,55.7c-1.3,0-2.7-1.2-2.7-2.2c0-1.4,1.4-2.5,3.1-2.5c1.4,0,2.5,1.1,2.5,2.3
	C37.2,54.6,35.8,55.8,34.3,55.7z"/>
<path class="st368" d="M63.2,76.8c0.4,0,0.8,0.1,1.1,0.3c0.1,0.9-0.5,0.8-1,0.6C62.8,77.6,62.9,77.2,63.2,76.8z"/>
<path class="st369" d="M62.4,78.6c1.1-0.6,1.1-0.6,1.3,0.3C63.4,78.4,62.9,78.9,62.4,78.6z"/>
<path class="st370" d="M92.2,131.2c0,0.3,0,0.6,0,1c-0.1,0-0.3,0.3-0.4,0.2C91.8,131.9,91.5,131.3,92.2,131.2z"/>
<path class="st371" d="M33.9,54.8c-0.5,0-1.3-0.4-1.3-1.3c0-1.1,0.8-1.1,1.6-1.1c0.1,0,0.2,0,0.4,0c0.7,0,1.7-0.1,1.7,1
	c0,1-0.7,1.5-1.8,1.5C34.3,54.8,34.2,54.8,33.9,54.8z"/>
</svg>
