<?xml version="1.0" encoding="utf-8"?>
<!-- Generator: Adobe Illustrator 23.0.5, SVG Export Plug-In . SVG Version: 6.00 Build 0)  -->
<svg version="1.1" xmlns="http://www.w3.org/2000/svg" xmlns:xlink="http://www.w3.org/1999/xlink" x="0px" y="0px"
	 viewBox="0 0 150 150" style="enable-background:new 0 0 150 150;" xml:space="preserve">
<style type="text/css">
	.st0{display:none;}
	.st1{stroke:#000000;stroke-width:2;stroke-miterlimit:10;}
</style>
<g id="Layer_3" class="st0">
	
		<image style="display:inline;overflow:visible;opacity:0.56;" width="380" height="387" xlink:href="C:\Users\Md.Shamim_Haque\Desktop\Screenshot_1.png"  transform="matrix(0.4053 0 0 0.4063 -3 0)">
	</image>
</g>
<g id="Layer_2">
	<path class="st1" d="M37.4,71.3c0,1.3-1,2.4-2.3,2.4H21v14.1c0,1.3-1,2.4-2.3,2.4c-1.3,0-2.3-1.1-2.3-2.4V73.7H3.8
		c-1.3,0-2.3-1.1-2.3-2.4c0-1.3,1-2.4,2.3-2.4h12.5V54.9c0-1.3,1-2.4,2.3-2.4c1.3,0,2.3,1.1,2.3,2.4V69h14.1
		C36.4,69,37.4,70,37.4,71.3z"/>
	<path d="M61.5,71.8L61.5,71.8c-1-1.2-1.9-2.6-2.7-4C59.7,69.1,60.6,70.4,61.5,71.8z"/>
	<path d="M99.6,67.4c-0.5,0.7-1,1.4-1.5,2.1l-0.7,1l0,0C98.2,69.3,98.9,68.3,99.6,67.4z"/>
	<path class="st1" d="M80.3,3.1C59,3.1,39.4,13.2,26.6,30c-0.9,1.1-0.4,2.8,0.9,3.3l0,0c1.2,0.5,2.5,0.1,3.3-0.9
		C42.7,17,60.7,7.8,80.3,7.8c35.3,0,64,30,64,66.7c0,18-6.9,35-18.9,47.4c-1.4,1.5-3.9,0.2-3.6-1.8l2.2-13.7
		c1.6-7.9-3.5-11.4-6.3-12.1c0,0-17.8-5.5-19.9-6.2c-0.1,0-0.3-0.1-0.4-0.2c-1.2-0.3-2.1-0.9-2.8-1.7c-0.5-0.4-0.8-0.9-1-1.5
		c-0.2-0.3-0.3-0.6-0.4-0.9c0-0.1,0-0.2-0.1-0.3c0-0.1,0-0.3-0.1-0.4v0c0-0.3,0-0.5,0-0.8c-0.3-3,1.9-7.9,4.5-12
		c0.7-1.1,1.4-2.2,2.1-3.1c0,0,0,0,0,0c3.4-5,6.4-10.2,6.4-16.3c0-15.7-10.9-26.7-26.5-26.7C63.9,24.3,53,35.3,53,51
		c0,6.2,2.6,11.7,5.7,16.7c0,0.1,0.1,0.1,0.1,0.2c0.9,1.2,1.8,2.6,2.7,3.9c1.5,2.4,2.9,4.9,3.8,6.9c0.2,0.2,0.3,0.5,0.4,0.7
		c0.2,0.3,0.4,0.7,0.5,1.1c0.3,0.8,0.4,1.6,0.2,2.5c0,0,0,0.1,0,0.1h0c-0.2,0.9-0.8,1.6-1.7,2c-0.1,0-0.1,0.1-0.2,0.2
		c-0.3,0.4-0.7,0.7-1.2,0.9c0,0-0.1,0.1-0.1,0.1c-0.2,0.2-0.4,0.3-0.7,0.4l-23.6,8.4c-2.3,0.8-3.9,3-3.9,5.5l0,0
		c0,1.3,1.1,2.4,2.4,2.4h0.6c0.9,0,1.7-0.8,1.6-1.7c0-0.9,0.6-1.7,1.4-2L64,91.2c0.2-0.1,0.4-0.3,0.7-0.3c0.2-0.2,0.5-0.3,0.8-0.4
		c0.2-0.2,0.5-0.4,0.8-0.6c1-0.9,2.6-2.5,3.6-4.6c0.1-0.1,0.1-0.3,0.1-0.4c0.1-0.2,0.1-0.4,0.2-0.6c0.1-0.2,0.2-0.4,0.2-0.6
		c0,0,0-0.1,0-0.1c0-0.1,0.1-0.2,0.1-0.3c0,0,0-0.1,0-0.1c0-0.2,0-0.3,0.1-0.5c0-0.2,0-0.5,0.1-0.7c0-0.3-0.1-0.5,0-0.8
		c-1-5.7-6.2-13.3-8.2-16c0,0-0.1-0.1-0.1-0.1c-2.6-4.3-4.8-9.1-4.8-14c0-12.9,9-22,21.9-22c12.9,0,21.9,9,21.9,22
		c0,4.6-2.6,9.1-5.5,13.4c0,0-0.1,0.1-0.1,0.1c0,0-0.1,0.1-0.1,0.2c-1.8,2.3-10,13.6-6.3,22.5c0.1,0.2,0.2,0.4,0.3,0.6l0.1-0.1
		c0.6,1.6,2,3.1,5.7,4.5c0.1,0,0.2,0.1,0.4,0.2l20.6,6.4c0.4,0.1,4,1.2,2.9,6.8l-4.2,26.3c-0.3,1.9,1.8,3.2,3.3,2.1l0.4-0.3
		c18.9-13.3,30.1-35.4,30.1-59.1C149,35.2,118.2,3.1,80.3,3.1z"/>
	<path class="st1" d="M89.4,140.2L89.4,140.2c-0.3-1.1-1.3-1.7-2.3-1.6c-4.2,0.6-8.4,0.9-12.7,0.6C52.9,138,34,126.1,23.2,107.6
		c-0.3-0.6-0.9-1-1.6-1l-0.4,0c-1.8-0.1-2.9,1.8-2,3.4c11.6,19.8,31.8,32.7,54.9,34c3.6,0.2,8.9-0.1,13.3-0.7
		C88.8,143,89.7,141.6,89.4,140.2z"/>
</g>
</svg>
