<?xml version="1.0" encoding="utf-8"?>
<!-- Generator: Adobe Illustrator 23.0.5, SVG Export Plug-In . SVG Version: 6.00 Build 0)  -->
<svg version="1.1" id="Layer_1" xmlns="http://www.w3.org/2000/svg" xmlns:xlink="http://www.w3.org/1999/xlink" x="0px" y="0px"
	 viewBox="0 0 150 150" style="enable-background:new 0 0 150 150;" xml:space="preserve">
<path d="M117,150c-5.4-1.8-9.8-4.6-10.9-10.4c-1.3-6.4,3.3-12.7,10-14.3c6.2-1.4,12.8,2.6,14.8,9.1c1.8,5.7-2,12.5-8.3,14.7
	c-0.9,0.3-1.9,0.6-2.9,0.9C118.8,150,117.9,150,117,150z M112.2,137.3c0,4,2.5,6.5,6.5,6.4c3.9,0,6.4-2.5,6.5-6.2
	c0.1-3.8-2.7-6.5-6.6-6.5C114.7,131.1,112.2,133.5,112.2,137.3z"/>
<path d="M41.5,150c-1.5-0.5-3-0.9-4.4-1.6c-5.5-2.7-8.5-8.7-6.9-14c1.6-5.6,7.6-9.9,13.3-9.4c5.9,0.5,11.3,5.6,11.8,11
	c0.6,6-3.4,11.5-9.4,13.3c-0.8,0.2-1.5,0.4-2.3,0.7C42.9,150,42.2,150,41.5,150z M49,137.4c0-3.8-2.7-6.4-6.6-6.3
	c-3.8,0.1-6.3,2.5-6.4,6.2c0,3.9,2.4,6.4,6.4,6.4C46.5,143.7,49,141.3,49,137.4z"/>
<path d="M27.9,38.9c4,0,7.6,0,11.2,0c2.1,0,3.9,0.5,3.9,3c0,2.5-1.7,3.1-3.8,3.1c-3.6,0-7.2,0-11.3,0c3.9,16.7,7.7,33.2,11.6,49.9
	c6.6-0.7,13.1-1.3,19.6-2c15.9-1.7,31.8-3.4,47.6-5.1c6.6-0.7,13.2-1.3,19.8-2.2c1-0.1,2.5-1,2.7-1.8c3.7-12.8,7.2-25.6,10.9-38.9
	c-3.7,0-7-0.1-10.3,0c-2.4,0-4.2-0.7-4.1-3.2c0.1-2.4,1.9-2.9,4.1-2.9c2.8,0.1,5.7-0.2,8.4,0.1c3.1,0.4,4.2-1,4.6-3.7
	c0.2-1.1,0.5-2.2,0.8-3.2c0.6-1.9,1.7-3.6,4.1-2.9c2.3,0.6,2.5,2.5,2,4.6c-2.2,7.8-4.4,15.7-6.6,23.5c-2.5,9.1-5,18.2-7.6,27.3
	c-1.3,4.7-4.2,6.8-9.2,7.3c-22.1,2.3-44.3,4.7-66.4,7c-5.9,0.6-11.8,1.3-17.8,1.8c-2,0.2-3,0.9-3.3,2.9c-0.3,1.9-1,3.8-1.6,5.7
	c-1,2.6-0.1,3.5,2.7,3.5c13.5-0.1,27,0,40.5,0c15.4,0,30.9,0,46.3,0c2.2,0,4.7-0.1,4.7,2.8c0.1,3-2.3,3.3-4.7,3.3
	c-29.2,0-58.3,0-87.5,0c-6.3,0-10.6-4.4-8.3-9.8c3.8-9,1.7-17.3-0.5-26c-3.2-13-6.4-26.1-9-39.2c-0.7-3.5,0.6-7.5,1.4-11.2
	c1.2-6.2,1.3-6.2-5.2-6.2c-4.6,0-9.2,0-13.9,0c-2.1,0-3.7-0.7-3.7-2.9c0-2.3,1.5-3.2,3.8-3.2c6,0,11.9,0,17.9,0
	c4.9,0.1,10.1,5.2,8,10.1C28.6,33,28.5,35.7,27.9,38.9z"/>
<path d="M83.7,69.7c-19-0.1-35-15.9-34.7-34.4C49.2,17,65.3,1.8,84.3,1.9c18.6,0.1,34.6,15.7,34.7,33.8
	C119,54.1,102.6,69.8,83.7,69.7z M83.7,63.5c16.4,0.1,28.7-11.7,28.8-27.5c0.1-15.9-12.2-28-28.6-28.1C67.9,7.9,55.3,20,55.2,35.6
	C55.2,51.4,67.5,63.4,83.7,63.5z"/>
<path d="M103.5,38.5l-39,0c-1.4,0-2.5-1.1-2.5-2.5v0c0-1.4,1.1-2.5,2.5-2.5l39,0c1.4,0,2.5,1.1,2.5,2.5v0
	C106,37.4,104.9,38.5,103.5,38.5z"/>
<path d="M81.5,55l0-39c0-1.4,1.1-2.5,2.5-2.5h0c1.4,0,2.5,1.1,2.5,2.5l0,39c0,1.4-1.1,2.5-2.5,2.5h0C82.6,57.5,81.5,56.4,81.5,55z"
	/>
</svg>
