<?xml version="1.0" encoding="utf-8"?>
<!-- Generator: Adobe Illustrator 23.0.5, SVG Export Plug-In . SVG Version: 6.00 Build 0)  -->
<svg version="1.1" id="Layer_1" xmlns="http://www.w3.org/2000/svg" xmlns:xlink="http://www.w3.org/1999/xlink" x="0px" y="0px"
	 viewBox="0 0 100 100" style="enable-background:new 0 0 100 100;" xml:space="preserve">
<style type="text/css">
	.st0{fill:#BFBEBE;}
</style>
<path class="st0" d="M57.8,50l11.7,11.7c1.9,1.9,1.9,5.1,0,7l-0.8,0.8c-1.9,1.9-5,1.9-7,0L50,57.8L38.3,69.6c-1.9,1.9-5,1.9-7,0
	l-0.8-0.8c-1.9-1.9-1.9-5,0-7L42.2,50L30.4,38.3c-1.9-1.9-1.9-5,0-7l0.8-0.8c1.9-1.9,5.1-1.9,7,0L50,42.2l11.7-11.7
	c1.9-1.9,5.1-1.9,7,0l0.8,0.8c1.9,1.9,1.9,5.1,0,7L57.8,50z"/>
</svg>
