<?xml version="1.0" encoding="utf-8"?>
<!-- Generator: Adobe Illustrator 23.0.5, SVG Export Plug-In . SVG Version: 6.00 Build 0)  -->
<svg version="1.1" id="Layer_1" xmlns="http://www.w3.org/2000/svg" xmlns:xlink="http://www.w3.org/1999/xlink" x="0px" y="0px"
	 viewBox="0 0 150 150" style="enable-background:new 0 0 150 150;" xml:space="preserve">
<style type="text/css">
	.st0{fill:#FFFFFF;}
</style>
<g>
	<path class="st0" d="M123,139L27,139c-8.9,0-16-7.2-16-16L11,27c0-8.9,7.2-16,16-16l95.9,0c8.9,0,16,7.2,16,16l0,95.9
		C139,131.8,131.8,139,123,139z"/>
	<path d="M132.8,11v1.2c2.8,0,5.1,2.3,5.1,5.1l0,115.6c0,2.8-2.3,5.1-5.1,5.1l-115.6,0c-2.8,0-5.1-2.3-5.1-5.1l0-115.6
		c0-2.8,2.3-5.1,5.1-5.1l115.6,0V11 M132.8,11L17.2,11c-3.4,0-6.2,2.8-6.2,6.2l0,115.6c0,3.4,2.8,6.2,6.2,6.2l115.6,0
		c3.4,0,6.2-2.8,6.2-6.2l0-115.6C139,13.8,136.2,11,132.8,11L132.8,11z"/>
</g>
<path d="M71.9,114c-23.8,0-43.1-19.6-43.1-43.7s19.3-43.7,43.1-43.7S115,46.3,115,70.3S95.7,114,71.9,114z M71.9,30.9
	C50.4,30.9,33,48.6,33,70.3s17.5,39.4,38.9,39.4s38.9-17.7,38.9-39.4S93.4,30.9,71.9,30.9z"/>
<path d="M118.9,130.7l-14-14c-1.2-1.2-1.2-3.1,0-4.2l7.2-7.5c1.1-1.2,3-1.2,4.1,0l14,14c1.2,1.2,1.2,3.1,0,4.2l-7.2,7.5
	C121.9,131.8,120.1,131.8,118.9,130.7z"/>
<polygon points="112.1,117.7 99,104.4 104.3,99 117.3,112.3 "/>
<path d="M98,68.8v2.4c0,1.2-1,2.2-2.2,2.2l-20.2,0l0,19.2c0,1.4-1.2,2.5-2.6,2.5h-1.7c-1.4,0-2.6-1.1-2.6-2.5l0-19.2l-20.2,0
	c-1.2,0-2.2-1-2.2-2.2l0-2.4c0-1.2,1-2.2,2.2-2.2l20.2,0l0-19.2c0-1.4,1.2-2.5,2.6-2.5h1.7c1.4,0,2.6,1.1,2.6,2.5l0,19.2l20.2,0
	C97,66.6,98,67.6,98,68.8z"/>
</svg>
