<?xml version="1.0" encoding="utf-8"?>
<!-- Generator: Adobe Illustrator 23.0.5, SVG Export Plug-In . SVG Version: 6.00 Build 0)  -->
<svg version="1.1" id="Layer_1" xmlns="http://www.w3.org/2000/svg" xmlns:xlink="http://www.w3.org/1999/xlink" x="0px" y="0px"
	 viewBox="0 0 512 512" style="enable-background:new 0 0 512 512;" xml:space="preserve">
<style type="text/css">
	.st0{fill:#A5A5A5;}
	.st1{fill:#58637C;}
</style>
<g transform="translate(-1)">
	<path id="Shape" class="st0" d="M257,219.4c-45.4,0-82.3,36.8-82.3,82.3S211.6,384,257,384s82.3-36.8,82.3-82.3
		C339.2,256.3,302.4,219.5,257,219.4z M257,329.1c-15.1,0-27.4-12.3-27.4-27.4s12.3-27.4,27.4-27.4c15.1,0,27.4,12.3,27.4,27.4
		C284.4,316.9,272.1,329.1,257,329.1z"/>
	<circle id="Oval" class="st1" cx="257" cy="301.7" r="9.1"/>
	<path class="st0" d="M509.6,136.2C479,111.7,392.9,54.9,257,54.9S35,111.7,4.4,136.2c-2.9,2.4-4.1,6.4-2.9,10L31.8,228
		c1.4,4.6,6.1,7.4,10.8,6.3l88.5-20.4c4.2-1,7.1-4.7,7.1-8.9v-41c0-8.7,4.2-16.9,11.2-22.1c31.5-22,69.2-33.2,107.6-32.2
		c38.4-1.1,76.1,10.2,107.6,32.2c7,5.2,11.2,13.4,11.2,22.1v40.9c0,4.3,2.9,7.9,7.1,8.9l88.5,20.4c4.6,1.1,9.2-1.6,10.7-6l30.5-82.3
		C513.7,142.4,512.5,138.5,509.6,136.2L509.6,136.2z"/>
	<path class="st0" d="M399.9,236.5l-21-4.8c-12.5-2.8-21.3-13.9-21.3-26.7v-41c0-2.9-1.4-5.7-3.8-7.4C325.4,137,291.5,126.9,257,128
		c-34.5-1.1-68.4,8.9-96.8,28.6c-2.4,1.7-3.8,4.5-3.8,7.4v40.9c0,12.8-8.8,23.9-21.3,26.7l-21,4.8l-93.4,148
		c-0.9,1.5-1.4,3.2-1.4,4.9V448c0,5,4.1,9.1,9.1,9.1h457.1c5,0,9.1-4.1,9.1-9.1v-58.7c0-1.7-0.5-3.5-1.4-4.9L399.9,236.5z
		 M257,402.3c-55.5,0-100.6-45-100.6-100.6s45-100.6,100.6-100.6s100.6,45,100.6,100.6C357.5,357.2,312.5,402.2,257,402.3z"/>
</g>
</svg>
