<?xml version="1.0" encoding="utf-8"?>
<!-- Generator: Adobe Illustrator 23.0.5, SVG Export Plug-In . SVG Version: 6.00 Build 0)  -->
<svg version="1.1" id="Capa_1" xmlns="http://www.w3.org/2000/svg" xmlns:xlink="http://www.w3.org/1999/xlink" x="0px" y="0px"
	 viewBox="0 0 512 512" style="enable-background:new 0 0 512 512;" xml:space="preserve">
<style type="text/css">
	.st0{stroke:#000000;stroke-width:13;stroke-miterlimit:10;}
	.st1{fill:none;stroke:#000000;stroke-width:14;stroke-miterlimit:10;}
</style>
<path class="st0" d="M185.2,450.8c12,27.2,39.2,46.2,70.8,46.2s58.8-19,70.8-46.2H185.2z"/>
<path class="st0" d="M256,66.9c20.8,0,40.8,3.7,59.4,10.4V75c0-31.4-25.6-57-57-57h-4.7c-31.4,0-57,25.6-57,57v2.3
	C215.2,70.6,235.2,66.9,256,66.9z"/>
<path class="st1" d="M443.5,430h-375c-7.1,0-13.6-4.6-15.1-11.2c-1.5-6.6,1.7-13.1,8-15.9c1.5-0.9,12.9-8.5,24.2-31.6
	c20.9-42.3,25.2-101.8,25.2-144.3C110.9,150.3,176,88,256,88c79.8,0,144.8,62.1,145.1,138.5c0,0.2,0,0.4,0,0.6
	c0,42.5,4.4,102,25.2,144.3c11.4,23,22.7,30.6,24.2,31.6c6.4,2.8,9.5,9.3,8,15.9C457.1,425.4,450.6,430,443.5,430z M450.7,403
	L450.7,403L450.7,403z"/>
</svg>
