<?xml version="1.0" encoding="utf-8"?>
<!-- Generator: Adobe Illustrator 23.0.5, SVG Export Plug-In . SVG Version: 6.00 Build 0)  -->
<svg version="1.1" xmlns="http://www.w3.org/2000/svg" xmlns:xlink="http://www.w3.org/1999/xlink" x="0px" y="0px"
	 viewBox="0 0 100 100" style="enable-background:new 0 0 100 100;" xml:space="preserve">
<style type="text/css">
	.st0{fill:none;stroke:#000000;stroke-miterlimit:10;}
</style>
<g id="Layer_1_copy">
	<path class="st0" d="M74,71.8l-1.4,13.3c-0.2,1.7-1.5,3-2.9,2.9C41.5,86.5,24,63.3,23.8,63.1C14.1,50.7,8,33.6,12.8,10.3
		C13,8.9,14.7,8,16.4,8.4l13.1,2.7c0.8,0.2,1.6,0.5,2.2,0.9l0.9,0.6c1.1,0.7,1.6,1.8,1.6,2.9l-1.8,17.7l-11.3,6
		c0,0,3.5,10.2,11.1,20.6c3.3,4.9,12.6,11.8,12.6,11.8l9.1-9L71.2,66c1.1,0.3,1.9,1.2,2.3,2.4l0.3,1C74,70.1,74.1,71,74,71.8z"/>
</g>
<g id="Layer_1">
</g>
</svg>
