<?xml version="1.0" encoding="utf-8"?>
<!-- Generator: Adobe Illustrator 23.0.5, SVG Export Plug-In . SVG Version: 6.00 Build 0)  -->
<svg version="1.1" id="Layer_1" xmlns="http://www.w3.org/2000/svg" xmlns:xlink="http://www.w3.org/1999/xlink" x="0px" y="0px"
	 viewBox="0 0 150 150" style="enable-background:new 0 0 150 150;" xml:space="preserve">
<style type="text/css">
	.st0{font-family:'Algerian';}
	.st1{font-size:156.9084px;}
</style>
<path d="M82.8,73.8v0.4c0,3.6-3.1,6.6-6.8,6.6H53.6l0.4,21.4c0.1,3.7-3,6.8-6.8,6.8l-0.2,0c-3.8,0.1-7-2.9-7.1-6.6l-0.4-21.7H16.9
	c-3.8,0-6.8-3-6.8-6.6v-0.4c0-3.6,3.1-6.6,6.8-6.6h22.3l-0.4-21.4c-0.1-3.7,3-6.8,6.8-6.8l0.2,0c3.8-0.1,7,2.9,7.1,6.6l0.4,21.7
	h22.6C79.7,67.2,82.8,70.2,82.8,73.8z"/>
<text transform="matrix(1.0006 0 0 1 64.46 120.7832)" class="st0 st1">1</text>
</svg>
