<?xml version="1.0" encoding="utf-8"?>
<!-- Generator: Adobe Illustrator 23.0.5, SVG Export Plug-In . SVG Version: 6.00 Build 0)  -->
<svg version="1.1" id="Capa_1" xmlns="http://www.w3.org/2000/svg" xmlns:xlink="http://www.w3.org/1999/xlink" x="0px" y="0px"
	 viewBox="0 0 512 512" style="enable-background:new 0 0 512 512;" xml:space="preserve">
<style type="text/css">
	.st0{fill:none;stroke:#000000;stroke-width:17;stroke-miterlimit:10;}
</style>
<g>
	<path class="st0" d="M2.5,70.1L18.6,69c19-0.4,29.2-0.7,42.5,10.9c14.2,12.4,18.1,29.2,18.1,29.2c18.8,80,51.1,240.5,51.1,240.5
		c6.8,23.9,44.4,23.9,69.7,23.9l244.1-3"/>
	<path class="st0" d="M84,128.6h412l-35.5,145.1c-8.1,19.3-22,25.5-39.2,26.3l-298.1,14.8"/>
	<ellipse class="st0" cx="196.1" cy="431.7" rx="31.6" ry="31.7"/>
	<ellipse class="st0" cx="377.5" cy="431.7" rx="31.6" ry="31.7"/>
	<line class="st0" x1="210.9" y1="169.2" x2="210.9" y2="261.8"/>
	<line class="st0" x1="290.1" y1="179.6" x2="290.1" y2="248.7"/>
	<line class="st0" x1="365.5" y1="189.8" x2="365.5" y2="241.2"/>
	<polyline class="st0" points="146.9,128.6 239.1,51.9 318.4,128.6 	"/>
	<polyline class="st0" points="311.6,97.4 365.5,51.9 440.7,128.6 	"/>
</g>
</svg>
